<?xml version="1.0" standalone="no"?>
<!DOCTYPE svg PUBLIC "-//W3C//DTD SVG 1.1//EN" "http://www.w3.org/Graphics/SVG/1.1/DTD/svg11.dtd" >
<svg xmlns="http://www.w3.org/2000/svg" xmlns:xlink="http://www.w3.org/1999/xlink" version="1.1">
<metadata>
Created by FontForge 20201107 at Tue Jan 18 10:36:03 2022
 By Unknown
Copyright (c) 2021 Chenet @ Chenthil Kumar &#38; ValluvarVallalarVattam. All rights reserved
</metadata>
<defs>
<font id="Chenet-Regular" horiz-adv-x="501" >
  <font-face 
    font-family="Chenet - "
    font-weight="400"
    font-stretch="normal"
    units-per-em="1000"
    panose-1="0 0 0 0 0 0 0 0 0 0"
    ascent="800"
    descent="-200"
    x-height="470"
    cap-height="630"
    bbox="-341 -410 3079 935"
    underline-thickness="20"
    underline-position="-133"
    unicode-range="U+000D-11FFF"
  />
<missing-glyph horiz-adv-x="500" 
 />
    <glyph glyph-name="f_f" unicode="ff" horiz-adv-x="611" 
d="M88 470v83q0 78 40.5 120t116.5 42q55 0 103 -24l-23 -61q-20 8 -32 10.5t-29 2.5q-48 0 -68.5 -26.5t-20.5 -92.5v-54h201v83q0 78 40.5 120t116.5 42q55 0 103 -24l-23 -61q-20 8 -32 10.5t-29 2.5q-48 0 -68.5 -26.5t-20.5 -92.5v-54h143v-66h-143v-404h-87v404h-201
v-404h-87v404h-69v66h69z" />
    <glyph glyph-name="fi" unicode="fi" horiz-adv-x="525" 
d="M19 404v66h69v53q0 42 14 77.5t39.5 61t62 39.5t81.5 14q28 0 63.5 -8t59.5 -20l-18 -61q-20 8 -43 12.5t-43 4.5q-63 0 -96 -28.5t-33 -100.5v-44h287v-470h-88v404h-199v-404h-87v404h-69z" />
    <glyph glyph-name="fl" unicode="fl" horiz-adv-x="530" 
d="M19 470h69v53q0 42 14 77.5t39.5 61t62.5 39.5t82 14q57 0 100 -13.5t74 -30.5v-671h-86v404h-199v-404h-87v404h-69v66zM175 470h199v161q-17 5 -35.5 8.5t-34.5 3.5q-63 0 -96 -28.5t-33 -100.5v-44z" />
    <glyph glyph-name="f_f_i" unicode="ffi" horiz-adv-x="816" 
d="M19 404v66h69v83q0 78 40.5 120t116.5 42q55 0 103 -24l-23 -61q-20 8 -32 10.5t-29 2.5q-48 0 -68.5 -26.5t-20.5 -92.5v-54h199v53q0 42 14 77.5t39.5 61t62 39.5t81.5 14q28 0 63.5 -8t59.5 -20l-18 -61q-20 8 -43 12.5t-43 4.5q-63 0 -96 -28.5t-33 -100.5v-44h287
v-470h-88v404h-199v-404h-87v404h-199v-404h-87v404h-69z" />
    <glyph glyph-name="f_f_l" unicode="ffl" horiz-adv-x="803" 
d="M19 470h69v83q0 78 40.5 120t116.5 42q55 0 103 -24l-23 -61q-20 8 -32 10.5t-29 2.5q-48 0 -68.5 -26.5t-20.5 -92.5v-54h198v53q0 42 14 77.5t39.5 61t62.5 39.5t82 14q57 0 100 -13.5t74 -30.5v-671h-86v404h-199v-404h-87v404h-198v-404h-87v404h-69v66zM460 470h199
v161q-17 5 -35.5 8.5t-34.5 3.5q-63 0 -96 -28.5t-33 -100.5v-44z" />
    <glyph glyph-name="f_f_j" unicode="ffj" horiz-adv-x="776" 
d="M19 404v66h69v83q0 78 40.5 120t116.5 42q55 0 103 -24l-23 -61q-20 8 -32 10.5t-29 2.5q-48 0 -68.5 -26.5t-20.5 -92.5v-54h201v53q0 42 14 77.5t39.5 61t62 39.5t81.5 14q28 0 63.5 -8t59.5 -20l-18 -61q-20 8 -43 12.5t-43 4.5q-63 0 -96 -28.5t-33 -100.5v-44h287
v-399q0 -57 -6.5 -104.5t-24.5 -86t-50 -68.5t-82 -52l-41 66q32 16 54 33t36 42.5t20 63.5t6 95v344h-199v-404h-87v404h-201v-404h-87v404h-69z" />
    <glyph glyph-name="f_j" unicode="fj" horiz-adv-x="530" 
d="M88 470v53q0 42 14 77.5t39.5 61t62 39.5t81.5 14q28 0 63.5 -8t59.5 -20l-18 -61q-20 8 -43 12.5t-43 4.5q-63 0 -96 -28.5t-33 -100.5v-44h287v-399q0 -57 -6.5 -104.5t-24.5 -86t-50 -68.5t-82 -52l-41 66q32 16 54 33t36 42.5t20 63.5t6 95v344h-199v-404h-87v404
h-69v66h69z" />
    <glyph glyph-name=".notdef" horiz-adv-x="500" 
 />
    <glyph glyph-name="uni0000" horiz-adv-x="0" 
 />
    <glyph glyph-name="uni000D" unicode="&#xd;" horiz-adv-x="250" 
 />
    <glyph glyph-name="space" unicode=" " horiz-adv-x="280" 
 />
    <glyph glyph-name="uni0000.1" horiz-adv-x="0" 
 />
    <glyph glyph-name="uni000D.1" horiz-adv-x="1024" 
 />
    <glyph glyph-name="exclam" unicode="!" horiz-adv-x="226" 
d="M161 568l-10 -401h-66l-8 401h84zM118 99q22 0 36 -14.5t14 -37.5t-14 -37.5t-36 -14.5t-36 14.5t-14 37.5t14 37.5t36 14.5z" />
    <glyph glyph-name="quotedbl" unicode="&#x22;" horiz-adv-x="232" 
d="M137 576h73l-13 -174h-48zM95 576l-12 -174h-48l-13 174h73z" />
    <glyph glyph-name="numbersign" unicode="#" horiz-adv-x="489" 
d="M21 170v57h102l24 147h-98v57h108l26 161h57l-26 -161v-1h113v1l26 161h58l-27 -161h82v-57h-90l-25 -147h88v-57h-95l-28 -170h-58l27 170h-112l-28 -170h-58l27 170h-93zM181 227h113l24 147h-113z" />
    <glyph glyph-name="dollar" unicode="$" horiz-adv-x="392" 
d="M228 576v-82q48 -4 99 -30l-22 -58q-29 15 -54.5 21.5t-51.5 6.5q-38 0 -62 -16.5t-24 -51.5q0 -32 22 -46t58 -26l37 -12q63 -20 94 -53t31 -84q0 -30 -11 -53.5t-29.5 -41t-44 -28t-54.5 -13.5v-84h-58v84q-34 2 -61 10t-58 25l28 58q34 -20 65 -26.5t55 -6.5
q38 0 65.5 17t27.5 53q0 33 -23 50t-68 31l-37 12q-51 17 -82.5 46t-31.5 81q0 61 35.5 95.5t96.5 39.5v82h58z" />
    <glyph glyph-name="percent" unicode="%" horiz-adv-x="674" 
d="M161 600q31 0 56 -12t41.5 -32.5t25.5 -47.5t9 -57t-8.5 -57.5t-25.5 -47.5t-42 -32t-58 -12q-32 0 -57 12t-41.5 32t-25 47.5t-8.5 57.5t9 57t26.5 47.5t42 32.5t56.5 12zM161 551q-19 0 -32.5 -8t-22 -21.5t-12.5 -32t-4 -38.5t3.5 -38.5t12 -32.5t21.5 -22t32 -8
q37 0 54 28t17 73q0 19 -3.5 37.5t-11.5 32t-21.5 22t-32.5 8.5zM544 600l-350 -600h-62l350 600h62zM507 291q31 0 56 -12t41.5 -32.5t25.5 -47.5t9 -57t-8.5 -57.5t-25.5 -47.5t-42 -32t-58 -12q-32 0 -57 12t-41.5 32t-25 47.5t-8.5 57.5t9 57t26.5 47.5t42 32.5t56.5 12
zM507 242q-19 0 -32.5 -8t-22 -21.5t-12.5 -32t-4 -38.5t3.5 -38.5t12 -32.5t21.5 -22t32 -8q37 0 54 28t17 73q0 19 -3.5 37.5t-11.5 32t-21.5 22t-32.5 8.5z" />
    <glyph glyph-name="ampersand" unicode="&#x26;" horiz-adv-x="658" 
d="M30 186q0 37 12.5 67t33.5 54t49 42t60 31q-26 29 -45.5 66.5t-19.5 82.5q0 33 13 59t35.5 44.5t53 28t64.5 9.5t63.5 -10t51 -28.5t33.5 -44.5t12 -57q0 -53 -27 -88t-71 -57l-41 49q26 14 41.5 37t15.5 54q0 35 -22.5 57t-57.5 22q-38 0 -59 -21t-21 -55
q0 -45 25 -82.5t72 -84.5l168 -170q17 26 32 60.5t26 66.5l72 -29q-16 -45 -36 -84t-40 -69l135 -136h-108l-76 78q-14 -16 -34.5 -31.5t-47.5 -27.5t-60.5 -19.5t-73.5 -7.5q-52 0 -94 14.5t-72 40.5t-46 61.5t-16 77.5zM116 188q0 -63 41.5 -95.5t110.5 -32.5q21 0 43.5 5
t43.5 14.5t38.5 22.5t29.5 29l-196 199q-22 -11 -42 -25t-35.5 -31.5t-24.5 -39t-9 -46.5z" />
    <glyph glyph-name="quotesingle" unicode="'" horiz-adv-x="117" 
d="M95 576l-13 -174h-48l-12 174h73z" />
    <glyph glyph-name="parenleft" unicode="(" horiz-adv-x="260" 
d="M224 555q-44 -68 -71 -145.5t-27 -171.5q0 -47 6.5 -88.5t19 -80.5t30.5 -76.5t42 -75.5l-44 -25q-24 33 -47.5 70t-42 79.5t-29.5 91t-11 105.5q0 56 11.5 106.5t30.5 94t42.5 80t47.5 65.5z" />
    <glyph glyph-name="parenright" unicode=")" horiz-adv-x="261" 
d="M81 584q24 -33 47.5 -70.5t42 -80t29.5 -91.5t11 -105t-11.5 -106t-30.5 -93.5t-42 -80.5t-47 -65l-43 29q44 67 71 144.5t27 171.5q0 47 -6.5 89t-19 81t-30.5 76.5t-42 75.5z" />
    <glyph glyph-name="asterisk" unicode="*" horiz-adv-x="308" 
d="M183 551v-53l-12 -54l49 26l53 16l17 -52l-53 -16l-55 -7l40 -37l33 -45l-45 -33l-32 45l-23 49l-22 -49l-35 -45l-44 33l34 44l40 38l-55 7l-53 16l17 52l52 -16l50 -26l-12 53v54h56z" />
    <glyph glyph-name="plus" unicode="+" horiz-adv-x="562" 
d="M40 338h209v209h64v-209h209v-64h-209v-209h-64v209h-209v64z" />
    <glyph glyph-name="comma" unicode="," horiz-adv-x="164" 
d="M77 97q10 0 20.5 -3t19.5 -11.5t15 -24t6 -40.5q0 -45 -26.5 -81t-71.5 -57l-26 34q26 11 43.5 28.5t23.5 44.5l-15 3q-22 4 -32 19t-10 35t13.5 36.5t39.5 16.5z" />
    <glyph glyph-name="hyphen" unicode="-" horiz-adv-x="258" 
d="M229 266v-63h-200v63h200z" />
    <glyph glyph-name="period" unicode="." horiz-adv-x="152" 
d="M76 103q23 0 37.5 -15t14.5 -39t-14.5 -39t-37.5 -15t-37.5 15t-14.5 39t14.5 39t37.5 15z" />
    <glyph glyph-name="slash" unicode="/" horiz-adv-x="306" 
d="M308 600l-243 -687h-66l243 687h66z" />
    <glyph glyph-name="zero" unicode="0" horiz-adv-x="492" 
d="M245 444q-119 0 -119 -192t123 -192q117 0 117 192t-121 192zM249 511q94 0 144.5 -67.5t50.5 -191.5t-51.5 -191.5t-147.5 -67.5q-94 0 -146 67t-52 192q0 124 53 191.5t149 67.5z" />
    <glyph glyph-name="one" unicode="1" horiz-adv-x="277" 
d="M202 505v-505h-76v421l-90 -42l-25 64l132 62h59z" />
    <glyph glyph-name="two" unicode="2" horiz-adv-x="374" 
d="M162 511q75 0 116.5 -39.5t41.5 -110.5q0 -32 -10.5 -61.5t-31.5 -59.5t-51.5 -62.5t-70.5 -71.5l-47 -45l218 3v-64h-302l-12 54l69 69q44 44 74.5 76.5t50 59.5t28 50t8.5 47q0 42 -22.5 64t-64.5 22q-26 0 -49.5 -9.5t-49.5 -29.5l-34 55q30 24 65 38.5t74 14.5z" />
    <glyph glyph-name="three" unicode="3" horiz-adv-x="372" 
d="M163 511q68 0 110 -35.5t42 -93.5q0 -47 -24.5 -78t-58.5 -44q44 -10 72 -42.5t28 -78.5q0 -69 -48 -107.5t-133 -38.5q-34 0 -69 6.5t-61 19.5l20 62q27 -10 49.5 -16t57.5 -6q20 0 39 4.5t34 14.5t24 26t9 39q0 39 -28 60.5t-79 21.5h-61v62h47q51 0 78.5 22t27.5 62
q0 33 -22 53.5t-60 20.5q-30 0 -51.5 -7.5t-48.5 -22.5l-27 57q29 18 62.5 28.5t70.5 10.5z" />
    <glyph glyph-name="four" unicode="4" horiz-adv-x="427" 
d="M256 505h82v-320h72v-60h-72v-125h-73v125h-248v49zM265 185v140l4 103h-3l-37 -70l-124 -173h160z" />
    <glyph glyph-name="five" unicode="5" horiz-adv-x="377" 
d="M321 505v-62l-184 -2l-15 -123q12 2 23 3t23 1q39 0 70.5 -11.5t54 -32t35 -50t12.5 -65.5q0 -79 -52.5 -124.5t-144.5 -45.5q-32 0 -62.5 7t-56.5 19l20 63q24 -10 47.5 -16t52.5 -6q57 0 88 25.5t31 73.5q0 50 -34.5 74t-85.5 24q-45 0 -95 -11l24 258z" />
    <glyph glyph-name="six" unicode="6" horiz-adv-x="450" 
d="M272 511q56 0 99 -20l-19 -61q-35 16 -78 16q-70 0 -105.5 -47t-37.5 -122q22 30 53.5 44t64.5 14q73 0 117 -46t44 -122q0 -39 -12.5 -71t-35.5 -55t-55.5 -35.5t-71.5 -12.5q-85 0 -132.5 62t-47.5 176q0 78 18 131.5t48 86.5t69 47.5t82 14.5zM234 269
q-34 0 -58.5 -14.5t-35.5 -36.5q-5 -9 -6 -19t-1 -19q0 -54 28.5 -87.5t74.5 -33.5q44 0 71 29t27 77q0 50 -26 77t-74 27z" />
    <glyph glyph-name="seven" unicode="7" horiz-adv-x="360" 
d="M16 505h318v-53l-218 -466l-68 28l205 426h-237v65z" />
    <glyph glyph-name="eight" unicode="8" horiz-adv-x="428" 
d="M217 511q72 0 115 -34.5t43 -91.5q0 -39 -26 -69t-71 -50q51 -22 80.5 -52.5t29.5 -78.5q0 -32 -12.5 -58t-35 -45t-54.5 -29t-71 -10t-71 10t-55 28t-35.5 43t-12.5 55q0 48 26.5 78.5t78.5 53.5q-42 19 -65.5 49t-23.5 69q0 30 11.5 54t32.5 41.5t50.5 27t65.5 9.5z
M215 448q-38 0 -61 -19t-23 -51t23 -51.5t65 -34.5q35 14 58.5 34.5t23.5 53.5q0 31 -23.5 49.5t-62.5 18.5zM209 234q-41 -13 -66 -35t-25 -63q0 -36 27 -58.5t72 -22.5q43 0 69 22.5t26 58.5q0 39 -29.5 62.5t-73.5 35.5z" />
    <glyph glyph-name="nine" unicode="9" horiz-adv-x="438" 
d="M208 511q84 0 131 -64t47 -178q0 -276 -215 -276q-33 0 -59.5 6.5t-49.5 18.5l20 61q20 -11 41 -16t49 -5q136 0 141 163q-20 -24 -50.5 -38t-64.5 -14q-73 0 -117 46t-44 123q0 39 12 71t34.5 54.5t54 35t70.5 12.5zM206 445q-43 0 -68 -28.5t-25 -77.5q0 -50 26 -77
t73 -27q31 0 53.5 12.5t35.5 33.5q5 8 7 17.5t2 17.5q0 27 -7.5 50.5t-21 41t-33 27.5t-42.5 10z" />
    <glyph glyph-name="colon" unicode=":" horiz-adv-x="154" 
d="M77 351q22 0 36 -14.5t14 -37.5t-14 -37.5t-36 -14.5t-36 14.5t-14 37.5t14 37.5t36 14.5zM77 97q22 0 36 -14.5t14 -37.5t-14 -37.5t-36 -14.5t-36 14.5t-14 37.5t14 37.5t36 14.5z" />
    <glyph glyph-name="semicolon" unicode=";" horiz-adv-x="168" 
d="M84 351q22 0 36 -14.5t14 -37.5t-14 -37.5t-36 -14.5t-36 14.5t-14 37.5t14 37.5t36 14.5zM83 97q10 0 20.5 -3t19.5 -11.5t15 -24t6 -40.5q0 -45 -26 -81t-66 -57l-26 34q22 11 38.5 28.5t22.5 44.5l-15 3q-22 4 -32 19t-10 35t13.5 36.5t39.5 16.5z" />
    <glyph glyph-name="less" unicode="&#x3c;" horiz-adv-x="496" 
d="M430 493v-72l-299 -167l299 -167v-72l-364 210v58z" />
    <glyph glyph-name="equal" unicode="=" horiz-adv-x="463" 
d="M40 422h383v-63h-383v63zM40 190v63h383v-63h-383z" />
    <glyph glyph-name="greater" unicode="&#x3e;" horiz-adv-x="496" 
d="M66 421v72l364 -210v-58l-364 -210v72l299 167z" />
    <glyph glyph-name="question" unicode="?" horiz-adv-x="314" 
d="M131 572q74 0 115 -38t41 -96q0 -42 -25.5 -77t-55.5 -63q-32 -29 -50 -50.5t-18 -48.5q0 -11 1 -19.5t6 -21.5l-65 -15q-6 12 -8.5 25.5t-2.5 27.5q0 35 16.5 63.5t52.5 63.5q29 28 50 53.5t21 58.5q0 26 -18 48t-64 22q-19 0 -39 -5t-40 -20l-33 56q24 19 55.5 27.5
t60.5 8.5zM119 99q22 0 36 -14.5t14 -37.5t-14 -37.5t-36 -14.5t-36 14.5t-14 37.5t14 37.5t36 14.5z" />
    <glyph glyph-name="at" unicode="@" horiz-adv-x="965" 
d="M564 62h-2q-17 -17 -33.5 -30.5t-35.5 -22.5t-40.5 -13.5t-49.5 -4.5q-61 0 -97 33.5t-36 87.5q0 6 0.5 12t1.5 12q6 37 25 63.5t48.5 44t67 25.5t80.5 8h90l7 40q2 7 2 13.5v11.5q0 36 -22 49.5t-60 13.5q-24 0 -61 -8.5t-84 -32.5l-24 64q51 25 95 37t91 12
q34 0 62.5 -6.5t48.5 -21.5t31.5 -39t11.5 -60q0 -10 -1 -21t-3 -23l-26 -160q-6 -32 -6 -50q0 -20 7 -28t24 -8q34 0 62.5 22t49.5 59.5t33 86t12 101.5q0 63 -19.5 117t-57 93.5t-92 62.5t-124.5 23q-84 0 -158 -28.5t-129 -85t-87 -141t-32 -196.5q0 -91 29.5 -153
t77 -100t107 -54.5t118.5 -16.5q64 0 109 11.5t85 27.5l18 -62q-42 -18 -100.5 -32t-127.5 -14q-74 0 -145.5 21t-127.5 67.5t-90.5 120t-34.5 179.5q0 131 42 229t110.5 163.5t155 98t176.5 32.5q92 0 163 -27.5t119.5 -75.5t73.5 -113.5t25 -142.5q0 -74 -20 -135.5
t-54.5 -105.5t-82 -68.5t-101.5 -24.5q-26 0 -46 3.5t-31 8.5zM575 215h-75q-70 0 -100.5 -23.5t-35.5 -58.5q-1 -4 -1 -7.5v-6.5q0 -32 21.5 -47.5t52.5 -15.5q66 0 123 65z" />
    <glyph glyph-name="A" unicode="A" horiz-adv-x="590" 
d="M256 630h82l251 -630h-96l-69 175h-259l-68 -175h-95zM190 248h207l-42 109q-17 43 -31 83t-28 82h-2q-14 -42 -29 -81t-32 -84z" />
    <glyph glyph-name="B" unicode="B" horiz-adv-x="537" 
d="M269 630q94 0 146.5 -40.5t52.5 -118.5q0 -58 -32.5 -90.5t-81.5 -45.5q28 -5 52 -17.5t42 -32.5t28.5 -47t10.5 -62q0 -39 -17 -71.5t-47 -55.5t-71 -36t-90 -13h-182v630h189zM172 294v-220h80q28 0 53 5.5t44 18.5t30.5 34.5t11.5 52.5t-13.5 52t-35.5 33.5t-49.5 18
t-56.5 5.5h-64zM172 556v-189h75q25 0 48 4t40.5 15t28 29.5t10.5 48.5q0 48 -32.5 70t-86.5 22h-83z" />
    <glyph glyph-name="C" unicode="C" horiz-adv-x="559" 
d="M355 67q50 0 82.5 8t64.5 23l21 -74q-35 -17 -76.5 -25t-101.5 -8q-62 0 -117 21t-95.5 62t-64 101.5t-23.5 139.5q0 77 23 137.5t63.5 102t96.5 63t122 21.5q62 0 102 -10t74 -27l-22 -72q-19 8 -35.5 14.5t-33 10.5t-34 6t-39.5 2q-44 0 -83.5 -13.5t-69 -43.5
t-47 -77.5t-17.5 -114.5q0 -68 17 -115t45.5 -76t66.5 -42.5t81 -13.5z" />
    <glyph glyph-name="D" unicode="D" horiz-adv-x="642" 
d="M285 630q67 0 124 -19t98.5 -56.5t65 -94t23.5 -131.5q0 -91 -28 -154t-75.5 -102t-110 -56t-132.5 -17h-170v630h205zM172 76h69q48 0 94 10.5t81.5 39t57.5 77.5t22 126q0 54 -16 96t-46 70.5t-72.5 43.5t-94.5 15h-95v-478z" />
    <glyph glyph-name="E" unicode="E" 
d="M460 630v-76h-288v-189h262v-75h-262v-214h291v-76h-383v630h380z" />
    <glyph glyph-name="F" unicode="F" horiz-adv-x="485" 
d="M80 0v630h370v-76h-278v-204h256v-75h-256v-275h-92z" />
    <glyph glyph-name="G" unicode="G" horiz-adv-x="618" 
d="M355 639q55 0 99.5 -8t82.5 -28l-22 -72q-37 17 -72.5 25t-76.5 8q-44 0 -84 -13t-70.5 -42.5t-48.5 -77t-18 -117.5q0 -121 55 -184t155 -63q38 0 65.5 4t53.5 14v175h-119v72h205v-304q-40 -16 -89 -26.5t-116 -10.5q-65 0 -121.5 21t-98.5 62t-66 101t-24 139
t23.5 140t64.5 102t98 62t124 21z" />
    <glyph glyph-name="H" unicode="H" horiz-adv-x="642" 
d="M80 0v630h92v-265h299v265h92v-630h-92v287h-299v-287h-92z" />
    <glyph glyph-name="I" unicode="I" horiz-adv-x="251" 
d="M172 630v-630h-92v630h92z" />
    <glyph glyph-name="J" unicode="J" horiz-adv-x="269" 
d="M197 630v-515q0 -70 -6.5 -115t-31.5 -79q-30 -42 -78 -58.5t-96 -17.5v75q59 1 91 37q18 20 23.5 49t5.5 61v563h92z" />
    <glyph glyph-name="K" unicode="K" horiz-adv-x="576" 
d="M80 630h92v-285l265 285h114l-260 -279l280 -351h-116l-230 288l-53 -57v-231h-92v630z" />
    <glyph glyph-name="L" unicode="L" horiz-adv-x="456" 
d="M80 630h92v-552h269v-78h-361v630z" />
    <glyph glyph-name="M" unicode="M" horiz-adv-x="811" 
d="M117 630h120l132 -402q10 -29 19 -56.5t17 -55.5h2q8 28 16.5 54t19.5 58l129 402h120l55 -630h-92l-26 334q-4 49 -6 97t-4 99h-2q-14 -49 -28.5 -98t-30.5 -98l-111 -334h-84l-111 335q-17 51 -31 97.5t-28 97.5h-2q-2 -49 -5.5 -98t-7.5 -98l-24 -334h-90z" />
    <glyph glyph-name="N" unicode="N" horiz-adv-x="672" 
d="M80 0v630h80l287 -399q16 -22 31 -45t27 -45h2q-2 35 -3 70t-1 70v349h90v-630h-80l-284 394q-15 21 -31 47.5t-30 52.5h-2q2 -42 3 -84t1 -84v-326h-90z" />
    <glyph glyph-name="O" unicode="O" horiz-adv-x="686" 
d="M345 639q64 0 118 -20.5t93.5 -61t61.5 -101t22 -141.5q0 -79 -23 -139.5t-63 -101.5t-94.5 -62t-118.5 -21t-118 20.5t-93.5 61t-61.5 101t-22 141.5q0 79 23 139.5t63 101.5t94.5 62t118.5 21zM146 315q0 -64 15.5 -111t42.5 -78t63.5 -46t77.5 -15t76.5 15t62 46
t41.5 78t15 111q0 66 -15.5 113t-42.5 77.5t-63.5 45t-77.5 14.5t-77 -15t-62 -46t-41 -78t-15 -111z" />
    <glyph glyph-name="P" unicode="P" horiz-adv-x="523" 
d="M80 630h198q49 0 89 -12.5t69 -37t45 -60t16 -81.5q0 -49 -17 -86t-48 -61t-73 -36t-93 -12h-94v-244h-92v630zM172 556v-237h57q38 0 69.5 5t54 18t35.5 36.5t13 59.5q0 33 -12.5 55.5t-32.5 36.5t-46 20t-53 6h-85z" />
    <glyph glyph-name="Q" unicode="Q" horiz-adv-x="682" 
d="M345 639q64 0 118 -20.5t93.5 -61t61.5 -101t22 -141.5q0 -105 -43 -179t-139 -128l-136 -76q30 0 55.5 -7.5t51.5 -16.5t54 -16.5t62 -7.5q20 0 42.5 6.5t42.5 20.5l36 -67q-28 -18 -61.5 -27t-62.5 -9q-35 0 -69.5 9.5t-68.5 21t-67 21t-66 9.5q-26 0 -51.5 -8
t-51.5 -23l-38 69l154 89q-53 8 -96.5 32.5t-75 64t-49 95.5t-17.5 127q0 79 23 139.5t63 101.5t94.5 62t118.5 21zM146 315q0 -64 14 -111.5t39.5 -79.5t60.5 -48t76 -16t78 16.5t65 49t44.5 80t16.5 109.5q0 66 -15.5 113t-42.5 77.5t-63.5 45t-77.5 14.5t-77 -15t-62 -46
t-41 -78t-15 -111z" />
    <glyph glyph-name="R" unicode="R" horiz-adv-x="537" 
d="M80 630h205q49 0 86.5 -14t62.5 -39t38 -59.5t13 -75.5q0 -36 -11 -64.5t-29 -50.5t-41.5 -37.5t-47.5 -25.5l166 -264h-103l-149 247h-103v-247h-87v630zM167 322h76q31 0 57.5 6.5t46 20t31 35.5t11.5 53q0 61 -33.5 90t-97.5 29h-91v-234z" />
    <glyph glyph-name="S" unicode="S" horiz-adv-x="505" 
d="M257 639q46 0 89 -7.5t85 -27.5l-22 -76q-43 20 -77.5 28.5t-70.5 8.5q-57 0 -90 -25t-33 -70q0 -38 24.5 -61t80.5 -40l63 -20q86 -27 121.5 -73.5t35.5 -104.5q0 -41 -16.5 -74.5t-46 -57t-69.5 -36t-88 -12.5t-97.5 8.5t-98.5 31.5l22 75q43 -21 84 -31t86 -10
q54 0 92 25t38 74q0 18 -5.5 33.5t-19 29.5t-36.5 26t-58 23l-63 20q-69 22 -106 60t-37 103q0 83 54.5 131.5t158.5 48.5z" />
    <glyph glyph-name="T" unicode="T" 
d="M10 630h482v-78h-197v-552h-92v552h-193v78z" />
    <glyph glyph-name="U" unicode="U" horiz-adv-x="640" 
d="M72 249v381h92v-377q0 -101 37 -144t119 -43q81 0 118.5 48t37.5 127v389h92v-386q0 -129 -66 -191t-182 -62q-117 0 -182.5 61.5t-65.5 196.5z" />
    <glyph glyph-name="V" unicode="V" horiz-adv-x="574" 
d="M94 630l131 -356q14 -37 30.5 -81.5t30.5 -82.5h2l60 164l133 356h96l-248 -630h-89l-243 630h97z" />
    <glyph glyph-name="W" unicode="W" horiz-adv-x="859" 
d="M102 630l107 -371q4 -12 9 -30.5t9.5 -39t8.5 -41.5t6 -38h2q3 18 7.5 38.5t9.5 41t9.5 38.5t8.5 31l110 371h82l114 -371q4 -13 9 -31t9.5 -38t8.5 -41t7 -39h2q3 19 7.5 40t9.5 41.5t9.5 38t7.5 29.5l103 371h93l-185 -630h-93l-96 335q-7 26 -13 47.5t-12 41.5
t-11.5 40.5t-11.5 43.5h-2q-10 -45 -22 -90t-23 -83l-93 -335h-92l-189 630h94z" />
    <glyph glyph-name="X" unicode="X" horiz-adv-x="545" 
d="M6 0l210 320l-201 310h105l151 -246l158 246h101l-207 -310l217 -320h-106l-163 256l-164 -256h-101z" />
    <glyph glyph-name="Y" unicode="Y" horiz-adv-x="523" 
d="M10 630h101l157 -282l158 282h97l-213 -366v-264h-92v264z" />
    <glyph glyph-name="Z" unicode="Z" horiz-adv-x="511" 
d="M481 630v-55l-346 -501h351v-74h-460v65l340 491h-325v74h440z" />
    <glyph glyph-name="bracketleft" unicode="[" horiz-adv-x="260" 
d="M75 -109v700h157v-58h-82v-583h82v-59h-157z" />
    <glyph glyph-name="backslash" unicode="\" horiz-adv-x="284" 
d="M73 576l205 -646h-68l-205 646h68z" />
    <glyph glyph-name="bracketright" unicode="]" horiz-adv-x="260" 
d="M110 -50v583h-82v58h157v-700h-157v59h82z" />
    <glyph glyph-name="asciicircum" unicode="^" horiz-adv-x="516" 
d="M61 416l167 304h59l169 -304h-76l-122 243l-120 -243h-77z" />
    <glyph glyph-name="underscore" unicode="_" horiz-adv-x="366" 
d="M356 -190v-60h-346v60h346z" />
    <glyph glyph-name="grave" unicode="`" horiz-adv-x="210" 
d="M22 720h88l80 -165h-62z" />
    <glyph glyph-name="a" unicode="a" horiz-adv-x="489" 
d="M73 428q24 12 45 21.5t42 15.5t43 9t48 3q39 0 71.5 -8.5t56 -28.5t36.5 -52.5t13 -81.5v-306h-73l-11 52h-2q-31 -33 -68 -47t-82 -14q-34 0 -62.5 9.5t-49.5 27t-32.5 42.5t-11.5 56q0 74 58.5 112.5t154.5 38.5h90v40q0 51 -26 69.5t-70 18.5q-26 0 -59.5 -8.5
t-76.5 -32.5zM340 217l-74 -2q-75 -2 -106.5 -26.5t-31.5 -59.5q0 -21 7 -35.5t18.5 -22.5t27 -11.5t32.5 -3.5q33 0 67 15.5t60 49.5v96z" />
    <glyph glyph-name="b" unicode="b" horiz-adv-x="540" 
d="M156 710v-299q32 34 70.5 50t80.5 16q91 0 143 -63.5t52 -178.5q0 -56 -17 -101t-46 -77t-68 -49t-83 -17q-46 0 -80.5 13t-64.5 40h-2l-9 -44h-63v710h87zM156 112q21 -24 47.5 -38.5t61.5 -14.5q29 0 55 10t46 31.5t32 54.5t12 79q0 78 -33 124.5t-93 46.5
q-38 0 -69 -17t-59 -48v-228z" />
    <glyph glyph-name="c" unicode="c" horiz-adv-x="442" 
d="M291 59q32 0 56 7t47 18l19 -66q-54 -27 -129 -27q-51 0 -95.5 15t-78 45.5t-52.5 76t-19 106.5q0 56 18 101t50 76.5t77 48.5t99 17q31 0 60.5 -4.5t67.5 -21.5l-20 -67q-46 26 -99 26q-73 0 -118 -45.5t-45 -127.5q0 -51 14 -85t37 -54.5t52 -29.5t59 -9z" />
    <glyph glyph-name="d" unicode="d" horiz-adv-x="536" 
d="M250 477q37 0 70.5 -11.5t59.5 -34.5v279h88v-710h-74l-11 52h-3q-31 -32 -62.5 -46.5t-79.5 -14.5q-37 0 -73 15t-64 45t-45 76t-17 107q0 56 14.5 100.5t41.5 76.5t66.5 49t88.5 17zM258 59q75 0 122 65v233q-47 53 -111 53q-27 0 -52.5 -9.5t-45 -30.5t-31.5 -53.5
t-12 -79.5q0 -48 11 -81.5t29.5 -55t42 -31.5t47.5 -10z" />
    <glyph glyph-name="e" unicode="e" horiz-adv-x="504" 
d="M468 225h-337v-4q0 -78 42.5 -120t115.5 -42q38 0 67.5 6t64.5 20l18 -65q-29 -13 -68.5 -21t-84.5 -8q-51 0 -95.5 14t-78.5 43.5t-53.5 75.5t-19.5 110q0 55 16.5 100t46.5 76.5t72.5 49t95.5 17.5q45 0 81.5 -15t62.5 -42t40 -65t14 -84v-46zM377 288q0 26 -6.5 48.5
t-20 39.5t-34.5 27t-51 10q-55 0 -89.5 -35t-42.5 -92z" />
    <glyph glyph-name="f" unicode="f" horiz-adv-x="332" 
d="M19 404v66h69v83q0 78 40.5 120t116.5 42q28 0 58.5 -8t54.5 -20l-18 -61q-20 8 -38 12.5t-38 4.5q-48 0 -68.5 -26.5t-20.5 -92.5v-54h143v-66h-143v-404h-87v404h-69z" />
    <glyph glyph-name="g" unicode="g" horiz-adv-x="541" 
d="M61 314q0 39 14 69.5t39.5 51.5t60.5 31.5t76 10.5q15 0 29 -2t28 -5h203v-65h-31l-80 11q19 -20 29.5 -46t10.5 -55q0 -39 -14 -69.5t-39 -51.5t-60 -31.5t-76 -10.5q-31 0 -54 4q-23 -8 -32 -20.5t-9 -26.5q0 -23 15.5 -31t41.5 -8h124q78 0 119.5 -35.5t41.5 -96.5
q0 -39 -17 -70t-48.5 -53t-76.5 -33.5t-101 -11.5q-102 0 -162.5 36.5t-60.5 107.5q0 37 23.5 62t61.5 38q-20 14 -30 29.5t-10 41.5q0 31 18.5 53t50.5 35q-40 18 -62.5 52.5t-22.5 88.5zM168 0q-51 -23 -51 -72q0 -88 142 -88q42 0 71 8t47 21t26.5 29t8.5 33
q0 42 -28.5 55.5t-71.5 13.5h-144zM351 312q0 53 -27.5 78t-72.5 25t-72.5 -25t-27.5 -74q0 -52 27.5 -76.5t72.5 -24.5t72.5 24t27.5 73z" />
    <glyph glyph-name="h" unicode="h" horiz-adv-x="540" 
d="M69 710h88v-300q33 29 73 48t88 19q78 0 115.5 -43.5t37.5 -109.5v-324h-88v302q0 54 -22 78.5t-67 24.5q-34 0 -68.5 -17t-68.5 -48v-340h-88v710z" />
    <glyph glyph-name="i" unicode="i" horiz-adv-x="246" 
d="M82 0v470h88v-470h-88zM126 591q-23 0 -39.5 15.5t-16.5 38.5t16.5 39t39.5 16q22 0 39 -16t17 -39t-17 -38.5t-39 -15.5z" />
    <glyph glyph-name="j" unicode="j" horiz-adv-x="246" 
d="M79 470h88v-399q0 -57 -6.5 -104.5t-24.5 -86t-50 -68.5t-82 -52l-41 66q31 16 53.5 33t36 42.5t20 63t6.5 95.5v410zM122 591q-23 0 -39.5 15.5t-16.5 38.5t16.5 39t39.5 16q22 0 39 -16t17 -39t-17 -38.5t-39 -15.5z" />
    <glyph glyph-name="k" unicode="k" horiz-adv-x="467" 
d="M69 0v710h87v-442l189 202h109l-193 -198l202 -272h-104l-156 219l-47 -47v-172h-87z" />
    <glyph glyph-name="l" unicode="l" horiz-adv-x="230" 
d="M72 0v710h86v-710h-86z" />
    <glyph glyph-name="m" unicode="m" horiz-adv-x="824" 
d="M68 0v470h68l13 -65q33 33 70.5 52.5t91.5 19.5q51 0 82.5 -20.5t47.5 -56.5q35 37 77 57t93 20q72 0 108.5 -40.5t36.5 -112.5v-324h-88v308q0 48 -20 72.5t-66 24.5q-69 0 -127 -61q1 -5 1 -10v-10v-324h-88v308q0 48 -20 72.5t-66 24.5q-68 0 -126 -64v-341h-88z" />
    <glyph glyph-name="n" unicode="n" horiz-adv-x="534" 
d="M68 0v470h69l13 -65q35 35 73 53.5t89 18.5q72 0 113 -40.5t41 -112.5v-324h-88v311q0 43 -22.5 68.5t-68.5 25.5q-69 0 -131 -63v-342h-88z" />
    <glyph glyph-name="o" unicode="o" horiz-adv-x="538" 
d="M499 240q0 -59 -18 -105.5t-49.5 -78.5t-73.5 -48.5t-91 -16.5t-90.5 15.5t-72 46t-48 75t-17.5 102.5q0 59 18 105t49.5 77.5t73.5 48t91 16.5t90.5 -15t72 -45t48 -74.5t17.5 -102.5zM407 235q0 47 -12 80t-31.5 54t-44.5 30.5t-51 9.5t-51 -8t-44 -28t-30.5 -53.5
t-11.5 -84.5q0 -47 12 -80.5t31.5 -54.5t44.5 -31t51 -10t51 8.5t44 29t30.5 54t11.5 84.5z" />
    <glyph glyph-name="p" unicode="p" horiz-adv-x="531" 
d="M64 477h73l13 -61q27 25 61 43t80 18q94 0 148 -60t54 -172q0 -66 -19.5 -114t-52 -79t-73.5 -46t-85 -15q-32 0 -61.5 9t-50.5 24v-254h-87v707zM151 92q23 -17 49 -25t52 -8q27 0 54 9.5t48 31.5t34 57t13 86q0 75 -31.5 118.5t-97.5 43.5q-42 0 -73 -20.5t-48 -41.5
v-251z" />
    <glyph glyph-name="q" unicode="q" horiz-adv-x="536" 
d="M39 235q0 52 14 96.5t41.5 76.5t68 50.5t92.5 18.5q31 0 68 -14.5t62 -40.5l10 48h73v-700h-88v264q-26 -23 -57.5 -33t-71.5 -10q-50 0 -89.5 17.5t-66.5 49t-41.5 77t-14.5 100.5zM128 238q0 -91 37.5 -135t97.5 -44q37 0 67 14.5t50 37.5v239q-18 25 -46.5 42.5
t-63.5 17.5q-28 0 -54 -9.5t-45.5 -30.5t-31 -53.5t-11.5 -78.5z" />
    <glyph glyph-name="r" unicode="r" horiz-adv-x="372" 
d="M66 0v470h66l15 -94q17 45 56 73t90 28q26 0 43 -4t31 -10l-17 -77q-12 6 -26.5 10t-34.5 4q-29 0 -53.5 -10t-43 -30t-29 -49.5t-10.5 -67.5v-243h-87z" />
    <glyph glyph-name="s" unicode="s" horiz-adv-x="407" 
d="M332 382q-33 16 -60 22t-54 6q-48 0 -71 -17.5t-23 -46.5q0 -21 16 -36.5t67 -30.5l30 -9q67 -20 101.5 -51.5t34.5 -85.5q0 -64 -47.5 -103t-132.5 -39q-45 0 -86.5 8t-71.5 22l21 69q29 -14 63 -22.5t69 -8.5q45 0 71.5 16t26.5 53q0 32 -23 45.5t-66 26.5l-31 10
q-65 21 -96.5 52.5t-31.5 81.5q0 30 13 55t35.5 42t53.5 26.5t68 9.5q35 0 72.5 -6.5t71.5 -21.5z" />
    <glyph glyph-name="t" unicode="t" horiz-adv-x="364" 
d="M20 404v66h70v150h87v-150h138v-66h-138v-273q0 -35 17.5 -47t45.5 -12q20 0 44 4.5t42 10.5l14 -67q-20 -8 -51 -14t-65 -6q-70 0 -102 30.5t-32 88.5v285h-70z" />
    <glyph glyph-name="u" unicode="u" horiz-adv-x="539" 
d="M68 158v312h88v-301q0 -30 7.5 -51t20 -33.5t30 -18t36.5 -5.5q40 0 72 17t61 47v345h88v-470h-69l-12 59h-4q-26 -29 -64.5 -48.5t-89.5 -19.5q-73 0 -118.5 41.5t-45.5 125.5z" />
    <glyph glyph-name="v" unicode="v" horiz-adv-x="463" 
d="M13 470h95l106 -323l18 -74h4l17 73l104 324h94l-175 -470h-86z" />
    <glyph glyph-name="w" unicode="w" horiz-adv-x="712" 
d="M11 470h94l80 -296l18 -105h4l22 105l81 296h95l83 -296l21 -105h4l22 105l78 296h90l-143 -470h-100l-80 288l-23 116l-24 -116l-82 -288h-95z" />
    <glyph glyph-name="x" unicode="x" horiz-adv-x="448" 
d="M174 238l-155 232h99l74 -115l36 -60l104 175h96l-154 -232l165 -238h-100l-81 118l-37 61l-34 -60l-78 -119h-98z" />
    <glyph glyph-name="y" unicode="y" horiz-adv-x="461" 
d="M103 470l100 -269l34 -112h2l34 112l91 269h90l-181 -510q-30 -85 -75.5 -133t-108.5 -70l-38 70q48 18 84 52t56 94l9 27l-191 470h94z" />
    <glyph glyph-name="z" unicode="z" horiz-adv-x="411" 
d="M382 419l-249 -353h254v-66h-362v54l249 350h-232v66h340v-51z" />
    <glyph glyph-name="braceleft" unicode="{" horiz-adv-x="279" 
d="M106 332v127q0 51 39 85.5t114 34.5v-57q-40 0 -60 -21.5t-20 -60.5v-111q0 -36 -13.5 -58t-46.5 -33v-2q32 -14 46 -41t14 -72v-112q0 -56 80 -61v-59q-69 2 -111 36t-42 94v117q0 33 -16.5 51.5t-53.5 20.5v53q36 4 53 19.5t17 49.5z" />
    <glyph glyph-name="bar" unicode="|" horiz-adv-x="221" 
d="M148 593v-693h-75v693h75z" />
    <glyph glyph-name="braceright" unicode="}" horiz-adv-x="279" 
d="M20 -109v59q80 5 80 61v112q0 45 14 72t46 41v2q-33 11 -46.5 33t-13.5 58v113q0 38 -20 59t-60 21v61q75 0 114 -36t39 -88v-127q0 -34 17 -49.5t53 -19.5v-53q-37 -2 -53.5 -20.5t-16.5 -51.5v-117q0 -60 -42 -94t-111 -36z" />
    <glyph glyph-name="asciitilde" unicode="~" horiz-adv-x="586" 
d="M48 210q0 75 39 113.5t99 38.5q30 0 58.5 -13t55.5 -29t52.5 -29t49.5 -13q37 0 57 21.5t20 61.5h59q0 -45 -12.5 -74t-32 -46.5t-43.5 -24.5t-47 -7q-30 0 -59 13.5t-56 29.5t-52.5 29.5t-50.5 13.5q-38 0 -58 -25t-20 -60h-59z" />
    <glyph glyph-name="uni00A0" unicode="&#xa0;" horiz-adv-x="280" 
 />
    <glyph glyph-name="exclamdown" unicode="&#xa1;" horiz-adv-x="246" 
d="M63 411q0 29 18 46t43 17t42.5 -17t17.5 -46q0 -26 -17.5 -44t-42.5 -18q-26 0 -43 18t-18 44zM77 -245l10 501h72l12 -501h-94z" />
    <glyph glyph-name="cent" unicode="&#xa2;" horiz-adv-x="371" 
d="M38 245q0 82 44.5 131t119.5 58v77h64v-77q18 -2 37 -6.5t39 -15.5l-18 -56q-20 11 -42 16t-45 5q-60 0 -91 -35t-31 -95q0 -65 32 -99t95 -34q23 0 42.5 4.5t41.5 15.5l17 -56q-17 -8 -35.5 -14t-41.5 -9v-71h-64v72q-35 4 -65 17.5t-52 37t-34.5 57t-12.5 77.5z" />
    <glyph glyph-name="sterling" unicode="&#xa3;" horiz-adv-x="403" 
d="M116 180q0 24 -4 39h-75v55h67q-3 17 -6 38.5t-3 44.5q0 35 12.5 63.5t34.5 48.5t52 31t66 11q31 0 56.5 -7t38.5 -16l-18 -55q-32 17 -77 17q-48 0 -71 -26t-23 -68q0 -25 2.5 -44t6.5 -38h130v-55h-122q3 -19 3 -38q0 -35 -13 -63.5t-45 -51.5l1 -3h232v-63h-310
l-16 50q39 22 60 53.5t21 76.5z" />
    <glyph glyph-name="currency" unicode="&#xa4;" horiz-adv-x="513" 
d="M76 69l-41 41l84 84q-31 46 -31 113q0 34 8 62t22 50l-82 83l41 41l82 -83q41 29 99 29q27 0 51 -8t44 -22l84 84l41 -41l-84 -84q14 -23 22.5 -51t8.5 -60q0 -35 -8 -64t-22 -51l83 -83l-41 -41l-84 83q-20 -13 -44.5 -20t-53.5 -7q-54 0 -96 28zM358 307q0 61 -25 95.5
t-75 34.5q-48 0 -75.5 -32.5t-27.5 -97.5q0 -63 26 -97t74 -34q21 0 39.5 7t33 23t22.5 41t8 60z" />
    <glyph glyph-name="yen" unicode="&#xa5;" horiz-adv-x="458" 
d="M109 504l121 -233l121 233h80l-121 -206h94v-53h-122l-19 -35v-32h141v-53h-141v-125h-73v125h-142v53h142v32l-19 35h-123v53h95l-117 206h83z" />
    <glyph glyph-name="brokenbar" unicode="&#xa6;" horiz-adv-x="235" 
d="M80 380v370h75v-370h-75zM80 -180v368h75v-368h-75z" />
    <glyph glyph-name="section" unicode="&#xa7;" horiz-adv-x="519" 
d="M87 23q33 -16 66.5 -24t75.5 -8q55 0 81.5 21.5t26.5 54.5q0 15 -5 26t-15.5 19.5t-28 16.5t-42.5 17l-61 23q-59 23 -92 56.5t-33 83.5q0 38 18 67.5t45 49.5q-23 29 -23 71q0 30 12 56t35.5 45t57 30t75.5 11q39 0 74.5 -6.5t69.5 -21.5l-20 -63q-33 16 -60 22t-54 6
q-55 0 -81.5 -19.5t-26.5 -52.5q0 -15 5 -26t15.5 -19.5t28 -16.5t42.5 -17l61 -23q59 -23 92 -56.5t33 -83.5q0 -39 -18 -68.5t-45 -49.5q11 -14 17 -31.5t6 -38.5q0 -30 -12 -57t-35.5 -46.5t-57 -31t-75.5 -11.5q-54 0 -96 8.5t-76 23.5zM378 251q0 35 -21.5 52.5
t-56.5 30.5l-61 22q-17 6 -34 13t-32 16q-14 -12 -23 -28t-9 -37q0 -35 21.5 -52.5t56.5 -30.5l61 -22q17 -7 33.5 -14t31.5 -15q14 12 23.5 27.5t9.5 37.5z" />
    <glyph glyph-name="dieresis" unicode="&#xa8;" horiz-adv-x="334" 
d="M34 623q0 19 15 34t35 15t35 -15t15 -34q0 -20 -15 -35.5t-35 -15.5t-35 15.5t-15 35.5zM200 623q0 19 15 34t35 15t35 -15t15 -34q0 -20 -15 -35.5t-35 -15.5t-35 15.5t-15 35.5z" />
    <glyph glyph-name="copyright" unicode="&#xa9;" horiz-adv-x="706" 
d="M379 186q23 0 40 5t34 13l14 -48q-41 -19 -94 -19q-36 0 -68 11t-56 32.5t-38 54.5t-14 77q0 40 13 72.5t36 55.5t55.5 35t71.5 12q22 0 43 -3.5t49 -14.5l-14 -49q-35 19 -71 19q-54 0 -86 -32.5t-32 -92.5q0 -36 10 -60.5t26.5 -39.5t37.5 -21.5t43 -6.5zM355 639
q64 0 121 -20.5t100 -61t68.5 -101t25.5 -141.5q0 -79 -26 -139.5t-70 -101.5t-101.5 -62t-121.5 -21t-121 20.5t-100 61t-68.5 101t-25.5 141.5q0 79 26 139.5t70 101.5t101.5 62t121.5 21zM355 605q-56 0 -107 -18.5t-89 -55.5t-60.5 -91t-22.5 -125q0 -73 22 -127.5
t59.5 -90.5t87.5 -54t106 -18t106.5 18.5t89 55.5t61 91t22.5 125q0 73 -22 127.5t-59.5 90.5t-87.5 54t-106 18z" />
    <glyph glyph-name="ordfeminine" unicode="&#xaa;" horiz-adv-x="333" 
d="M173 456h60v27q0 34 -17.5 46t-46.5 12q-17 0 -39 -5.5t-51 -21.5l-22 42q32 17 57.5 24.5t60.5 7.5q26 0 47 -5.5t36.5 -18.5t24 -34.5t8.5 -53.5v-202h-48l-7 34h-1q-20 -22 -45 -31t-54 -9q-45 0 -74 23.5t-29 65.5q0 49 38.5 74t101.5 25zM93 359q0 -29 17 -38.5
t39 -9.5t44.5 10t39.5 32v64l-49 -2q-51 -2 -71 -17.5t-20 -38.5z" />
    <glyph glyph-name="guillemotleft" unicode="&#xab;" horiz-adv-x="489" 
d="M226 236l148 161h76l-136 -161l136 -160h-76zM194 397h76l-136 -161l136 -160h-76l-148 160z" />
    <glyph glyph-name="logicalnot" unicode="&#xac;" horiz-adv-x="1444" 
 />
    <glyph glyph-name="uni00AD" unicode="&#xad;" horiz-adv-x="280" 
d="M250 333v-79h-220v79h220z" />
    <glyph glyph-name="registered" unicode="&#xae;" horiz-adv-x="532" 
d="M40 460q0 56 16.5 98.5t46.5 71t71.5 42.5t90.5 14q50 0 91.5 -14t71.5 -41.5t47 -68t17 -94.5q0 -57 -16.5 -99.5t-46.5 -71.5t-71 -43.5t-91 -14.5q-49 0 -91 14.5t-72 42t-47 69t-17 95.5zM267 264q39 0 73.5 11.5t61 36t41.5 62.5t15 90q0 50 -15.5 87t-42 61
t-61.5 36t-74 12t-73.5 -11t-61 -34.5t-41.5 -60.5t-15 -90q0 -51 14 -88.5t39.5 -62t61 -37t78.5 -12.5zM284 590q40 0 61.5 -21.5t21.5 -53.5q0 -31 -15.5 -48.5t-35.5 -25.5l65 -103h-49l-57 96h-50v-96h-40v252h99zM267 467q25 0 41.5 10.5t16.5 35.5q0 24 -13.5 33.5
t-38.5 9.5h-48v-89h42z" />
    <glyph glyph-name="macron" unicode="&#xaf;" horiz-adv-x="286" 
d="M256 660v-57h-225v57h225z" />
    <glyph glyph-name="degree" unicode="&#xb0;" horiz-adv-x="391" 
d="M359 467q0 -80 -42.5 -126.5t-120.5 -46.5q-72 0 -116 46.5t-44 126.5q0 39 11.5 70.5t33 54t51.5 35t67 12.5q36 0 65.5 -12.5t50.5 -35t32.5 -54t11.5 -70.5zM292 467q0 54 -21.5 87t-71.5 33q-48 0 -72 -31.5t-24 -88.5q0 -55 22.5 -88t70.5 -33q42 0 69 29t27 92z
" />
    <glyph glyph-name="plusminus" unicode="&#xb1;" horiz-adv-x="469" 
d="M35 371h169v169h61v-169h169v-61h-169v-169h-61v169h-169v61zM65 61h339v-61h-339v61z" />
    <glyph glyph-name="twosuperior" unicode="&#xb2;" horiz-adv-x="316" 
d="M140 800q-23 0 -44.5 -6t-49.5 -23l-31 49q30 20 61 29t66 9q69 0 106.5 -35.5t37.5 -90.5q0 -38 -24.5 -81.5t-91.5 -94.5l-69 -53h185v-58h-259l-11 50l81 69q31 26 53.5 47.5t37 41t21.5 38.5t7 39q0 31 -20.5 50.5t-55.5 19.5z" />
    <glyph glyph-name="threesuperior" unicode="&#xb3;" horiz-adv-x="296" 
d="M21 835q32 14 58 18.5t52 4.5q27 0 51 -8t42 -22.5t28.5 -34.5t10.5 -45q0 -71 -79 -94v-2q42 -8 67.5 -32.5t25.5 -61.5q0 -30 -13 -52t-34 -37t-49 -22t-58 -7q-26 0 -59 5t-54 13l16 54q29 -9 49.5 -11.5t46.5 -2.5q32 0 57 17t25 49q0 23 -20 40.5t-69 17.5h-59v54
h44q47 0 69.5 18.5t22.5 47.5q0 33 -23 46.5t-50 13.5q-19 0 -39 -4t-40 -13z" />
    <glyph glyph-name="acute" unicode="&#xb4;" horiz-adv-x="253" 
d="M94 555h-62l80 165h88z" />
    <glyph glyph-name="mu" unicode="&#xb5;" horiz-adv-x="537" 
d="M68 470h88v-301q0 -30 7.5 -51t20 -33.5t30 -18t36.5 -5.5q40 0 72 17t61 47v345h88v-470h-69l-12 59h-4q-26 -29 -64.5 -48.5t-89.5 -19.5q-21 0 -42.5 4t-40.5 14l7 -82v-87h-88v630z" />
    <glyph glyph-name="paragraph" unicode="&#xb6;" horiz-adv-x="552" 
d="M256 639h216v-819h-61v752h-91v-752h-62v443q-112 0 -167.5 49t-55.5 137q0 48 16 83.5t45.5 59t70 35.5t89.5 12z" />
    <glyph glyph-name="periodcentered" unicode="&#xb7;" horiz-adv-x="183" 
d="M91 317q22 0 36 -14.5t14 -37.5t-14 -37.5t-36 -14.5t-36 14.5t-14 37.5t14 37.5t36 14.5z" />
    <glyph glyph-name="cedilla" unicode="&#xb8;" horiz-adv-x="286" 
d="M128 0h52l-26 -47q45 -3 66.5 -22t21.5 -48q0 -21 -9 -36.5t-24.5 -26t-35.5 -15.5t-42 -5q-23 0 -42.5 3.5t-31.5 8.5l12 42q13 -5 27 -7t28 -2q27 0 42.5 8.5t15.5 27.5q0 20 -20 30.5t-71 10.5z" />
    <glyph glyph-name="onesuperior" unicode="&#xb9;" horiz-adv-x="264" 
d="M146 851h51v-406h-69v332l-90 -41l-16 58z" />
    <glyph glyph-name="ordmasculine" unicode="&#xba;" horiz-adv-x="838" 
 />
    <glyph glyph-name="guillemotright" unicode="&#xbb;" horiz-adv-x="489" 
d="M226 76l136 160l-136 161h76l148 -161l-148 -160h-76zM46 397h76l148 -161l-148 -160h-76l136 160z" />
    <glyph glyph-name="onequarter" unicode="&#xbc;" horiz-adv-x="826" 
d="M436 146l196 260h76v-251h68v-53h-68v-102h-67v102h-205v44zM163 -9l408 648h65l-408 -648h-65zM40 573l124 57h51v-406h-69v332l-90 -41zM510 155h131v129l4 56h-2l-35 -56z" />
    <glyph glyph-name="onehalf" unicode="&#xbd;" horiz-adv-x="844" 
d="M153 -9l408 648h65l-408 -648h-65zM658 355q-23 0 -44.5 -6t-49.5 -23l-31 49q30 20 61 29t66 9q69 0 106.5 -35.5t37.5 -90.5q0 -38 -24.5 -81.5t-91.5 -94.5l-69 -53h185v-58h-259l-11 50l81 69q31 26 53.5 47.5t37 41t21.5 38.5t7 39q0 31 -20.5 50.5t-55.5 19.5z
M164 630h51v-406h-69v332l-90 -41l-16 58z" />
    <glyph glyph-name="threequarters" unicode="&#xbe;" horiz-adv-x="878" 
d="M488 146l196 260h76v-251h68v-53h-68v-102h-67v102h-205v44zM50 236l16 54q29 -9 49.5 -11.5t46.5 -2.5q32 0 57 17t25 49q0 23 -20 40.5t-69 17.5h-59v54h44q48 0 70 18.5t22 47.5q0 33 -23 46.5t-50 13.5q-19 0 -39 -4t-40 -13l-19 50q32 14 58 18.5t52 4.5q27 0 51 -8
t42 -22.5t28.5 -34.5t10.5 -45q0 -72 -79 -94v-2q42 -8 67.5 -32.5t25.5 -61.5q0 -30 -13 -52t-34 -37t-49 -22t-58 -7q-26 0 -59 5t-54 13zM215 -9l408 648h65l-408 -648h-65zM562 155h131v129l4 56h-2l-35 -56z" />
    <glyph glyph-name="questiondown" unicode="&#xbf;" horiz-adv-x="440" 
d="M255 -250q-45 0 -80.5 12.5t-60.5 35t-38 53.5t-13 67q0 25 8.5 49t23 46t32.5 41.5t36 36.5q41 37 64 65t23 63q0 14 -2 25t-7 27l75 14q6 -15 9.5 -32.5t3.5 -34.5q0 -44 -22 -79.5t-65 -77.5q-18 -17 -34 -33.5t-28.5 -33.5t-19.5 -35.5t-7 -39.5q0 -18 5.5 -34.5
t18 -29.5t33 -21t50.5 -8q23 0 48.5 6.5t50.5 24.5l38 -66q-29 -21 -68 -31t-74 -10zM331 411q0 -26 -18 -44t-43 -18t-42.5 18t-17.5 44q0 29 17.5 46t42.5 17t43 -17t18 -46z" />
    <glyph glyph-name="Agrave" unicode="&#xc0;" horiz-adv-x="590" 
d="M256 630h82l251 -630h-96l-69 175h-259l-68 -175h-95zM190 248h207l-42 109q-17 43 -31 83t-28 82h-2q-14 -42 -29 -81t-32 -84zM153 834h103l80 -124h-72z" />
    <glyph glyph-name="Aacute" unicode="&#xc1;" horiz-adv-x="590" 
d="M256 630h82l251 -630h-96l-69 175h-259l-68 -175h-95zM190 248h207l-42 109q-17 43 -31 83t-28 82h-2q-14 -42 -29 -81t-32 -84zM335 834h103l-111 -124h-72z" />
    <glyph glyph-name="Acircumflex" unicode="&#xc2;" horiz-adv-x="590" 
d="M256 630h82l251 -630h-96l-69 175h-259l-68 -175h-95zM190 248h207l-42 109q-17 43 -31 83t-28 82h-2q-14 -42 -29 -81t-32 -84zM261 844h69l125 -134h-80l-80 84l-80 -84h-76z" />
    <glyph glyph-name="Atilde" unicode="&#xc3;" horiz-adv-x="590" 
d="M256 630h82l251 -630h-96l-69 175h-259l-68 -175h-95zM190 248h207l-42 109q-17 43 -31 83t-28 82h-2q-14 -42 -29 -81t-32 -84zM228 820q21 0 37.5 -7t31 -15t28.5 -15t30 -7q20 0 28.5 15t10.5 32h50q0 -21 -5 -40.5t-15.5 -35t-26 -25t-36.5 -9.5t-39.5 6.5t-34.5 15
t-30 15t-26 6.5q-21 0 -29.5 -13t-10.5 -33h-50q0 46 20.5 78t66.5 32z" />
    <glyph glyph-name="Adieresis" unicode="&#xc4;" horiz-adv-x="590" 
d="M256 630h82l251 -630h-96l-69 175h-259l-68 -175h-95zM397 248l-42 109q-17 43 -31 83t-28 82h-2q-14 -42 -29 -81t-32 -84l-43 -109h207zM328 761q0 19 15 34t35 15t35 -15t15 -34q0 -20 -15 -35.5t-35 -15.5t-35 15.5t-15 35.5zM212 810q20 0 35 -15t15 -34
q0 -20 -15 -35.5t-35 -15.5t-35 15.5t-15 35.5q0 19 15 34t35 15z" />
    <glyph glyph-name="Aring" unicode="&#xc5;" horiz-adv-x="590" 
d="M2 0l254 630h82l251 -630h-96l-69 175h-259l-68 -175h-95zM296 843q42 0 69.5 -19t27.5 -64q0 -22 -8 -38t-21.5 -26t-31 -14.5t-36.5 -4.5q-39 0 -68 20.5t-29 62.5q0 44 28 63.5t69 19.5zM397 248l-42 109q-17 43 -31 83t-28 82h-2q-14 -42 -29 -81t-32 -84l-43 -109
h207zM296 710q23 0 35.5 13.5t12.5 36.5t-12.5 36.5t-35.5 13.5t-35.5 -13.5t-12.5 -36.5t12.5 -36.5t35.5 -13.5z" />
    <glyph glyph-name="AE" unicode="&#xc6;" horiz-adv-x="789" 
d="M326 630h416v-76h-268v-189h242v-75h-242v-214h271v-76h-359v175h-190l-85 -175h-109zM227 245h159v316z" />
    <glyph glyph-name="Ccedilla" unicode="&#xc7;" horiz-adv-x="559" 
d="M355 67q50 0 82.5 8t64.5 23l21 -74q-35 -16 -74 -24t-96 -9l-17 -38q28 -1 47 -8t30 -18.5t16 -25t5 -28.5q0 -42 -34.5 -64.5t-86.5 -22.5q-23 0 -42.5 3.5t-31.5 8.5l12 42q13 -5 27 -7t28 -2q68 0 68 40q0 10 -3.5 19.5t-14.5 16.5t-30.5 11t-52.5 4l34 71
q-56 6 -103.5 30t-83 64.5t-55.5 97.5t-20 130q0 77 23 137.5t63.5 102t96.5 63t122 21.5q62 0 102 -10t74 -27l-22 -72q-19 8 -35.5 14.5t-33 10.5t-34 6t-39.5 2q-44 0 -83.5 -13.5t-69 -43.5t-47 -77.5t-17.5 -114.5q0 -68 17 -115t45.5 -76t66.5 -42.5t81 -13.5z" />
    <glyph glyph-name="Egrave" unicode="&#xc8;" horiz-adv-x="507" 
d="M460 630v-76h-288v-189h262v-75h-262v-214h291v-76h-383v630h380zM170 834h103l80 -124h-72z" />
    <glyph glyph-name="Eacute" unicode="&#xc9;" 
d="M80 630h380v-76h-288v-189h262v-75h-262v-214h291v-76h-383v630zM282 834h103l-111 -124h-72z" />
    <glyph glyph-name="Ecircumflex" unicode="&#xca;" 
d="M80 630h380v-76h-288v-189h262v-75h-262v-214h291v-76h-383v630zM228 844h69l125 -134h-80l-80 84l-80 -84h-76z" />
    <glyph glyph-name="Edieresis" unicode="&#xcb;" 
d="M80 0v630h380v-76h-288v-189h262v-75h-262v-214h291v-76h-383zM305 761q0 19 15 34t35 15t35 -15t15 -34q0 -20 -15 -35.5t-35 -15.5t-35 15.5t-15 35.5zM189 810q20 0 35 -15t15 -34q0 -20 -15 -35.5t-35 -15.5t-35 15.5t-15 35.5q0 19 15 34t35 15z" />
    <glyph glyph-name="Igrave" unicode="&#xcc;" horiz-adv-x="252" 
d="M172 630v-630h-92v630h92zM-21 834h103l80 -124h-72z" />
    <glyph glyph-name="Iacute" unicode="&#xcd;" horiz-adv-x="252" 
d="M172 630v-630h-92v630h92zM161 710h-72l80 124h103z" />
    <glyph glyph-name="Icircumflex" unicode="&#xce;" horiz-adv-x="252" 
d="M172 630v-630h-92v630h92zM-31 710l122 134h69l125 -134h-80l-80 84l-80 -84h-76z" />
    <glyph glyph-name="Idieresis" unicode="&#xcf;" horiz-adv-x="252" 
d="M172 630v-630h-92v630h92zM-9 761q0 19 15 34t35 15t35 -15t15 -34q0 -20 -15 -35.5t-35 -15.5t-35 15.5t-15 35.5zM157 761q0 19 15 34t35 15t35 -15t15 -34q0 -20 -15 -35.5t-35 -15.5t-35 15.5t-15 35.5z" />
    <glyph glyph-name="Eth" unicode="&#xd0;" horiz-adv-x="672" 
d="M110 360v270h205q67 0 124 -19t98.5 -56.5t65 -94t23.5 -131.5q0 -91 -28 -154t-75.5 -102t-110 -56t-132.5 -17h-170v298h-80v62h80zM202 76h69q48 0 94 10.5t81.5 39t57.5 77.5t22 126q0 108 -62 166.5t-167 58.5h-95v-194h128v-62h-128v-222z" />
    <glyph glyph-name="Ntilde" unicode="&#xd1;" horiz-adv-x="662" 
d="M80 0v630h140l211 -414l60 -130h3l-1 150v394h90v-630h-140l-204 396l-67 153h-3l1 -173v-376h-90zM198 710q0 46 20.5 78t66.5 32q21 0 37.5 -7t31 -15t28.5 -15t30 -7q20 0 28.5 15t10.5 32h50q0 -21 -5 -40.5t-15.5 -35t-26 -25t-36.5 -9.5t-39.5 6.5t-34.5 15t-30 15
t-26 6.5q-21 0 -29.5 -13t-10.5 -33h-50z" />
    <glyph glyph-name="Ograve" unicode="&#xd2;" horiz-adv-x="686" 
d="M345 639q64 0 118 -20.5t93.5 -61t61.5 -101t22 -141.5q0 -79 -23 -139.5t-63 -101.5t-94.5 -62t-118.5 -21t-118 20.5t-93.5 61t-61.5 101t-22 141.5q0 79 23 139.5t63 101.5t94.5 62t118.5 21zM146 315q0 -64 15.5 -111t42.5 -78t63.5 -46t77.5 -15t76.5 15t62 46
t41.5 78t15 111q0 66 -15.5 113t-42.5 77.5t-63.5 45t-77.5 14.5t-77 -15t-62 -46t-41 -78t-15 -111zM230 834h103l80 -124h-72z" />
    <glyph glyph-name="Oacute" unicode="&#xd3;" horiz-adv-x="686" 
d="M345 639q64 0 118 -20.5t93.5 -61t61.5 -101t22 -141.5q0 -79 -23 -139.5t-63 -101.5t-94.5 -62t-118.5 -21t-118 20.5t-93.5 61t-61.5 101t-22 141.5q0 79 23 139.5t63 101.5t94.5 62t118.5 21zM146 315q0 -64 15.5 -111t42.5 -78t63.5 -46t77.5 -15t76.5 15t62 46
t41.5 78t15 111q0 66 -15.5 113t-42.5 77.5t-63.5 45t-77.5 14.5t-77 -15t-62 -46t-41 -78t-15 -111zM334 710h-72l80 124h103z" />
    <glyph glyph-name="Ocircumflex" unicode="&#xd4;" horiz-adv-x="686" 
d="M345 639q64 0 118 -20.5t93.5 -61t61.5 -101t22 -141.5q0 -79 -23 -139.5t-63 -101.5t-94.5 -62t-118.5 -21t-118 20.5t-93.5 61t-61.5 101t-22 141.5q0 79 23 139.5t63 101.5t94.5 62t118.5 21zM345 65q41 0 76.5 15t62 46t41.5 78t15 111q0 66 -15.5 113t-42.5 77.5
t-63.5 45t-77.5 14.5t-76.5 -15t-62 -46t-41.5 -78t-15 -111t15.5 -111t42.5 -78t63.5 -46t77.5 -15zM309 844h69l125 -134h-80l-80 84l-80 -84h-76z" />
    <glyph glyph-name="Otilde" unicode="&#xd5;" horiz-adv-x="686" 
d="M345 639q64 0 118 -20.5t93.5 -61t61.5 -101t22 -141.5q0 -79 -23 -139.5t-63 -101.5t-94.5 -62t-118.5 -21t-118 20.5t-93.5 61t-61.5 101t-22 141.5q0 79 23 139.5t63 101.5t94.5 62t118.5 21zM146 315q0 -64 15.5 -111t42.5 -78t63.5 -46t77.5 -15t76.5 15t62 46
t41.5 78t15 111q0 66 -15.5 113t-42.5 77.5t-63.5 45t-77.5 14.5t-77 -15t-62 -46t-41 -78t-15 -111zM187 711q0 46 20.5 78t66.5 32q21 0 37.5 -7t31 -15t28.5 -15t30 -7q20 0 28.5 15t10.5 32h50q0 -21 -5 -40.5t-15.5 -35t-26 -25t-36.5 -9.5t-39.5 6.5t-34.5 15t-30 15
t-26 6.5q-21 0 -29.5 -13t-10.5 -33h-50z" />
    <glyph glyph-name="Odieresis" unicode="&#xd6;" horiz-adv-x="686" 
d="M345 639q64 0 118 -20.5t93.5 -61t61.5 -101t22 -141.5q0 -79 -23 -139.5t-63 -101.5t-94.5 -62t-118.5 -21t-118 20.5t-93.5 61t-61.5 101t-22 141.5q0 79 23 139.5t63 101.5t94.5 62t118.5 21zM146 315q0 -64 15.5 -111t42.5 -78t63.5 -46t77.5 -15t76.5 15t62 46
t41.5 78t15 111q0 66 -15.5 113t-42.5 77.5t-63.5 45t-77.5 14.5t-77 -15t-62 -46t-41 -78t-15 -111zM209 761q0 19 15 34t35 15t35 -15t15 -34q0 -20 -15 -35.5t-35 -15.5t-35 15.5t-15 35.5zM375 761q0 19 15 34t35 15t35 -15t15 -34q0 -20 -15 -35.5t-35 -15.5t-35 15.5
t-15 35.5z" />
    <glyph glyph-name="multiply" unicode="&#xd7;" horiz-adv-x="400" 
d="M159 303l-121 121l41 41l121 -121l121 121l41 -41l-121 -121l121 -121l-41 -41l-121 121l-121 -121l-41 41z" />
    <glyph glyph-name="Oslash" unicode="&#xd8;" horiz-adv-x="686" 
d="M500 748l40 -14l-50 -127q68 -36 109 -108t41 -184q0 -79 -23 -139.5t-63 -101.5t-94.5 -62t-118.5 -21q-26 0 -52 4t-49 10l-62 -157l-40 17l61 156q-69 37 -111 108.5t-42 185.5q0 79 23 139.5t63 101.5t94.5 62t118.5 21q26 0 53.5 -4t51.5 -13zM146 315
q0 -81 24 -134.5t65 -82.5l181 453q-36 14 -75 14q-41 0 -77 -15t-62 -46t-41 -78t-15 -111zM345 65q41 0 76.5 15t62 46t41.5 78t15 111q0 81 -23.5 134t-62.5 82l-180 -454q33 -12 71 -12z" />
    <glyph glyph-name="Ugrave" unicode="&#xd9;" horiz-adv-x="640" 
d="M72 249v381h92v-377q0 -101 37 -144t119 -43q81 0 118.5 48t37.5 127v389h92v-386q0 -129 -66 -191t-182 -62q-117 0 -182.5 61.5t-65.5 196.5zM190 834h103l80 -124h-72z" />
    <glyph glyph-name="Uacute" unicode="&#xda;" horiz-adv-x="640" 
d="M72 249v381h92v-377q0 -101 37 -144t119 -43q81 0 118.5 48t37.5 127v389h92v-386q0 -129 -66 -191t-182 -62q-117 0 -182.5 61.5t-65.5 196.5zM332 834h103l-111 -124h-72z" />
    <glyph glyph-name="Ucircumflex" unicode="&#xdb;" horiz-adv-x="640" 
d="M72 249v381h92v-377q0 -101 37 -144t119 -43q81 0 118.5 48t37.5 127v389h92v-386q0 -129 -66 -191t-182 -62q-117 0 -182.5 61.5t-65.5 196.5zM286 844h69l125 -134h-80l-80 84l-80 -84h-76z" />
    <glyph glyph-name="Udieresis" unicode="&#xdc;" horiz-adv-x="640" 
d="M164 630v-377q0 -101 37 -144t119 -43q81 0 118.5 48t37.5 127v389h92v-386q0 -129 -66 -191t-182 -62q-117 0 -182.5 61.5t-65.5 196.5v381h92zM353 761q0 19 15 34t35 15t35 -15t15 -34q0 -20 -15 -35.5t-35 -15.5t-35 15.5t-15 35.5zM237 810q20 0 35 -15t15 -34
q0 -20 -15 -35.5t-35 -15.5t-35 15.5t-15 35.5q0 19 15 34t35 15z" />
    <glyph glyph-name="Yacute" unicode="&#xdd;" horiz-adv-x="508" 
d="M99 630l157 -282l158 282h97l-213 -366v-264h-92v264l-208 366h101zM222 710l80 124h103l-111 -124h-72z" />
    <glyph glyph-name="Thorn" unicode="&#xde;" horiz-adv-x="515" 
d="M158 630v-133q20 6 42.5 9.5t47.5 3.5q47 0 87 -13t70 -37.5t47 -59.5t17 -79q0 -53 -18 -92.5t-50.5 -65.5t-76.5 -39t-95 -13q-14 0 -34.5 1.5t-36.5 3.5v-116h-86v630h86zM158 189q17 -5 33.5 -6.5t39.5 -1.5q67 0 107.5 34t40.5 97q0 33 -11 57t-30.5 40t-44.5 24
t-54 8q-23 0 -45 -3t-36 -8v-241z" />
    <glyph glyph-name="germandbls" unicode="&#xdf;" horiz-adv-x="571" 
d="M74 0v480q0 52 13 96.5t40.5 76t71 49.5t103.5 18q35 0 68.5 -10.5t59.5 -30.5t42 -51t16 -71q0 -25 -6 -48t-14 -39q-53 -12 -75.5 -32.5t-22.5 -54.5q0 -31 18.5 -51t42.5 -37q39 -28 67 -63t28 -89q0 -67 -47 -109.5t-133 -42.5q-28 0 -61.5 5.5t-52.5 15.5l20 65
q42 -18 88 -18q48 0 73 23.5t25 58.5q0 30 -19 50.5t-53 46.5q-19 15 -34 29.5t-26 31.5t-17 36.5t-6 44.5q0 45 29 78.5t86 51.5q4 9 5 19.5t1 25.5q0 49 -30 72t-75 23q-32 0 -57.5 -9.5t-43.5 -31t-28 -57t-10 -86.5v-466h-86z" />
    <glyph glyph-name="agrave" unicode="&#xe0;" horiz-adv-x="489" 
d="M73 428q24 12 45 21.5t42 15.5t43 9t48 3q39 0 71.5 -8.5t56 -28.5t36.5 -52.5t13 -81.5v-306h-73l-11 52h-2q-31 -33 -68 -47t-82 -14q-34 0 -62.5 9.5t-49.5 27t-32.5 42.5t-11.5 56q0 74 58.5 112.5t154.5 38.5h90v40q0 51 -26 69.5t-70 18.5q-26 0 -59.5 -8.5
t-76.5 -32.5zM340 217l-74 -2q-75 -2 -106.5 -26.5t-31.5 -59.5q0 -21 7 -35.5t18.5 -22.5t27 -11.5t32.5 -3.5q33 0 67 15.5t60 49.5v96zM130 690h103l70 -134h-72z" />
    <glyph glyph-name="aacute" unicode="&#xe1;" horiz-adv-x="489" 
d="M73 428q24 12 45 21.5t42 15.5t43 9t48 3q39 0 71.5 -8.5t56 -28.5t36.5 -52.5t13 -81.5v-306h-73l-11 52h-2q-31 -33 -68 -47t-82 -14q-34 0 -62.5 9.5t-49.5 27t-32.5 42.5t-11.5 56q0 74 58.5 112.5t154.5 38.5h90v40q0 51 -26 69.5t-70 18.5q-26 0 -59.5 -8.5
t-76.5 -32.5zM340 217l-74 -2q-75 -2 -106.5 -26.5t-31.5 -59.5q0 -21 7 -35.5t18.5 -22.5t27 -11.5t32.5 -3.5q33 0 67 15.5t60 49.5v96zM271 556h-72l70 134h103z" />
    <glyph glyph-name="acircumflex" unicode="&#xe2;" horiz-adv-x="489" 
d="M36 126q0 74 58.5 112.5t154.5 38.5h90v40q0 51 -25.5 69.5t-70.5 18.5q-26 0 -59.5 -8.5t-76.5 -32.5l-34 64q24 12 45 21t42 15.5t43 9.5t48 3q39 0 71.5 -8.5t56 -28.5t36.5 -52.5t13 -81.5v-306h-73l-11 52h-2q-31 -33 -68 -47t-82 -14q-69 0 -112.5 36t-43.5 99z
M213 56q33 0 67 15.5t60 49.5v96l-74 -2q-75 -2 -106.5 -26.5t-31.5 -59.5q0 -21 7 -35.5t18.5 -22.5t27 -11.5t32.5 -3.5zM102 556l115 134h69l112 -134h-76l-70 84l-70 -84h-80z" />
    <glyph glyph-name="atilde" unicode="&#xe3;" horiz-adv-x="489" 
d="M73 428q24 12 45 21.5t42 15.5t43 9t48 3q39 0 71.5 -8.5t56 -28.5t36.5 -52.5t13 -81.5v-306h-73l-11 52h-2q-31 -33 -68 -47t-82 -14q-34 0 -62.5 9.5t-49.5 27t-32.5 42.5t-11.5 56q0 74 58.5 112.5t154.5 38.5h90v40q0 51 -26 69.5t-70 18.5q-26 0 -59.5 -8.5
t-76.5 -32.5zM340 217l-74 -2q-75 -2 -106.5 -26.5t-31.5 -59.5q0 -21 7 -35.5t18.5 -22.5t27 -11.5t32.5 -3.5q33 0 67 15.5t60 49.5v96zM98 556q0 46 20.5 78t66.5 32q21 0 37.5 -7t31 -15t28.5 -15t30 -7q20 0 28.5 15t10.5 32h50q0 -21 -5 -40.5t-15.5 -35t-26 -25
t-36.5 -9.5t-39.5 6.5t-34.5 15t-30 15t-26 6.5q-21 0 -29.5 -13t-10.5 -33h-50z" />
    <glyph glyph-name="adieresis" unicode="&#xe4;" horiz-adv-x="489" 
d="M73 428q24 12 45 21.5t42 15.5t43 9t48 3q39 0 71.5 -8.5t56 -28.5t36.5 -52.5t13 -81.5v-306h-73l-11 52h-2q-31 -33 -68 -47t-82 -14q-34 0 -62.5 9.5t-49.5 27t-32.5 42.5t-11.5 56q0 74 58.5 112.5t154.5 38.5h90v40q0 51 -26 69.5t-70 18.5q-26 0 -59.5 -8.5
t-76.5 -32.5zM340 217l-74 -2q-75 -2 -106.5 -26.5t-31.5 -59.5q0 -21 7 -35.5t18.5 -22.5t27 -11.5t32.5 -3.5q33 0 67 15.5t60 49.5v96zM124 623q0 19 15 34t35 15t35 -15t15 -34q0 -20 -15 -35.5t-35 -15.5t-35 15.5t-15 35.5zM290 623q0 19 15 34t35 15t35 -15t15 -34
q0 -20 -15 -35.5t-35 -15.5t-35 15.5t-15 35.5z" />
    <glyph glyph-name="aring" unicode="&#xe5;" horiz-adv-x="489" 
d="M73 428q24 12 45 21.5t42 15.5t43 9t48 3q39 0 71.5 -8.5t56 -28.5t36.5 -52.5t13 -81.5v-306h-73l-11 52h-2q-31 -33 -68 -47t-82 -14q-34 0 -62.5 9.5t-49.5 27t-32.5 42.5t-11.5 56q0 74 58.5 112.5t154.5 38.5h90v40q0 51 -26 69.5t-70 18.5q-26 0 -59.5 -8.5
t-76.5 -32.5zM340 217l-74 -2q-75 -2 -106.5 -26.5t-31.5 -59.5q0 -21 7 -35.5t18.5 -22.5t27 -11.5t32.5 -3.5q33 0 67 15.5t60 49.5v96zM160 623q0 42 28 62.5t65 20.5q38 0 65.5 -20.5t27.5 -62.5q0 -21 -8 -36.5t-21 -26t-29.5 -15.5t-34.5 -5q-36 0 -64.5 21.5
t-28.5 61.5zM205 623q0 -23 12.5 -36.5t35.5 -13.5t35.5 13.5t12.5 36.5t-12.5 36.5t-35.5 13.5t-35.5 -13.5t-12.5 -36.5z" />
    <glyph glyph-name="ae" unicode="&#xe6;" horiz-adv-x="785" 
d="M749 220h-327v-4q0 -78 40 -117.5t113 -39.5q38 0 67.5 6t64.5 20l18 -65q-29 -13 -68.5 -21t-84.5 -8q-63 0 -112 20t-79 66h-2q-32 -42 -75 -64t-109 -22q-34 0 -63 9.5t-50.5 27t-33.5 42.5t-12 56q0 74 58.5 112.5t154.5 38.5h93v40q0 51 -27.5 69.5t-71.5 18.5
q-26 0 -59.5 -8.5t-76.5 -32.5l-34 64q24 12 45 21.5t42 15.5t43 9t48 3q54 0 88.5 -15t57.5 -53h2q32 38 71.5 53t85.5 15t81.5 -15t60.5 -42.5t38 -66.5t13 -87v-46zM128 129q0 -21 7 -35.5t18.5 -22.5t27 -11.5t32.5 -3.5q42 0 78.5 18t62.5 58q-6 19 -9.5 39.5
t-4.5 45.5l-74 -2q-75 -2 -106.5 -26.5t-31.5 -59.5zM658 280q0 26 -5.5 50t-18.5 42.5t-33 29.5t-50 11q-55 0 -89 -36t-39 -98z" />
    <glyph glyph-name="ccedilla" unicode="&#xe7;" horiz-adv-x="442" 
d="M291 59q32 0 56 7t47 18l19 -66q-54 -27 -129 -27l-20 -38q45 -3 66.5 -22t21.5 -48q0 -21 -9 -36.5t-24.5 -26t-35.5 -15.5t-42 -5q-23 0 -42.5 3.5t-31.5 8.5l12 42q13 -5 27 -7t28 -2q27 0 42.5 8.5t15.5 27.5q0 20 -20 30.5t-71 10.5l35 73q-42 6 -78.5 24t-62.5 48
t-41 71.5t-15 95.5q0 56 18 101t50 76.5t77 48.5t99 17q31 0 60.5 -4.5t67.5 -21.5l-20 -67q-46 26 -99 26q-73 0 -118 -45.5t-45 -127.5q0 -51 14 -85t37 -54.5t52 -29.5t59 -9z" />
    <glyph glyph-name="egrave" unicode="&#xe8;" horiz-adv-x="504" 
d="M468 225h-337v-4q0 -78 42.5 -120t115.5 -42q38 0 67.5 6t64.5 20l18 -65q-29 -13 -68.5 -21t-84.5 -8q-51 0 -95.5 14t-78.5 43.5t-53.5 75.5t-19.5 110q0 55 16.5 100t46.5 76.5t72.5 49t95.5 17.5q45 0 81.5 -15t62.5 -42t40 -65t14 -84v-46zM377 288q0 26 -6.5 48.5
t-20 39.5t-34.5 27t-51 10q-55 0 -89.5 -35t-42.5 -92zM249 690l70 -134h-72l-101 134h103z" />
    <glyph glyph-name="eacute" unicode="&#xe9;" horiz-adv-x="504" 
d="M468 225h-337v-4q0 -78 42.5 -120t115.5 -42q38 0 67.5 6t64.5 20l18 -65q-29 -13 -68.5 -21t-84.5 -8q-51 0 -95.5 14t-78.5 43.5t-53.5 75.5t-19.5 110q0 55 16.5 100t46.5 76.5t72.5 49t95.5 17.5q45 0 81.5 -15t62.5 -42t40 -65t14 -84v-46zM377 288q0 26 -6.5 48.5
t-20 39.5t-34.5 27t-51 10q-55 0 -89.5 -35t-42.5 -92zM385 690l-101 -134h-72l70 134h103z" />
    <glyph glyph-name="ecircumflex" unicode="&#xea;" horiz-adv-x="504" 
d="M39 234q0 55 16.5 100t46.5 76.5t73 49t95 17.5q45 0 81.5 -15t62.5 -42t40 -65t14 -84v-46h-337v-4q0 -78 42.5 -120t115.5 -42q38 0 67.5 6t64.5 20l18 -65q-29 -13 -68.5 -21t-84.5 -8q-51 0 -95.5 14t-78.5 43.5t-53.5 75.5t-19.5 110zM377 288q0 26 -6.5 48.5
t-20 39.5t-34.5 27t-51 10q-55 0 -89.5 -35t-42.5 -92zM230 690h69l112 -134h-76l-70 84l-70 -84h-80z" />
    <glyph glyph-name="edieresis" unicode="&#xeb;" horiz-adv-x="504" 
d="M468 225h-337v-4q0 -78 42.5 -120t115.5 -42q38 0 67.5 6t64.5 20l18 -65q-29 -13 -68.5 -21t-84.5 -8q-51 0 -95.5 14t-78.5 43.5t-53.5 75.5t-19.5 110q0 55 16.5 100t46.5 76.5t72.5 49t95.5 17.5q45 0 81.5 -15t62.5 -42t40 -65t14 -84v-46zM377 288q0 26 -6.5 48.5
t-20 39.5t-34.5 27t-51 10q-55 0 -89.5 -35t-42.5 -92zM134 623q0 19 15 34t35 15t35 -15t15 -34q0 -20 -15 -35.5t-35 -15.5t-35 15.5t-15 35.5zM300 623q0 19 15 34t35 15t35 -15t15 -34q0 -20 -15 -35.5t-35 -15.5t-35 15.5t-15 35.5z" />
    <glyph glyph-name="igrave" unicode="&#xec;" horiz-adv-x="248" 
d="M80 0v470h88v-470h-88zM-5 690h103l70 -134h-72z" />
    <glyph glyph-name="iacute" unicode="&#xed;" horiz-adv-x="248" 
d="M80 0v470h88v-470h-88zM152 556h-72l70 134h103z" />
    <glyph glyph-name="icircumflex" unicode="&#xee;" horiz-adv-x="248" 
d="M168 470v-470h-88v470h88zM89 690h69l111 -134h-76l-69 84l-70 -84h-80z" />
    <glyph glyph-name="idieresis" unicode="&#xef;" horiz-adv-x="248" 
d="M80 0v470h88v-470h-88zM-14 623q0 19 15 34t35 15t35 -15t15 -34q0 -20 -15 -35.5t-35 -15.5t-35 15.5t-15 35.5zM152 623q0 19 15 34t35 15t35 -15t15 -34q0 -20 -15 -35.5t-35 -15.5t-35 15.5t-15 35.5z" />
    <glyph glyph-name="eth" unicode="&#xf0;" horiz-adv-x="528" 
d="M248 457q37 0 72.5 -15.5t58.5 -43.5h3q-14 54 -46 102t-72 77l-110 -55l-23 39l93 46q-23 14 -46 23.5t-52 17.5l33 57q37 -9 74.5 -28.5t70.5 -43.5l92 47l23 -39l-78 -39q25 -27 50 -61t44 -77t31 -95.5t12 -116.5q0 -57 -14 -105t-42 -82.5t-69 -54t-95 -19.5
q-38 0 -76.5 13.5t-70 41.5t-51.5 72t-20 106q0 55 16 98.5t44.5 73.5t66 45.5t81.5 15.5zM260 390q-23 0 -46.5 -8t-42.5 -27t-30.5 -50.5t-11.5 -77.5q0 -48 12 -80t31 -51.5t43 -28t48 -8.5q28 0 52 12.5t41 35t27 53.5t10 68q0 39 -11 69t-29.5 50.5t-42.5 31.5t-50 11z
" />
    <glyph glyph-name="ntilde" unicode="&#xf1;" horiz-adv-x="532" 
d="M66 470h69l13 -65q35 35 73 53.5t89 18.5q72 0 113 -40.5t41 -112.5v-324h-88v311q0 43 -22.5 68.5t-68.5 25.5q-69 0 -131 -63v-342h-88v470zM113 556q0 46 20.5 78t66.5 32q21 0 37.5 -7t31 -15t28.5 -15t30 -7q20 0 28.5 15t10.5 32h50q0 -21 -5 -40.5t-15.5 -35
t-26 -25t-36.5 -9.5t-39.5 6.5t-34.5 15t-30 15t-26 6.5q-21 0 -29.5 -13t-10.5 -33h-50z" />
    <glyph glyph-name="ograve" unicode="&#xf2;" horiz-adv-x="538" 
d="M499 240q0 -59 -18 -105.5t-49.5 -78.5t-73.5 -48.5t-91 -16.5t-90.5 15.5t-72 46t-48 75t-17.5 102.5q0 59 18 105t49.5 77.5t73.5 48t91 16.5t90.5 -15t72 -45t48 -74.5t17.5 -102.5zM407 235q0 47 -12 80t-31.5 54t-44.5 30.5t-51 9.5t-51 -8t-44 -28t-30.5 -53.5
t-11.5 -84.5q0 -47 12 -80.5t31.5 -54.5t44.5 -31t51 -10t51 8.5t44 29t30.5 54t11.5 84.5zM158 690h103l70 -134h-72z" />
    <glyph glyph-name="oacute" unicode="&#xf3;" horiz-adv-x="538" 
d="M499 240q0 -59 -18 -105.5t-49.5 -78.5t-73.5 -48.5t-91 -16.5t-90.5 15.5t-72 46t-48 75t-17.5 102.5q0 59 18 105t49.5 77.5t73.5 48t91 16.5t90.5 -15t72 -45t48 -74.5t17.5 -102.5zM407 235q0 47 -12 80t-31.5 54t-44.5 30.5t-51 9.5t-51 -8t-44 -28t-30.5 -53.5
t-11.5 -84.5q0 -47 12 -80.5t31.5 -54.5t44.5 -31t51 -10t51 8.5t44 29t30.5 54t11.5 84.5zM287 556h-72l70 134h103z" />
    <glyph glyph-name="ocircumflex" unicode="&#xf4;" horiz-adv-x="538" 
d="M271 477q49 0 90.5 -15t72 -45t48 -74t17.5 -103t-18 -105.5t-49.5 -78.5t-73.5 -48.5t-91 -16.5t-90.5 15.5t-72 46t-48 75t-17.5 102.5q0 59 18 105t49.5 77.5t73.5 48t91 16.5zM131 235q0 -47 12 -80.5t31.5 -54.5t44.5 -31t51 -10t51 8.5t44 29t30.5 54t11.5 84.5
q0 47 -12 80t-31.5 54t-44.5 30.5t-51 9.5t-51 -8t-44 -28t-30.5 -53.5t-11.5 -84.5zM233 690h69l112 -134h-76l-70 84l-70 -84h-80z" />
    <glyph glyph-name="otilde" unicode="&#xf5;" horiz-adv-x="538" 
d="M499 240q0 -59 -18 -105.5t-49.5 -78.5t-73.5 -48.5t-91 -16.5t-90.5 15.5t-72 46t-48 75t-17.5 102.5q0 59 18 105t49.5 77.5t73.5 48t91 16.5t90.5 -15t72 -45t48 -74.5t17.5 -102.5zM407 235q0 47 -12 80t-31.5 54t-44.5 30.5t-51 9.5t-51 -8t-44 -28t-30.5 -53.5
t-11.5 -84.5q0 -47 12 -80.5t31.5 -54.5t44.5 -31t51 -10t51 8.5t44 29t30.5 54t11.5 84.5zM117 556q0 46 20.5 78t66.5 32q21 0 37.5 -7t31 -15t28.5 -15t30 -7q20 0 28.5 15t10.5 32h50q0 -21 -5 -40.5t-15.5 -35t-26 -25t-36.5 -9.5t-39.5 6.5t-34.5 15t-30 15t-26 6.5
q-21 0 -29.5 -13t-10.5 -33h-50z" />
    <glyph glyph-name="odieresis" unicode="&#xf6;" horiz-adv-x="538" 
d="M499 240q0 -59 -18 -105.5t-49.5 -78.5t-73.5 -48.5t-91 -16.5t-90.5 15.5t-72 46t-48 75t-17.5 102.5q0 59 18 105t49.5 77.5t73.5 48t91 16.5t90.5 -15t72 -45t48 -74.5t17.5 -102.5zM407 235q0 47 -12 80t-31.5 54t-44.5 30.5t-51 9.5t-51 -8t-44 -28t-30.5 -53.5
t-11.5 -84.5q0 -47 12 -80.5t31.5 -54.5t44.5 -31t51 -10t51 8.5t44 29t30.5 54t11.5 84.5zM131 623q0 19 15 34t35 15t35 -15t15 -34q0 -20 -15 -35.5t-35 -15.5t-35 15.5t-15 35.5zM297 623q0 19 15 34t35 15t35 -15t15 -34q0 -20 -15 -35.5t-35 -15.5t-35 15.5t-15 35.5z
" />
    <glyph glyph-name="divide" unicode="&#xf7;" horiz-adv-x="533" 
d="M203 92q0 24 18.5 42.5t43.5 18.5t43 -18.5t18 -42.5q0 -26 -18 -44t-43 -18t-43.5 18t-18.5 44zM203 416q0 24 18.5 42.5t43.5 18.5t43 -18.5t18 -42.5q0 -26 -18 -44t-43 -18t-43.5 18t-18.5 44zM493 284v-61h-453v61h453z" />
    <glyph glyph-name="oslash" unicode="&#xf8;" horiz-adv-x="538" 
d="M358 568l42 -10l-31 -99q57 -26 93.5 -79t36.5 -140q0 -59 -18 -105.5t-49.5 -78.5t-73.5 -48.5t-91 -16.5q-14 0 -27.5 1.5t-25.5 3.5l-27 -87l-41 11l28 88q-61 26 -98 80t-37 142q0 59 18 105t49.5 77.5t73.5 48t91 16.5q28 0 57 -6zM268 409q-26 0 -51 -8t-44 -28
t-30.5 -53.5t-11.5 -84.5q0 -62 19.5 -100t49.5 -57l102 327q-8 2 -17 3t-17 1zM407 235q0 60 -18.5 96.5t-47.5 55.5l-101 -325q15 -3 30 -3q26 0 51 8.5t44 29t30.5 54t11.5 84.5z" />
    <glyph glyph-name="ugrave" unicode="&#xf9;" horiz-adv-x="539" 
d="M68 470h88v-301q0 -30 7.5 -51t20 -33.5t30 -18t36.5 -5.5q40 0 72 17t61 47v345h88v-470h-69l-12 59h-4q-26 -29 -64.5 -48.5t-89.5 -19.5q-73 0 -118.5 41.5t-45.5 125.5v312zM249 690l70 -134h-72l-101 134h103z" />
    <glyph glyph-name="uacute" unicode="&#xfa;" horiz-adv-x="539" 
d="M68 158v312h88v-301q0 -30 7.5 -51t20 -33.5t30 -18t36.5 -5.5q40 0 72 17t61 47v345h88v-470h-69l-12 59h-4q-26 -29 -64.5 -48.5t-89.5 -19.5q-73 0 -118.5 41.5t-45.5 125.5zM285 690h103l-101 -134h-72z" />
    <glyph glyph-name="ucircumflex" unicode="&#xfb;" horiz-adv-x="539" 
d="M68 470h88v-301q0 -30 7.5 -51t20 -33.5t30 -18t36.5 -5.5q40 0 72 17t61 47v345h88v-470h-69l-12 59h-4q-26 -29 -64.5 -48.5t-89.5 -19.5q-73 0 -118.5 41.5t-45.5 125.5v312zM119 556l115 134h69l112 -134h-76l-70 84l-70 -84h-80z" />
    <glyph glyph-name="udieresis" unicode="&#xfc;" horiz-adv-x="539" 
d="M68 158v312h88v-301q0 -30 7.5 -51t20 -33.5t30 -18t36.5 -5.5q40 0 72 17t61 47v345h88v-470h-69l-12 59h-4q-26 -29 -64.5 -48.5t-89.5 -19.5q-73 0 -118.5 41.5t-45.5 125.5zM302 623q0 19 15 34t35 15t35 -15t15 -34q0 -20 -15 -35.5t-35 -15.5t-35 15.5t-15 35.5z
M136 623q0 19 15 34t35 15t35 -15t15 -34q0 -20 -15 -35.5t-35 -15.5t-35 15.5t-15 35.5z" />
    <glyph glyph-name="yacute" unicode="&#xfd;" horiz-adv-x="461" 
d="M9 470h94l100 -269l34 -112h2l34 112l91 269h90l-181 -510q-30 -85 -75.5 -133t-108.5 -70l-38 70q48 18 84 52t56 94l9 27zM247 690h103l-101 -134h-72z" />
    <glyph glyph-name="thorn" unicode="&#xfe;" horiz-adv-x="541" 
d="M69 -160v870h87v-296q32 34 70.5 48.5t80.5 14.5q91 0 143 -63.5t52 -178.5q0 -56 -17 -101t-46 -77t-68 -49t-83 -17q-42 0 -73.5 8.5t-58.5 30.5v-190h-87zM156 109q21 -24 47.5 -37t61.5 -13q29 0 55 10t46 31.5t32 54.5t12 79q0 78 -33 124.5t-93 46.5
q-38 0 -69 -15.5t-59 -46.5v-234z" />
    <glyph glyph-name="ydieresis" unicode="&#xff;" horiz-adv-x="461" 
d="M103 470l100 -269l34 -112h2l34 112l91 269h90l-181 -510q-30 -85 -75.5 -133t-108.5 -70l-38 70q48 18 84 52t56 94l9 27l-191 470h94zM310 672q20 0 35 -15t15 -34q0 -20 -15 -35.5t-35 -15.5t-35 15.5t-15 35.5q0 19 15 34t35 15zM94 623q0 19 15 34t35 15t35 -15
t15 -34q0 -20 -15 -35.5t-35 -15.5t-35 15.5t-15 35.5z" />
    <glyph glyph-name="Amacron" unicode="&#x100;" horiz-adv-x="590" 
d="M256 630h82l251 -630h-96l-69 175h-259l-68 -175h-95zM190 248h207l-42 109q-17 43 -31 83t-28 82h-2q-14 -42 -29 -81t-32 -84zM171 772h245v-62h-245v62z" />
    <glyph glyph-name="amacron" unicode="&#x101;" horiz-adv-x="489" 
d="M73 428q24 12 45 21.5t42 15.5t43 9t48 3q39 0 71.5 -8.5t56 -28.5t36.5 -52.5t13 -81.5v-306h-73l-11 52h-2q-31 -33 -68 -47t-82 -14q-34 0 -62.5 9.5t-49.5 27t-32.5 42.5t-11.5 56q0 74 58.5 112.5t154.5 38.5h90v40q0 51 -26 69.5t-70 18.5q-26 0 -59.5 -8.5
t-76.5 -32.5zM340 217l-74 -2q-75 -2 -106.5 -26.5t-31.5 -59.5q0 -21 7 -35.5t18.5 -22.5t27 -11.5t32.5 -3.5q33 0 67 15.5t60 49.5v96zM379 652v-62h-245v62h245z" />
    <glyph glyph-name="Abreve" unicode="&#x102;" horiz-adv-x="590" 
d="M2 0l254 630h82l251 -630h-96l-69 175h-259l-68 -175h-95zM190 248h207l-42 109q-17 43 -31 83t-28 82h-2q-14 -42 -29 -81t-32 -84zM160 834h63q2 -16 5.5 -29t11.5 -22t21 -14t34 -5q35 0 51.5 18t20.5 52h62q0 -54 -34 -89t-100 -35q-36 0 -61.5 10.5t-42 28t-24 40
t-7.5 45.5z" />
    <glyph glyph-name="abreve" unicode="&#x103;" horiz-adv-x="489" 
d="M36 126q0 74 58.5 112.5t154.5 38.5h90v40q0 51 -25.5 69.5t-70.5 18.5q-26 0 -59.5 -8.5t-76.5 -32.5l-34 64q24 12 45 21t42 15.5t43 9.5t48 3q39 0 71.5 -8.5t56 -28.5t36.5 -52.5t13 -81.5v-306h-73l-11 52h-2q-31 -33 -68 -47t-82 -14q-69 0 -112.5 36t-43.5 99z
M128 129q0 -21 7 -35.5t18.5 -22.5t27 -11.5t32.5 -3.5q33 0 67 15.5t60 49.5v96l-74 -2q-75 -2 -106.5 -26.5t-31.5 -59.5zM182 680q2 -16 5.5 -29t11.5 -22t21 -14t34 -5q35 0 51.5 18t20.5 52h62q0 -54 -34 -89t-100 -35q-36 0 -61.5 10.5t-42 28t-24 40t-7.5 45.5h63z
" />
    <glyph glyph-name="Aogonek" unicode="&#x104;" horiz-adv-x="589" 
d="M256 630h82l251 -630q-57 -22 -81 -44.5t-24 -49.5q0 -25 15.5 -38.5t39.5 -13.5q29 0 50 8l13 -47q-35 -21 -80 -21q-46 0 -76.5 25t-30.5 72q0 38 23 65.5t55 43.5l-69 175h-259l-68 -175h-95zM190 248h207l-42 109q-17 43 -31 83t-28 82h-2q-14 -42 -29 -81t-32 -84z
" />
    <glyph glyph-name="aogonek" unicode="&#x105;" horiz-adv-x="489" 
d="M428 0q-32 -21 -53.5 -45t-21.5 -50q0 -24 15.5 -37.5t39.5 -13.5q29 0 50 8l13 -47q-35 -21 -80 -21q-46 0 -76.5 25t-30.5 72q0 19 6.5 35.5t17 30.5t23 24.5t24.5 18.5l-11 52h-2q-31 -33 -68 -47t-82 -14q-34 0 -62.5 9.5t-49.5 27t-32.5 42.5t-11.5 56
q0 74 58.5 112.5t154.5 38.5h90v40q0 51 -26 69.5t-70 18.5q-26 0 -59.5 -8.5t-76.5 -32.5l-34 64q24 12 45 21.5t42 15.5t43 9t48 3q39 0 71.5 -8.5t56 -28.5t36.5 -52.5t13 -81.5v-306zM340 217l-74 -2q-75 -2 -106.5 -26.5t-31.5 -59.5q0 -21 7 -35.5t18.5 -22.5
t27 -11.5t32.5 -3.5q33 0 67 15.5t60 49.5v96z" />
    <glyph glyph-name="Cacute" unicode="&#x106;" horiz-adv-x="559" 
d="M355 67q50 0 82.5 8t64.5 23l21 -74q-35 -17 -76.5 -25t-101.5 -8q-62 0 -117 21t-95.5 62t-64 101.5t-23.5 139.5q0 77 23 137.5t63.5 102t96.5 63t122 21.5q62 0 102 -10t74 -27l-22 -72q-19 8 -35.5 14.5t-33 10.5t-34 6t-39.5 2q-44 0 -83.5 -13.5t-69 -43.5
t-47 -77.5t-17.5 -114.5q0 -68 17 -115t45.5 -76t66.5 -42.5t81 -13.5zM324 710h-72l80 124h103z" />
    <glyph glyph-name="cacute" unicode="&#x107;" horiz-adv-x="442" 
d="M291 59q32 0 56 7t47 18l19 -66q-54 -27 -129 -27q-51 0 -95.5 15t-78 45.5t-52.5 76t-19 106.5q0 56 18 101t50 76.5t77 48.5t99 17q31 0 60.5 -4.5t67.5 -21.5l-20 -67q-46 26 -99 26q-73 0 -118 -45.5t-45 -127.5q0 -51 14 -85t37 -54.5t52 -29.5t59 -9zM277 556h-72
l70 134h103z" />
    <glyph glyph-name="Ccircumflex" unicode="&#x108;" horiz-adv-x="559" 
d="M45 315q0 77 23 137.5t63.5 102t96.5 63t122 21.5q62 0 102 -10t74 -27l-22 -72q-19 8 -35.5 14.5t-33 10.5t-34 6t-39.5 2q-44 0 -83.5 -13.5t-69 -43.5t-47 -77t-17.5 -115q0 -67 17 -114.5t45.5 -76.5t66.5 -42.5t81 -13.5q50 0 82.5 8t64.5 23l21 -74
q-35 -17 -76.5 -25t-101.5 -8q-62 0 -117 21t-95.5 62t-64 101.5t-23.5 139.5zM176 710l122 134h69l125 -134h-80l-80 84l-80 -84h-76z" />
    <glyph glyph-name="ccircumflex" unicode="&#x109;" horiz-adv-x="442" 
d="M39 234q0 56 18 101t50 76.5t77 48.5t99 17q31 0 60.5 -4.5t67.5 -21.5l-20 -67q-47 26 -99 26q-73 0 -118 -45.5t-45 -127.5q0 -51 14 -85t37 -54.5t52 -29.5t59 -9q32 0 56 7t47 18l19 -66q-54 -27 -129 -27q-51 0 -95.5 15t-78 45.5t-52.5 76t-19 106.5zM223 690h69
l112 -134h-76l-70 84l-70 -84h-80z" />
    <glyph glyph-name="Cdotaccent" unicode="&#x10a;" horiz-adv-x="559" 
d="M355 67q50 0 82.5 8t64.5 23l21 -74q-35 -17 -76.5 -25t-101.5 -8q-62 0 -117 21t-95.5 62t-64 101.5t-23.5 139.5q0 77 23 137.5t63.5 102t96.5 63t122 21.5q62 0 102 -10t74 -27l-22 -72q-19 8 -35.5 14.5t-33 10.5t-34 6t-39.5 2q-44 0 -83.5 -13.5t-69 -43.5
t-47 -77.5t-17.5 -114.5q0 -68 17 -115t45.5 -76t66.5 -42.5t81 -13.5zM289 767q0 21 17 38t39 17q23 0 39.5 -17t16.5 -38q0 -23 -16.5 -40t-39.5 -17q-22 0 -39 17t-17 40z" />
    <glyph glyph-name="cdotaccent" unicode="&#x10b;" horiz-adv-x="442" 
d="M291 59q32 0 56 7t47 18l19 -66q-54 -27 -129 -27q-51 0 -95.5 15t-78 45.5t-52.5 76t-19 106.5q0 56 18 101t50 76.5t77 48.5t99 17q31 0 60.5 -4.5t67.5 -21.5l-20 -67q-46 26 -99 26q-73 0 -118 -45.5t-45 -127.5q0 -51 14 -85t37 -54.5t52 -29.5t59 -9zM210 624
q0 21 16.5 37.5t38.5 16.5q23 0 39 -16.5t16 -37.5q0 -23 -16 -39.5t-39 -16.5q-22 0 -38.5 16.5t-16.5 39.5z" />
    <glyph glyph-name="Ccaron" unicode="&#x10c;" horiz-adv-x="559" 
d="M45 315q0 77 23 137.5t63.5 102t96.5 63t122 21.5q62 0 102 -10t74 -27l-22 -72q-19 8 -35.5 14.5t-33 10.5t-34 6t-39.5 2q-44 0 -83.5 -13.5t-69 -43.5t-47 -77t-17.5 -115q0 -67 17 -114.5t45.5 -76.5t66.5 -42.5t81 -13.5q50 0 82.5 8t64.5 23l21 -74
q-35 -17 -76.5 -25t-101.5 -8q-62 0 -117 21t-95.5 62t-64 101.5t-23.5 139.5zM266 845l78 -87l79 87h79l-125 -134h-69l-122 134h80z" />
    <glyph glyph-name="ccaron" unicode="&#x10d;" horiz-adv-x="442" 
d="M283 477q31 0 60.5 -4.5t67.5 -21.5l-20 -67q-47 26 -99 26q-73 0 -118 -45.5t-45 -127.5q0 -51 14 -85t37 -54.5t52 -29.5t59 -9q32 0 56 7t47 18l19 -66q-54 -27 -129 -27q-51 0 -95.5 15t-78 45.5t-52.5 76t-19 106.5q0 56 18 101t50 76.5t77 48.5t99 17zM191 690
l70 -84l70 84h80l-115 -134h-69l-112 134h76z" />
    <glyph glyph-name="Dcaron" unicode="&#x10e;" horiz-adv-x="642" 
d="M285 630q67 0 124 -19t98.5 -56.5t65 -94t23.5 -131.5q0 -91 -28 -154t-75.5 -102t-110 -56t-132.5 -17h-170v630h205zM241 76q48 0 94 10.5t81.5 39t57.5 77.5t22 126q0 108 -62 166.5t-167 58.5h-95v-478h69zM136 845h76l80 -84l80 84h80l-125 -134h-69z" />
    <glyph glyph-name="dcaron" unicode="&#x10f;" horiz-adv-x="648" 
d="M250 477q37 0 70.5 -11.5t59.5 -34.5v279h88v-710h-74l-11 52h-3q-31 -32 -62.5 -46.5t-79.5 -14.5q-37 0 -73 15t-64 45t-45 76t-17 107q0 56 14.5 100.5t41.5 76.5t66.5 49t88.5 17zM258 59q75 0 122 65v233q-47 53 -111 53q-27 0 -52.5 -9.5t-45 -30.5t-31.5 -53.5
t-12 -79.5q0 -48 11 -81.5t29.5 -55t42 -31.5t47.5 -10zM538 524q28 17 50 43.5t24 52.5l-18 4q-15 3 -32.5 17.5t-17.5 40.5q0 24 15.5 41.5t43.5 17.5q12 0 24 -5t22.5 -15.5t17 -27t6.5 -40.5q0 -22 -8 -46t-23 -45.5t-35 -40.5t-44 -32z" />
    <glyph glyph-name="Dcroat" unicode="&#x110;" horiz-adv-x="672" 
d="M110 360v270h205q67 0 124 -19t98.5 -56.5t65 -94t23.5 -131.5q0 -91 -28 -154t-75.5 -102t-110 -56t-132.5 -17h-170v298h-80v62h80zM202 76h69q48 0 94 10.5t81.5 39t57.5 77.5t22 126q0 108 -62 166.5t-167 58.5h-95v-194h128v-62h-128v-222z" />
    <glyph glyph-name="dcroat" unicode="&#x111;" horiz-adv-x="539" 
d="M39 234q0 56 14.5 100.5t41.5 76.5t66.5 49t88.5 17q37 0 70.5 -11.5t59.5 -34.5v137h-111v62h111v80h88v-80h81v-62h-81v-568h-74l-11 52h-3q-31 -32 -62.5 -46.5t-79.5 -14.5q-37 0 -73 15t-64 45t-45 76t-17 107zM258 59q75 0 122 65v233q-47 53 -111 53
q-27 0 -52.5 -9.5t-45 -30.5t-31.5 -53.5t-12 -79.5q0 -48 11 -81.5t29.5 -55t42 -31.5t47.5 -10z" />
    <glyph glyph-name="Emacron" unicode="&#x112;" 
d="M80 630h380v-76h-288v-189h262v-75h-262v-214h291v-76h-383v630zM148 772h245v-62h-245v62z" />
    <glyph glyph-name="emacron" unicode="&#x113;" horiz-adv-x="504" 
d="M468 225h-337v-4q0 -78 42.5 -120t115.5 -42q38 0 67.5 6t64.5 20l18 -65q-29 -13 -68.5 -21t-84.5 -8q-51 0 -95.5 14t-78.5 43.5t-53.5 75.5t-19.5 110q0 55 16.5 100t46.5 76.5t72.5 49t95.5 17.5q45 0 81.5 -15t62.5 -42t40 -65t14 -84v-46zM377 288q0 26 -6.5 48.5
t-20 39.5t-34.5 27t-51 10q-55 0 -89.5 -35t-42.5 -92zM385 652v-62h-245v62h245z" />
    <glyph glyph-name="Ebreve" unicode="&#x114;" 
d="M460 630v-76h-288v-189h262v-75h-262v-214h291v-76h-383v630h380zM208 846q2 -16 5.5 -29t11.5 -22t21 -14t34 -5q35 0 51.5 18t20.5 52h62q0 -54 -34 -89t-100 -35q-36 0 -61.5 10.5t-42 28t-24 40t-7.5 45.5h63z" />
    <glyph glyph-name="ebreve" unicode="&#x115;" horiz-adv-x="504" 
d="M270 477q45 0 81.5 -15t62.5 -42t40 -65t14 -84v-46h-337v-4q0 -78 42.5 -120t115.5 -42q38 0 67.5 6t64.5 20l18 -65q-29 -13 -68.5 -21t-84.5 -8q-51 0 -95.5 14t-78.5 43.5t-53.5 75.5t-19.5 110q0 55 16.5 100t46.5 76.5t73 49t95 17.5zM133 286l244 2
q0 26 -6.5 48.5t-20 39.5t-34.5 27t-51 10q-55 0 -89.5 -35t-42.5 -92zM135 680h63q2 -16 5.5 -29t11.5 -22t21 -14t34 -5q35 0 51.5 18t20.5 52h62q0 -54 -34 -89t-100 -35q-36 0 -61.5 10.5t-42 28t-24 40t-7.5 45.5z" />
    <glyph glyph-name="Edotaccent" unicode="&#x116;" 
d="M460 630v-76h-288v-189h262v-75h-262v-214h291v-76h-383v630h380zM285 822q23 0 39.5 -17t16.5 -38q0 -23 -16.5 -40t-39.5 -17q-22 0 -39 17t-17 40q0 21 17 38t39 17z" />
    <glyph glyph-name="edotaccent" unicode="&#x117;" horiz-adv-x="504" 
d="M468 225h-337v-4q0 -78 42.5 -120t115.5 -42q38 0 67.5 6t64.5 20l18 -65q-29 -13 -68.5 -21t-84.5 -8q-51 0 -95.5 14t-78.5 43.5t-53.5 75.5t-19.5 110q0 55 16.5 100t46.5 76.5t72.5 49t95.5 17.5q45 0 81.5 -15t62.5 -42t40 -65t14 -84v-46zM377 288q0 26 -6.5 48.5
t-20 39.5t-34.5 27t-51 10q-55 0 -89.5 -35t-42.5 -92zM211 624q0 21 16.5 37.5t38.5 16.5q23 0 39 -16.5t16 -37.5q0 -23 -16 -39.5t-39 -16.5q-22 0 -38.5 16.5t-16.5 39.5z" />
    <glyph glyph-name="Eogonek" unicode="&#x118;" 
d="M80 0v630h380v-76h-288v-189h262v-75h-262v-214h291v-76q-45 -20 -73.5 -42t-28.5 -53q0 -24 15.5 -37.5t39.5 -13.5q26 0 50 8l13 -47q-34 -21 -80 -21t-76.5 24.5t-30.5 72.5q0 38 24.5 65.5t56.5 41.5v2h-293z" />
    <glyph glyph-name="eogonek" unicode="&#x119;" horiz-adv-x="504" 
d="M468 225h-337v-4q0 -78 42.5 -120t115.5 -42q38 0 67.5 6t64.5 20l18 -65q-24 -12 -43.5 -21.5t-33.5 -19.5t-21.5 -22.5t-7.5 -31.5q0 -24 15.5 -37.5t39.5 -13.5q29 0 50 8l13 -47q-35 -21 -80 -21q-46 0 -76.5 23.5t-30.5 70.5q0 23 12.5 45t37.5 36v3q-7 0 -14 -0.5
t-14 -0.5q-51 0 -95.5 14t-78.5 43.5t-53.5 75.5t-19.5 110q0 55 16.5 100t46.5 76.5t72.5 49t95.5 17.5q45 0 81.5 -15t62.5 -42t40 -65t14 -84v-46zM377 288q0 26 -6.5 48.5t-20 39.5t-34.5 27t-51 10q-55 0 -89.5 -35t-42.5 -92z" />
    <glyph glyph-name="Ecaron" unicode="&#x11a;" 
d="M460 630v-76h-288v-189h262v-75h-262v-214h291v-76h-383v630h380zM205 845l78 -87l79 87h79l-125 -134h-69l-122 134h80z" />
    <glyph glyph-name="ecaron" unicode="&#x11b;" horiz-adv-x="504" 
d="M270 477q45 0 81.5 -15t62.5 -42t40 -65t14 -84v-46h-337v-4q0 -78 42.5 -120t115.5 -42q38 0 67.5 6t64.5 20l18 -65q-29 -13 -68.5 -21t-84.5 -8q-51 0 -95.5 14t-78.5 43.5t-53.5 75.5t-19.5 110q0 55 16.5 100t46.5 76.5t73 49t95 17.5zM377 288q0 26 -6.5 48.5
t-20 39.5t-34.5 27t-51 10q-55 0 -89.5 -35t-42.5 -92zM195 690l70 -84l70 84h76l-112 -134h-69l-115 134h80z" />
    <glyph glyph-name="Gcircumflex" unicode="&#x11c;" horiz-adv-x="618" 
d="M45 314q0 80 23.5 140.5t64.5 101.5t98 62t124 21q55 0 99.5 -8t82.5 -28l-22 -72q-37 17 -72 25t-77 8q-44 0 -84 -13t-70.5 -42.5t-48.5 -77t-18 -117.5q0 -121 55 -184t155 -63q38 0 65.5 4t53.5 14v175h-119v72h205v-304q-40 -16 -89 -26.5t-116 -10.5
q-65 0 -121.5 21t-98.5 62t-66 101t-24 139zM184 710l122 134h69l125 -134h-80l-80 84l-80 -84h-76z" />
    <glyph glyph-name="gcircumflex" unicode="&#x11d;" horiz-adv-x="541" 
d="M32 -86q0 37 23.5 62t61.5 38q-20 14 -30 29.5t-10 41.5q0 31 18.5 53t50.5 35q-40 18 -62.5 52.5t-22.5 88.5q0 39 14 69.5t39.5 51.5t60.5 31.5t76 10.5q15 0 29 -2t28 -5h203v-65h-31l-80 11q19 -20 29.5 -46t10.5 -55q0 -39 -14 -69.5t-39 -51.5t-60 -31.5t-76 -10.5
q-37 0 -54 4q-23 -8 -32 -20.5t-9 -26.5q0 -23 15.5 -31t41.5 -8h124q78 0 119.5 -35.5t41.5 -96.5q0 -39 -17 -70t-48.5 -53t-76.5 -33.5t-101 -11.5q-102 0 -162.5 36.5t-60.5 107.5zM259 -160q42 0 71 8t47 21t26.5 29t8.5 33q0 42 -28.5 55.5t-71.5 13.5h-144
q-51 -23 -51 -72q0 -88 142 -88zM251 215q45 0 72.5 24t27.5 73q0 54 -27.5 78.5t-72.5 24.5t-72.5 -25t-27.5 -74q0 -52 27.5 -76.5t72.5 -24.5zM111 556l115 134h69l112 -134h-76l-70 84l-70 -84h-80z" />
    <glyph glyph-name="Gbreve" unicode="&#x11e;" horiz-adv-x="618" 
d="M355 639q55 0 99.5 -8t82.5 -28l-22 -72q-37 17 -72 25t-77 8q-44 0 -84 -13t-70.5 -42.5t-48.5 -77t-18 -117.5q0 -121 55 -184t155 -63q38 0 65.5 4t53.5 14v175h-119v72h205v-304q-40 -16 -89 -26.5t-116 -10.5q-65 0 -121.5 21t-98.5 62t-66 101t-24 139
q0 80 23.5 140.5t64.5 101.5t98 62t124 21zM287 846q2 -16 5.5 -29t11.5 -22t21 -14t34 -5q35 0 51.5 18t20.5 52h62q0 -54 -34 -89t-100 -35q-36 0 -61.5 10.5t-42 28t-24 40t-7.5 45.5h63z" />
    <glyph glyph-name="gbreve" unicode="&#x11f;" horiz-adv-x="541" 
d="M32 -86q0 37 23.5 62t61.5 38q-20 14 -30 29.5t-10 41.5q0 31 18.5 53t50.5 35q-40 18 -62.5 52.5t-22.5 88.5q0 39 14 69.5t39.5 51.5t60.5 31.5t76 10.5q15 0 29 -2t28 -5h203v-65h-31l-80 11q19 -20 29.5 -46t10.5 -55q0 -39 -14 -69.5t-39 -51.5t-60 -31.5t-76 -10.5
q-37 0 -54 4q-23 -8 -32 -20.5t-9 -26.5q0 -23 15.5 -31t41.5 -8h124q78 0 119.5 -35.5t41.5 -96.5q0 -39 -17 -70t-48.5 -53t-76.5 -33.5t-101 -11.5q-102 0 -162.5 36.5t-60.5 107.5zM117 -72q0 -88 142 -88q42 0 71 8t47 21t26.5 29t8.5 33q0 42 -28.5 55.5t-71.5 13.5
h-144q-51 -23 -51 -72zM151 316q0 -52 27.5 -76.5t72.5 -24.5t72.5 24t27.5 73q0 54 -27.5 78.5t-72.5 24.5t-72.5 -25t-27.5 -74zM203 680q2 -16 5.5 -29t11.5 -22t21 -14t34 -5q35 0 51.5 18t20.5 52h62q0 -54 -34 -89t-100 -35q-36 0 -61.5 10.5t-42 28t-24 40t-7.5 45.5
h63z" />
    <glyph glyph-name="Gdotaccent" unicode="&#x120;" horiz-adv-x="618" 
d="M355 639q55 0 99.5 -8t82.5 -28l-22 -72q-37 17 -72.5 25t-76.5 8q-44 0 -84 -13t-70.5 -42.5t-48.5 -77t-18 -117.5q0 -121 55 -184t155 -63q38 0 65.5 4t53.5 14v175h-119v72h205v-304q-40 -16 -89 -26.5t-116 -10.5q-65 0 -121.5 21t-98.5 62t-66 101t-24 139
t23.5 140t64.5 102t98 62t124 21zM299 767q0 21 17 38t39 17q23 0 39.5 -17t16.5 -38q0 -23 -16.5 -40t-39.5 -17q-22 0 -39 17t-17 40z" />
    <glyph glyph-name="gdotaccent" unicode="&#x121;" horiz-adv-x="541" 
d="M61 314q0 39 14 69.5t39.5 51.5t60.5 31.5t76 10.5q15 0 29 -2t28 -5h203v-65h-31l-80 11q19 -20 29.5 -46t10.5 -55q0 -39 -14 -69.5t-39 -51.5t-60 -31.5t-76 -10.5q-31 0 -54 4q-23 -8 -32 -20.5t-9 -26.5q0 -23 15.5 -31t41.5 -8h124q78 0 119.5 -35.5t41.5 -96.5
q0 -39 -17 -70t-48.5 -53t-76.5 -33.5t-101 -11.5q-102 0 -162.5 36.5t-60.5 107.5q0 37 23.5 62t61.5 38q-20 14 -30 29.5t-10 41.5q0 31 18.5 53t50.5 35q-40 18 -62.5 52.5t-22.5 88.5zM168 0q-51 -23 -51 -72q0 -88 142 -88q42 0 71 8t47 21t26.5 29t8.5 33
q0 42 -28.5 55.5t-71.5 13.5h-144zM351 312q0 53 -27.5 78t-72.5 25t-72.5 -25t-27.5 -74q0 -52 27.5 -76.5t72.5 -24.5t72.5 24t27.5 73zM197 624q0 21 16.5 37.5t38.5 16.5q23 0 39 -16.5t16 -37.5q0 -23 -16 -39.5t-39 -16.5q-22 0 -38.5 16.5t-16.5 39.5z" />
    <glyph glyph-name="uni0122" unicode="&#x122;" horiz-adv-x="618" 
d="M355 639q55 0 99.5 -8t82.5 -28l-22 -72q-38 17 -72.5 25t-76.5 8q-44 0 -84 -13t-70.5 -42.5t-48.5 -77t-18 -117.5q0 -121 55 -184t155 -63q38 0 65.5 4t53.5 14v175h-119v72h205v-304q-40 -16 -89 -26.5t-116 -10.5q-65 0 -121.5 21t-98.5 62t-66 101t-24 139
t23.5 140t64.5 102t98 62t124 21zM337 -182q-15 3 -32.5 17.5t-17.5 40.5q0 24 15.5 41.5t43.5 17.5q12 0 24 -5t22.5 -15.5t17 -27t6.5 -40.5q0 -23 -8 -46.5t-23 -45.5t-35 -40.5t-44 -31.5l-25 35q28 17 50 43.5t24 52.5z" />
    <glyph glyph-name="uni0123" unicode="&#x123;" horiz-adv-x="541" 
d="M61 314q0 39 14 69.5t39.5 51.5t60.5 31.5t76 10.5q15 0 29 -2t28 -5h203v-65h-31l-80 11q19 -20 29.5 -46t10.5 -55q0 -39 -14 -69.5t-39 -51.5t-60 -31.5t-76 -10.5q-31 0 -54 4q-23 -8 -32 -20.5t-9 -26.5q0 -23 15.5 -31t41.5 -8h124q78 0 119.5 -35.5t41.5 -96.5
q0 -39 -17 -70t-48.5 -53t-76.5 -33.5t-101 -11.5q-102 0 -162.5 36.5t-60.5 107.5q0 37 23.5 62t61.5 38q-20 14 -30 29.5t-10 41.5q0 31 18.5 53t50.5 35q-40 18 -62.5 52.5t-22.5 88.5zM168 0q-51 -23 -51 -72q0 -88 142 -88q42 0 71 8t47 21t26.5 29t8.5 33
q0 42 -28.5 55.5t-71.5 13.5h-144zM351 312q0 53 -27.5 78t-72.5 25t-72.5 -25t-27.5 -74q0 -52 27.5 -76.5t72.5 -24.5t72.5 24t27.5 73zM260 673q15 -3 32.5 -17.5t17.5 -40.5q0 -24 -15.5 -41.5t-43.5 -17.5q-12 0 -24 4.5t-22.5 15t-17 27.5t-6.5 41q0 23 8 46.5t23 45
t35 40.5t44 32l25 -35q-28 -17 -50 -43.5t-24 -52.5z" />
    <glyph glyph-name="Hcircumflex" unicode="&#x124;" horiz-adv-x="642" 
d="M172 630v-265h299v265h92v-630h-92v287h-299v-287h-92v630h92zM167 710l122 134h69l125 -134h-80l-80 84l-80 -84h-76z" />
    <glyph glyph-name="hcircumflex" unicode="&#x125;" horiz-adv-x="540" 
d="M69 0v680h88v-270q33 29 73 48t88 19q78 0 115.5 -43.5t37.5 -109.5v-324h-88v302q0 54 -22 78.5t-67 24.5q-34 0 -68.5 -17t-68.5 -48v-340h-88zM-37 736l115 134h69l112 -134h-76l-70 84l-70 -84h-80z" />
    <glyph glyph-name="Hbar" unicode="&#x126;" horiz-adv-x="642" 
d="M20 550h60v80h92v-80h299v80h92v-80h60v-62h-60v-488h-92v287h-299v-287h-92v488h-60v62zM172 488v-123h299v123h-299z" />
    <glyph glyph-name="hbar" unicode="&#x127;" horiz-adv-x="541" 
d="M70 630v80h88v-80h112v-62h-112v-158q33 29 73 48t88 19q78 0 115.5 -43.5t37.5 -109.5v-324h-88v302q0 54 -22 78.5t-67 24.5q-34 0 -68.5 -17t-68.5 -48v-340h-88v568h-80v62h80z" />
    <glyph glyph-name="Itilde" unicode="&#x128;" horiz-adv-x="252" 
d="M172 630v-630h-92v630h92zM-33 711q0 46 20.5 78t66.5 32q21 0 37.5 -7t31 -15t28.5 -15t30 -7q20 0 28.5 15t10.5 32h50q0 -21 -5 -40.5t-15.5 -35t-26 -25t-36.5 -9.5t-39.5 6.5t-34.5 15t-30 15t-26 6.5q-21 0 -29.5 -13t-10.5 -33h-50z" />
    <glyph glyph-name="itilde" unicode="&#x129;" horiz-adv-x="248" 
d="M80 0v470h88v-470h-88zM-27 556q0 46 20.5 78t66.5 32q21 0 37.5 -7t31 -15t28.5 -15t30 -7q20 0 28.5 15t10.5 32h50q0 -21 -5 -40.5t-15.5 -35t-26 -25t-36.5 -9.5t-39.5 6.5t-34.5 15t-30 15t-26 6.5q-21 0 -29.5 -13t-10.5 -33h-50z" />
    <glyph glyph-name="Imacron" unicode="&#x12a;" horiz-adv-x="252" 
d="M172 630v-630h-92v630h92zM251 772v-62h-245v62h245z" />
    <glyph glyph-name="imacron" unicode="&#x12b;" horiz-adv-x="248" 
d="M80 0v470h88v-470h-88zM246 652v-62h-245v62h245z" />
    <glyph glyph-name="Ibreve" unicode="&#x12c;" horiz-adv-x="252" 
d="M172 630v-630h-92v630h92zM-7 834h63q2 -16 5.5 -29t11.5 -22t21 -14t34 -5q35 0 51.5 18t20.5 52h62q0 -54 -34 -89t-100 -35q-36 0 -61.5 10.5t-42 28t-24 40t-7.5 45.5z" />
    <glyph glyph-name="ibreve" unicode="&#x12d;" horiz-adv-x="248" 
d="M80 0v470h88v-470h-88zM53 680q2 -16 5.5 -29t11.5 -22t21 -14t34 -5q35 0 51.5 18t20.5 52h62q0 -54 -34 -89t-100 -35q-36 0 -61.5 10.5t-42 28t-24 40t-7.5 45.5h63z" />
    <glyph glyph-name="Iogonek" unicode="&#x12e;" horiz-adv-x="252" 
d="M172 0q-45 -22 -73 -43t-28 -52q0 -24 15.5 -37.5t39.5 -13.5q29 0 50 8l13 -47q-35 -21 -80 -21q-46 0 -76.5 26.5t-30.5 73.5q0 19 6.5 35.5t17.5 30t25 23.5t29 17v630h92v-630z" />
    <glyph glyph-name="iogonek" unicode="&#x12f;" horiz-adv-x="248" 
d="M168 0q-45 -22 -73 -43t-28 -52q0 -24 15.5 -37.5t39.5 -13.5q29 0 50 8l13 -47q-35 -21 -80 -21q-46 0 -76.5 25t-30.5 72q0 19 7.5 36t19 31t26 24.5t29.5 17.5v470h88v-470zM124 594q-23 0 -38 15t-15 38t15 38t38 15q22 0 37.5 -15t15.5 -38t-15.5 -38t-37.5 -15z
" />
    <glyph glyph-name="Idotaccent" unicode="&#x130;" horiz-adv-x="252" 
d="M172 630v-630h-92v630h92zM68 767q0 21 17 38t39 17q23 0 39.5 -17t16.5 -38q0 -23 -16.5 -40t-39.5 -17q-22 0 -39 17t-17 40z" />
    <glyph glyph-name="dotlessi" unicode="&#x131;" horiz-adv-x="246" 
d="M82 0v470h88v-470h-88z" />
    <glyph glyph-name="IJ" unicode="&#x132;" horiz-adv-x="487" 
d="M203 -80q35 1 58.5 12t37 30.5t19 46t5.5 58.5v563h92v-515q0 -70 -6.5 -115t-31.5 -79q-30 -42 -78 -58.5t-96 -17.5v75zM80 630h92v-630h-92v630z" />
    <glyph glyph-name="ij" unicode="&#x133;" horiz-adv-x="443" 
d="M280 60v410h88v-399q0 -57 -6.5 -104.5t-24.5 -86t-50 -68.5t-82 -52l-41 66q32 16 54 33t36 42.5t20 63.5t6 95zM171 470v-470h-88v470h88zM267 645q0 23 16.5 39t39.5 16q22 0 39 -16t17 -39t-17 -38.5t-39 -15.5q-23 0 -39.5 15.5t-16.5 38.5zM127 700q22 0 39 -16
t17 -39t-17 -38.5t-39 -15.5q-23 0 -39.5 15.5t-16.5 38.5t16.5 39t39.5 16z" />
    <glyph glyph-name="Jcircumflex" unicode="&#x134;" horiz-adv-x="269" 
d="M-15 -80q35 1 58.5 12t37 30.5t19 46t5.5 58.5v563h92v-515q0 -70 -6.5 -115t-31.5 -79q-30 -42 -78 -58.5t-96 -17.5v75zM-4 710l122 134h69l125 -134h-80l-80 84l-80 -84h-76z" />
    <glyph glyph-name="jcircumflex" unicode="&#x135;" horiz-adv-x="244" 
d="M77 60v410h88v-399q0 -57 -6.5 -104.5t-24.5 -86t-50 -68.5t-82 -52l-41 66q31 16 53.5 33t36 42.5t20 63t6.5 95.5zM-20 556l115 134h69l112 -134h-76l-70 84l-70 -84h-80z" />
    <glyph glyph-name="uni0136" unicode="&#x136;" horiz-adv-x="576" 
d="M80 630h92v-285l265 285h114l-260 -279l280 -351h-116l-230 288l-53 -57v-231h-92v630zM241 -282q28 17 50 43.5t24 52.5l-18 4q-15 3 -32.5 17.5t-17.5 40.5q0 24 15.5 41.5t43.5 17.5q12 0 24 -5t22.5 -15.5t17 -27t6.5 -40.5q0 -23 -8 -46.5t-23 -45.5t-35 -40.5
t-44 -31.5z" />
    <glyph glyph-name="uni0137" unicode="&#x137;" horiz-adv-x="467" 
d="M156 710v-442l189 202h109l-193 -198l202 -272h-104l-156 219l-47 -47v-172h-87v710h87zM181 -282q28 17 50 43.5t24 52.5l-18 4q-15 3 -32.5 17.5t-17.5 40.5q0 24 15.5 41.5t43.5 17.5q12 0 24 -5t22.5 -15.5t17 -27t6.5 -40.5q0 -23 -8 -46.5t-23 -45.5t-35 -40.5
t-44 -31.5z" />
    <glyph glyph-name="Lacute" unicode="&#x139;" horiz-adv-x="456" 
d="M80 630h92v-552h269v-78h-361v630zM162 710h-72l80 124h103z" />
    <glyph glyph-name="lacute" unicode="&#x13a;" horiz-adv-x="223" 
d="M69 0v680h86v-680h-86zM141 750h-72l70 134h103z" />
    <glyph glyph-name="uni013B" unicode="&#x13b;" horiz-adv-x="456" 
d="M80 630h92v-552h269v-78h-361v630zM247 -182q-15 3 -32.5 17.5t-17.5 40.5q0 24 15.5 41.5t43.5 17.5q12 0 24 -5t22.5 -15.5t17 -27t6.5 -40.5q0 -23 -8 -46.5t-23 -45.5t-35 -40.5t-44 -31.5l-25 35q28 17 50 43.5t24 52.5z" />
    <glyph glyph-name="uni013C" unicode="&#x13c;" horiz-adv-x="223" 
d="M69 0v710h86v-710h-86zM97 -182q-15 3 -32.5 17.5t-17.5 40.5q0 24 15.5 41.5t43.5 17.5q12 0 24 -5t22.5 -15.5t17 -27t6.5 -40.5q0 -23 -8 -46.5t-23 -45.5t-35 -40.5t-44 -31.5l-25 35q28 17 50 43.5t24 52.5z" />
    <glyph glyph-name="Lcaron" unicode="&#x13d;" horiz-adv-x="456" 
d="M80 630h92v-552h269v-78h-361v630zM312 624q-15 3 -32.5 17.5t-17.5 40.5q0 24 15.5 41.5t43.5 17.5q12 0 24 -5t22.5 -15.5t17 -27t6.5 -40.5q0 -23 -8 -46.5t-23 -45.5t-35 -40.5t-44 -31.5l-25 35q28 17 50 43.5t24 52.5z" />
    <glyph glyph-name="lcaron" unicode="&#x13e;" horiz-adv-x="343" 
d="M69 0v710h86v-710h-86zM284 624q-15 3 -32.5 17.5t-17.5 40.5q0 24 15.5 41.5t43.5 17.5q12 0 24 -5t22.5 -15.5t17 -27t6.5 -40.5q0 -23 -8 -46.5t-23 -45.5t-35 -40.5t-44 -31.5l-25 35q28 17 50 43.5t24 52.5z" />
    <glyph glyph-name="Ldot" unicode="&#x13f;" horiz-adv-x="456" 
d="M80 630h92v-552h269v-78h-361v630zM254 331q0 26 17 44.5t43 18.5q23 0 40 -18.5t17 -44.5q0 -25 -17 -43.5t-40 -18.5q-26 0 -43 18.5t-17 43.5z" />
    <glyph glyph-name="ldot" unicode="&#x140;" horiz-adv-x="282" 
d="M69 0v710h86v-710h-86zM225 331q0 26 17 44.5t43 18.5q23 0 40 -18.5t17 -44.5q0 -25 -17 -43.5t-40 -18.5q-26 0 -43 18.5t-17 43.5z" />
    <glyph glyph-name="Lslash" unicode="&#x141;" horiz-adv-x="456" 
d="M80 317v313h92v-252l135 113l33 -40l-168 -141v-232h269v-78h-361v249l-76 -63l-33 40z" />
    <glyph glyph-name="lslash" unicode="&#x142;" horiz-adv-x="346" 
d="M121 332v378h86v-312l104 104l37 -37l-141 -141v-324h-86v258l-85 -85l-37 37z" />
    <glyph glyph-name="Nacute" unicode="&#x143;" horiz-adv-x="672" 
d="M80 630h80l287 -399q16 -22 31 -45t27 -45h2q-2 35 -3 70t-1 70v349h90v-630h-80l-284 394q-15 21 -31 47.5t-30 52.5h-2q2 -42 3 -84t1 -84v-326h-90v630zM277 710l80 124h103l-111 -124h-72z" />
    <glyph glyph-name="nacute" unicode="&#x144;" horiz-adv-x="532" 
d="M66 0v470h69l13 -65q35 35 73 53.5t89 18.5q72 0 113 -40.5t41 -112.5v-324h-88v311q0 43 -22.5 68.5t-68.5 25.5q-69 0 -131 -63v-342h-88zM235 556l70 134h103l-101 -134h-72z" />
    <glyph glyph-name="uni0145" unicode="&#x145;" horiz-adv-x="672" 
d="M80 0v630h80l287 -399q16 -22 31 -45t27 -45h2q-2 35 -3 70t-1 70v349h90v-630h-80l-284 394q-15 21 -31 47.5t-30 52.5h-2q2 -42 3 -84t1 -84v-326h-90zM266 -282q28 17 50 43.5t24 52.5l-18 4q-15 3 -32.5 17.5t-17.5 40.5q0 24 15.5 41.5t43.5 17.5q12 0 24 -5
t22.5 -15.5t17 -27t6.5 -40.5q0 -23 -8 -46.5t-23 -45.5t-35 -40.5t-44 -31.5z" />
    <glyph glyph-name="uni0146" unicode="&#x146;" horiz-adv-x="532" 
d="M66 470h69l13 -65q35 35 73 53.5t89 18.5q72 0 113 -40.5t41 -112.5v-324h-88v311q0 43 -22.5 68.5t-68.5 25.5q-69 0 -131 -63v-342h-88v470zM201 -282q28 17 50 43.5t24 52.5l-18 4q-15 3 -32.5 17.5t-17.5 40.5q0 24 15.5 41.5t43.5 17.5q12 0 24 -5t22.5 -15.5
t17 -27t6.5 -40.5q0 -23 -8 -46.5t-23 -45.5t-35 -40.5t-44 -31.5z" />
    <glyph glyph-name="Ncaron" unicode="&#x147;" horiz-adv-x="672" 
d="M80 630h80l287 -399q16 -22 31 -45t27 -45h2q-2 35 -3 70t-1 70v349h90v-630h-80l-284 394q-15 21 -31 47.5t-30 52.5h-2q2 -42 3 -84t1 -84v-326h-90v630zM271 845l78 -87l79 87h79l-125 -134h-69l-122 134h80z" />
    <glyph glyph-name="ncaron" unicode="&#x148;" horiz-adv-x="532" 
d="M66 470h69l13 -65q35 35 73 53.5t89 18.5q72 0 113 -40.5t41 -112.5v-324h-88v311q0 43 -22.5 68.5t-68.5 25.5q-69 0 -131 -63v-342h-88v470zM205 690l70 -84l70 84h76l-112 -134h-69l-115 134h80z" />
    <glyph glyph-name="napostrophe" unicode="&#x149;" horiz-adv-x="553" 
d="M87 470h69l13 -65q35 35 73 53.5t89 18.5q72 0 113 -40.5t41 -112.5v-324h-88v311q0 43 -22.5 68.5t-68.5 25.5q-69 0 -131 -63v-342h-88v470zM-20 524q28 17 50 43.5t24 52.5l-18 4q-15 3 -32.5 17.5t-17.5 40.5q0 24 15.5 41.5t43.5 17.5q12 0 24 -5t22.5 -15.5t17 -27
t6.5 -40.5q0 -22 -8 -46t-23 -45.5t-35 -40.5t-44 -32z" />
    <glyph glyph-name="Eng" unicode="&#x14a;" horiz-adv-x="672" 
d="M160 630l287 -419q16 -24 31.5 -50t27.5 -50h2q-2 42 -3.5 85t-1.5 85v349h90v-564q0 -57 -6.5 -103.5t-24.5 -84t-50 -67t-82 -51.5l-41 66q54 27 81 65t33 104l-274 399q-15 21 -31 47.5t-30 52.5h-2q2 -42 3 -84t1 -84v-326h-90v630h80z" />
    <glyph glyph-name="eng" unicode="&#x14b;" horiz-adv-x="534" 
d="M466 66q0 -57 -6.5 -103.5t-24.5 -84t-50 -67t-82 -51.5l-41 66q30 15 52 31t36 39.5t21 57t7 84.5v273q0 43 -22.5 68.5t-68.5 25.5q-70 0 -131 -63v-342h-88v470h69l13 -65q35 35 73.5 53.5t88.5 18.5q72 0 113 -40.5t41 -112.5v-258z" />
    <glyph glyph-name="Omacron" unicode="&#x14c;" horiz-adv-x="686" 
d="M345 639q64 0 118 -20.5t93.5 -61t61.5 -101t22 -141.5q0 -79 -23 -139.5t-63 -101.5t-94.5 -62t-118.5 -21t-118 20.5t-93.5 61t-61.5 101t-22 141.5q0 79 23 139.5t63 101.5t94.5 62t118.5 21zM146 315q0 -64 15.5 -111t42.5 -78t63.5 -46t77.5 -15t76.5 15t62 46
t41.5 78t15 111q0 66 -15.5 113t-42.5 77.5t-63.5 45t-77.5 14.5t-77 -15t-62 -46t-41 -78t-15 -111zM473 772v-62h-245v62h245z" />
    <glyph glyph-name="omacron" unicode="&#x14d;" horiz-adv-x="538" 
d="M499 240q0 -59 -18 -105.5t-49.5 -78.5t-73.5 -48.5t-91 -16.5t-90.5 15.5t-72 46t-48 75t-17.5 102.5q0 59 18 105t49.5 77.5t73.5 48t91 16.5t90.5 -15t72 -45t48 -74.5t17.5 -102.5zM407 235q0 47 -12 80t-31.5 54t-44.5 30.5t-51 9.5t-51 -8t-44 -28t-30.5 -53.5
t-11.5 -84.5q0 -47 12 -80.5t31.5 -54.5t44.5 -31t51 -10t51 8.5t44 29t30.5 54t11.5 84.5zM393 652v-62h-245v62h245z" />
    <glyph glyph-name="Obreve" unicode="&#x14e;" horiz-adv-x="686" 
d="M345 639q64 0 118 -20.5t93.5 -61t61.5 -101t22 -141.5q0 -79 -23 -139.5t-63 -101.5t-94.5 -62t-118.5 -21t-118 20.5t-93.5 61t-61.5 101t-22 141.5q0 79 23 139.5t63 101.5t94.5 62t118.5 21zM345 65q41 0 76.5 15t62 46t41.5 78t15 111q0 66 -15.5 113t-42.5 77.5
t-63.5 45t-77.5 14.5t-76.5 -15t-62 -46t-41.5 -78t-15 -111t15.5 -111t42.5 -78t63.5 -46t77.5 -15zM270 834q2 -16 5.5 -29t11.5 -22t21 -14t34 -5q35 0 51.5 18t20.5 52h62q0 -54 -34 -89t-100 -35q-36 0 -61.5 10.5t-42 28t-24 40t-7.5 45.5h63z" />
    <glyph glyph-name="obreve" unicode="&#x14f;" horiz-adv-x="538" 
d="M39 230q0 59 18 105t49.5 77.5t73.5 48t91 16.5t90.5 -15t72 -45t48 -74t17.5 -103t-18 -105.5t-49.5 -78.5t-73.5 -48.5t-91 -16.5t-90.5 15.5t-72 46t-48 75t-17.5 102.5zM131 235q0 -47 12 -80.5t31.5 -54.5t44.5 -31t51 -10t51 8.5t44 29t30.5 54t11.5 84.5
q0 47 -12 80t-31.5 54t-44.5 30.5t-51 9.5t-51 -8t-44 -28t-30.5 -53.5t-11.5 -84.5zM201 680q2 -16 5.5 -29t11.5 -22t21 -14t34 -5q35 0 51.5 18t20.5 52h62q0 -54 -34 -89t-100 -35q-36 0 -61.5 10.5t-42 28t-24 40t-7.5 45.5h63z" />
    <glyph glyph-name="Ohungarumlaut" unicode="&#x150;" horiz-adv-x="686" 
d="M46 315q0 79 23 139.5t63 101.5t94.5 62t118.5 21t118 -20.5t93.5 -61t61.5 -101t22 -141.5q0 -79 -23 -139.5t-63 -101.5t-94.5 -62t-118.5 -21t-118 20.5t-93.5 61t-61.5 101t-22 141.5zM345 65q41 0 76.5 15t62 46t41.5 78t15 111q0 66 -15.5 113t-42.5 77.5t-63.5 45
t-77.5 14.5t-76.5 -15t-62 -46t-41.5 -78t-15 -111t15.5 -111t42.5 -78t63.5 -46t77.5 -15zM378 710l80 125h98l-106 -125h-72zM272 835h98l-106 -125h-72z" />
    <glyph glyph-name="ohungarumlaut" unicode="&#x151;" horiz-adv-x="538" 
d="M271 477q49 0 90.5 -15t72 -45t48 -74t17.5 -103t-18 -105.5t-49.5 -78.5t-73.5 -48.5t-91 -16.5t-90.5 15.5t-72 46t-48 75t-17.5 102.5q0 59 18 105t49.5 77.5t73.5 48t91 16.5zM270 59q26 0 51 8.5t44 29t30.5 54t11.5 84.5q0 47 -12 80t-31.5 54t-44.5 30.5t-51 9.5
t-51 -8t-44 -28t-30.5 -53.5t-11.5 -84.5q0 -47 12 -80.5t31.5 -54.5t44.5 -31t51 -10zM372 690h99l-106 -134h-68zM137 556l75 134h99l-106 -134h-68z" />
    <glyph glyph-name="OE" unicode="&#x152;" horiz-adv-x="841" 
d="M46 317q0 79 22.5 139t61.5 100.5t92 61.5t114 21q21 0 46 -2t44 -7h368v-76h-278v-189h252v-75h-252v-214h281v-76h-375q-20 -5 -43.5 -7t-42.5 -2q-61 0 -114 19.5t-92 59.5t-61.5 101.5t-22.5 145.5zM340 65q21 0 43.5 5t40.5 14v466q-37 15 -83 15
q-90 0 -142.5 -59.5t-52.5 -186.5q0 -130 51.5 -192t142.5 -62z" />
    <glyph glyph-name="oe" unicode="&#x153;" horiz-adv-x="847" 
d="M808 225h-328v-4q0 -78 40.5 -120t113.5 -42q38 0 65 6t62 20l18 -65q-29 -13 -66 -21t-82 -8q-64 0 -114 23t-79 70q-29 -48 -73.5 -70.5t-103.5 -22.5q-49 0 -89.5 15.5t-70 46t-46 75t-16.5 102.5q0 59 17 105t47 77.5t71.5 48t90.5 16.5q115 0 175 -90q29 45 71 67.5
t104 22.5q45 0 81 -15t60.5 -42t38 -65t13.5 -84v-46zM395 235q0 47 -11 80t-29.5 54t-42.5 30.5t-50 9.5t-50 -8t-42 -28t-28.5 -53.5t-10.5 -84.5q0 -47 11 -80.5t29.5 -54.5t42.5 -31t50 -10t50 8.5t42 29t28.5 54t10.5 84.5zM717 288q0 26 -5.5 48.5t-18.5 39.5t-33 27
t-50 10q-55 0 -87 -35t-40 -92z" />
    <glyph glyph-name="Racute" unicode="&#x154;" horiz-adv-x="537" 
d="M80 0v630h205q49 0 86.5 -14t62.5 -39t38 -59.5t13 -75.5q0 -36 -11 -64.5t-29 -50.5t-41.5 -37.5t-47.5 -25.5l166 -264h-103l-149 247h-103v-247h-87zM167 322h76q31 0 57.5 6.5t46 20t31 35.5t11.5 53q0 61 -33.5 90t-97.5 29h-91v-234zM192 710l80 124h103l-111 -124
h-72z" />
    <glyph glyph-name="racute" unicode="&#x155;" horiz-adv-x="372" 
d="M66 0v470h66l15 -94q17 45 56 73t90 28q26 0 43 -4t31 -10l-17 -77q-12 6 -26.5 10t-34.5 4q-29 0 -53.5 -10t-43 -30t-29 -49.5t-10.5 -67.5v-243h-87zM157 556h-72l70 134h103z" />
    <glyph glyph-name="uni0156" unicode="&#x156;" horiz-adv-x="537" 
d="M80 0v630h205q49 0 86.5 -14t62.5 -39t38 -59.5t13 -75.5q0 -36 -11 -64.5t-29 -50.5t-41.5 -37.5t-47.5 -25.5l166 -264h-103l-149 247h-103v-247h-87zM167 556v-234h76q31 0 57.5 6.5t46 20t31 35.5t11.5 53q0 61 -33.5 90t-97.5 29h-91zM295 -186l-18 4
q-15 3 -32.5 17.5t-17.5 40.5q0 24 15.5 41.5t43.5 17.5q12 0 24 -5t22.5 -15.5t17 -27t6.5 -40.5q0 -23 -8 -46.5t-23 -45.5t-35 -40.5t-44 -31.5l-25 35q28 17 50 43.5t24 52.5z" />
    <glyph glyph-name="uni0157" unicode="&#x157;" horiz-adv-x="372" 
d="M66 0v470h66l15 -94q17 45 56 73t90 28q26 0 43 -4t31 -10l-17 -77q-12 6 -26.5 10t-34.5 4q-29 0 -53.5 -10t-43 -30t-29 -49.5t-10.5 -67.5v-243h-87zM99 -182q-15 3 -32.5 17.5t-17.5 40.5q0 24 15.5 41.5t43.5 17.5q12 0 24 -5t22.5 -15.5t17 -27t6.5 -40.5
q0 -23 -8 -46.5t-23 -45.5t-35 -40.5t-44 -31.5l-25 35q28 17 50 43.5t24 52.5z" />
    <glyph glyph-name="Rcaron" unicode="&#x158;" horiz-adv-x="537" 
d="M80 630h205q49 0 86.5 -14t62.5 -39t38 -59.5t13 -75.5q0 -36 -11 -64.5t-29 -50.5t-41.5 -37.5t-47.5 -25.5l166 -264h-103l-149 247h-103v-247h-87v630zM167 556v-234h76q31 0 57.5 6.5t46 20t31 35.5t11.5 53q0 61 -33.5 90t-97.5 29h-91zM96 845h80l78 -87l79 87h79
l-125 -134h-69z" />
    <glyph glyph-name="rcaron" unicode="&#x159;" horiz-adv-x="372" 
d="M132 470l15 -94q17 45 56 73t90 28q26 0 43 -4t31 -10l-17 -77q-12 6 -26.5 10t-34.5 4q-28 0 -53 -10t-43.5 -30t-29 -49.5t-10.5 -67.5v-243h-87v470h66zM55 690h80l70 -84l70 84h76l-112 -134h-69z" />
    <glyph glyph-name="Sacute" unicode="&#x15a;" horiz-adv-x="505" 
d="M257 639q46 0 89 -7.5t85 -27.5l-22 -76q-43 20 -77.5 28.5t-70.5 8.5q-57 0 -90 -25t-33 -70q0 -38 24.5 -61t80.5 -40l63 -20q86 -27 121.5 -73.5t35.5 -104.5q0 -41 -16.5 -74.5t-46 -57t-69.5 -36t-88 -12.5t-97.5 8.5t-98.5 31.5l22 75q43 -21 84 -31t86 -10
q54 0 92 25t38 74q0 18 -5.5 33.5t-19 29.5t-36.5 26t-58 23l-63 20q-69 22 -106 60t-37 103q0 83 54.5 131.5t158.5 48.5zM244 710h-72l80 124h103z" />
    <glyph glyph-name="sacute" unicode="&#x15b;" horiz-adv-x="407" 
d="M332 382q-33 16 -60 22t-54 6q-48 0 -71 -17.5t-23 -46.5q0 -21 16 -36.5t67 -30.5l30 -9q67 -20 101.5 -51.5t34.5 -85.5q0 -64 -47.5 -103t-132.5 -39q-45 0 -86.5 8t-71.5 22l21 69q29 -14 63 -22.5t69 -8.5q45 0 71.5 16t26.5 53q0 32 -23 45.5t-66 26.5l-31 10
q-65 21 -96.5 52.5t-31.5 81.5q0 30 13 55t35.5 42t53.5 26.5t68 9.5q35 0 72.5 -6.5t71.5 -21.5zM207 556h-72l70 134h103z" />
    <glyph glyph-name="Scircumflex" unicode="&#x15c;" horiz-adv-x="505" 
d="M257 639q46 0 89 -7.5t85 -27.5l-22 -76q-43 20 -77.5 28.5t-70.5 8.5q-57 0 -90 -25t-33 -70q0 -38 24 -61t81 -40l63 -20q86 -27 121.5 -73.5t35.5 -104.5q0 -41 -16.5 -74.5t-46 -57t-69.5 -36t-88 -12.5t-97.5 8.5t-98.5 31.5l22 75q43 -21 84 -31t86 -10q54 0 92 25
t38 74q0 18 -5.5 33.5t-19 29.5t-36.5 26t-58 23l-63 20q-69 22 -106 59.5t-37 103.5q0 85 53.5 132.5t159.5 47.5zM96 710l122 134h69l125 -134h-80l-80 84l-80 -84h-76z" />
    <glyph glyph-name="scircumflex" unicode="&#x15d;" horiz-adv-x="407" 
d="M56 90q29 -14 63 -22.5t69 -8.5q45 0 71.5 16t26.5 53q0 32 -23 45.5t-66 26.5l-31 10q-66 21 -97 52t-31 82q0 30 13 55t35.5 42t53.5 26.5t68 9.5q35 0 72.5 -6.5t71.5 -21.5l-20 -67q-33 16 -60 22t-54 6q-48 0 -71 -17.5t-23 -46.5q0 -21 16 -36.5t67 -30.5l30 -9
q67 -20 101.5 -51.5t34.5 -85.5q0 -64 -47.5 -103t-132.5 -39q-45 0 -86.5 8t-71.5 22zM60 556l115 134h69l112 -134h-76l-70 84l-70 -84h-80z" />
    <glyph glyph-name="Scedilla" unicode="&#x15e;" horiz-adv-x="505" 
d="M257 639q46 0 89 -7.5t85 -27.5l-22 -76q-43 20 -77.5 28.5t-70.5 8.5q-57 0 -90 -25t-33 -70q0 -38 24.5 -61t80.5 -40l63 -20q86 -27 121.5 -73.5t35.5 -104.5q0 -38 -14 -69t-39 -54t-59.5 -37t-76.5 -18l-18 -40q28 -1 47 -8t30 -18.5t16 -25t5 -28.5
q0 -42 -34.5 -64.5t-86.5 -22.5q-23 0 -42.5 3.5t-31.5 8.5l12 42q13 -5 27 -7t28 -2q68 0 68 40q0 10 -3.5 19.5t-14.5 16.5t-30.5 11t-52.5 4l33 69q-45 2 -89.5 10.5t-89.5 29.5l22 75q43 -21 84 -31t86 -10q54 0 92 25t38 74q0 18 -5.5 33.5t-19 29.5t-36.5 26t-58 23
l-63 20q-69 22 -106 60t-37 103q0 83 54.5 131.5t158.5 48.5z" />
    <glyph glyph-name="scedilla" unicode="&#x15f;" horiz-adv-x="407" 
d="M332 382q-33 16 -60 22t-54 6q-48 0 -71 -17.5t-23 -46.5q0 -21 16 -36.5t67 -30.5l30 -9q67 -20 101.5 -51.5t34.5 -85.5q0 -59 -39.5 -96.5t-111.5 -43.5l-21 -40q45 -3 66.5 -22t21.5 -48q0 -21 -9 -36.5t-24.5 -26t-35.5 -15.5t-42 -5q-23 0 -42.5 3.5t-31.5 8.5
l12 42q13 -5 27 -7t28 -2q27 0 42.5 8.5t15.5 27.5q0 20 -20 30.5t-71 10.5l33 70q-39 2 -74.5 9t-61.5 20l21 69q29 -14 63 -22.5t69 -8.5q45 0 71.5 16t26.5 53q0 32 -23 45.5t-66 26.5l-31 10q-65 21 -96.5 52.5t-31.5 81.5q0 30 13 55t35.5 42t53.5 26.5t68 9.5
q35 0 72.5 -6.5t71.5 -21.5z" />
    <glyph glyph-name="Scaron" unicode="&#x160;" horiz-adv-x="505" 
d="M44 459q0 85 53.5 132.5t159.5 47.5q46 0 89 -7.5t85 -27.5l-22 -76q-43 20 -77.5 28.5t-70.5 8.5q-57 0 -90 -25t-33 -70q0 -38 24 -61t81 -40l63 -20q86 -27 121.5 -73.5t35.5 -104.5q0 -41 -16.5 -74.5t-46 -57t-69.5 -36t-88 -12.5t-97.5 8.5t-98.5 31.5l22 75
q43 -21 84 -31t86 -10q54 0 92 25t38 74q0 18 -5.5 33.5t-19 29.5t-36.5 26t-58 23l-63 20q-69 22 -106 59.5t-37 103.5zM181 845l78 -87l79 87h79l-125 -134h-69l-122 134h80z" />
    <glyph glyph-name="scaron" unicode="&#x161;" horiz-adv-x="407" 
d="M56 90q29 -14 63 -22.5t69 -8.5q45 0 71.5 16t26.5 53q0 32 -23 45.5t-66 26.5l-31 10q-66 21 -97 52t-31 82q0 30 13 55t35.5 42t53.5 26.5t68 9.5q35 0 72.5 -6.5t71.5 -21.5l-20 -67q-33 16 -60 22t-54 6q-48 0 -71 -17.5t-23 -46.5q0 -21 16 -36.5t67 -30.5l30 -9
q67 -20 101.5 -51.5t34.5 -85.5q0 -64 -47.5 -103t-132.5 -39q-45 0 -86.5 8t-71.5 22zM62 690h76l70 -84l70 84h80l-115 -134h-69z" />
    <glyph glyph-name="uni0162" unicode="&#x162;" 
d="M10 552v78h482v-78h-197v-552h-92v552h-193zM181 -282q28 17 50 43.5t24 52.5l-18 4q-15 3 -32.5 17.5t-17.5 40.5q0 24 15.5 41.5t43.5 17.5q12 0 24 -5t22.5 -15.5t17 -27t6.5 -40.5q0 -23 -8 -46.5t-23 -45.5t-35 -40.5t-44 -31.5z" />
    <glyph glyph-name="uni0163" unicode="&#x163;" horiz-adv-x="364" 
d="M20 404v66h70v150h87v-150h138v-66h-138v-273q0 -35 17.5 -47t45.5 -12q20 0 44 4.5t42 10.5l14 -67q-20 -8 -51 -14t-65 -6q-70 0 -102 30.5t-32 88.5v285h-70zM134 -282q28 17 50 43.5t24 52.5l-18 4q-15 3 -32.5 17.5t-17.5 40.5q0 24 15.5 41.5t43.5 17.5q12 0 24 -5
t22.5 -15.5t17 -27t6.5 -40.5q0 -23 -8 -46.5t-23 -45.5t-35 -40.5t-44 -31.5z" />
    <glyph glyph-name="Tcaron" unicode="&#x164;" 
d="M492 630v-78h-197v-552h-92v552h-193v78h482zM172 845l80 -84l80 84h80l-125 -134h-69l-122 134h76z" />
    <glyph glyph-name="tcaron" unicode="&#x165;" horiz-adv-x="468" 
d="M20 404v66h70v150h87v-150h138v-66h-138v-273q0 -35 17.5 -47t45.5 -12q20 0 44 4.5t42 10.5l14 -67q-20 -8 -51 -14t-65 -6q-70 0 -102 30.5t-32 88.5v285h-70zM353 524q28 17 50 43.5t24 52.5l-18 4q-15 3 -32.5 17.5t-17.5 40.5q0 24 15.5 41.5t43.5 17.5q12 0 24 -5
t22.5 -15.5t17 -27t6.5 -40.5q0 -22 -8 -46t-23 -45.5t-35 -40.5t-44 -32z" />
    <glyph glyph-name="Tbar" unicode="&#x166;" 
d="M492 630v-78h-197v-192h100v-62h-100v-298h-92v298h-100v62h100v192h-193v78h482z" />
    <glyph glyph-name="tbar" unicode="&#x167;" horiz-adv-x="364" 
d="M90 470v150h87v-150h138v-66h-138v-104h128v-62h-128v-107q0 -35 17.5 -47t45.5 -12q20 0 44 4.5t42 10.5l14 -67q-20 -8 -51 -14t-65 -6q-70 0 -102 30.5t-32 88.5v119h-70v62h70v104h-70v66h70z" />
    <glyph glyph-name="Utilde" unicode="&#x168;" horiz-adv-x="640" 
d="M72 249v381h92v-377q0 -101 37 -144t119 -43q81 0 118.5 48t37.5 127v389h92v-386q0 -129 -66 -191t-182 -62q-117 0 -182.5 61.5t-65.5 196.5zM164 710q0 46 20.5 78t66.5 32q21 0 37.5 -7t31 -15t28.5 -15t30 -7q20 0 28.5 15t10.5 32h50q0 -21 -5 -40.5t-15.5 -35
t-26 -25t-36.5 -9.5t-39.5 6.5t-34.5 15t-30 15t-26 6.5q-21 0 -29.5 -13t-10.5 -33h-50z" />
    <glyph glyph-name="utilde" unicode="&#x169;" horiz-adv-x="539" 
d="M68 470h88v-301q0 -30 7.5 -51t20 -33.5t30 -18t36.5 -5.5q40 0 72 17t61 47v345h88v-470h-69l-12 59h-4q-26 -29 -64.5 -48.5t-89.5 -19.5q-73 0 -118.5 41.5t-45.5 125.5v312zM201 666q21 0 37.5 -7t31 -15t28.5 -15t30 -7q20 0 28.5 15t10.5 32h50q0 -21 -5 -40.5
t-15.5 -35t-26 -25t-36.5 -9.5t-39.5 6.5t-34.5 15t-30 15t-26 6.5q-21 0 -29.5 -13t-10.5 -33h-50q0 46 20.5 78t66.5 32z" />
    <glyph glyph-name="Umacron" unicode="&#x16a;" horiz-adv-x="640" 
d="M72 249v381h92v-377q0 -101 37 -144t119 -43q81 0 118.5 48t37.5 127v389h92v-386q0 -129 -66 -191t-182 -62q-117 0 -182.5 61.5t-65.5 196.5zM442 772v-62h-245v62h245z" />
    <glyph glyph-name="umacron" unicode="&#x16b;" horiz-adv-x="539" 
d="M68 158v312h88v-301q0 -30 7.5 -51t20 -33.5t30 -18t36.5 -5.5q40 0 72 17t61 47v345h88v-470h-69l-12 59h-4q-26 -29 -64.5 -48.5t-89.5 -19.5q-73 0 -118.5 41.5t-45.5 125.5zM148 590v62h245v-62h-245z" />
    <glyph glyph-name="Ubreve" unicode="&#x16c;" horiz-adv-x="640" 
d="M72 249v381h92v-377q0 -101 37 -144t119 -43q81 0 118.5 48t37.5 127v389h92v-386q0 -129 -66 -191t-182 -62q-117 0 -182.5 61.5t-65.5 196.5zM248 834q2 -16 5.5 -29t11.5 -22t21 -14t34 -5q35 0 51.5 18t20.5 52h62q0 -54 -34 -89t-100 -35q-36 0 -61.5 10.5t-42 28
t-24 40t-7.5 45.5h63z" />
    <glyph glyph-name="ubreve" unicode="&#x16d;" horiz-adv-x="539" 
d="M68 158v312h88v-301q0 -30 7.5 -51t20 -33.5t30 -18t36.5 -5.5q40 0 72 17t61 47v345h88v-470h-69l-12 59h-4q-26 -29 -64.5 -48.5t-89.5 -19.5q-73 0 -118.5 41.5t-45.5 125.5zM195 680q2 -16 5.5 -29t11.5 -22t21 -14t34 -5q35 0 51.5 18t20.5 52h62q0 -54 -34 -89
t-100 -35q-36 0 -61.5 10.5t-42 28t-24 40t-7.5 45.5h63z" />
    <glyph glyph-name="Uring" unicode="&#x16e;" horiz-adv-x="640" 
d="M72 630h92v-377q0 -101 37 -144t119 -43q81 0 118.5 48t37.5 127v389h92v-386q0 -129 -66 -191t-182 -62q-117 0 -182.5 61.5t-65.5 196.5v381zM319 843q42 0 69.5 -20.5t27.5 -62.5q0 -21 -8 -36.5t-21.5 -26t-31 -15.5t-36.5 -5q-39 0 -68 21.5t-29 61.5
q0 42 27.5 62.5t69.5 20.5zM319 710q23 0 37.5 13.5t14.5 36.5t-14.5 36.5t-37.5 13.5t-37.5 -13.5t-14.5 -36.5t14.5 -36.5t37.5 -13.5z" />
    <glyph glyph-name="uring" unicode="&#x16f;" horiz-adv-x="539" 
d="M156 470v-301q0 -30 7.5 -51t20 -33.5t30 -18t36.5 -5.5q40 0 72 17t61 47v345h88v-470h-69l-12 59h-4q-26 -29 -64.5 -48.5t-89.5 -19.5q-73 0 -118.5 41.5t-45.5 125.5v312h88zM177 623q0 42 28 62.5t65 20.5q38 0 65.5 -20.5t27.5 -62.5q0 -21 -8 -36.5t-21 -26
t-29.5 -15.5t-34.5 -5q-36 0 -64.5 21.5t-28.5 61.5zM222 623q0 -23 12.5 -36.5t35.5 -13.5t35.5 13.5t12.5 36.5t-12.5 36.5t-35.5 13.5t-35.5 -13.5t-12.5 -36.5z" />
    <glyph glyph-name="Uhungarumlaut" unicode="&#x170;" horiz-adv-x="640" 
d="M72 249v381h92v-377q0 -101 37 -144t119 -43q81 0 118.5 48t37.5 127v389h92v-386q0 -129 -66 -191t-182 -62q-117 0 -182.5 61.5t-65.5 196.5zM451 835h98l-106 -125h-72zM185 710l80 125h98l-106 -125h-72z" />
    <glyph glyph-name="uhungarumlaut" unicode="&#x171;" horiz-adv-x="549" 
d="M68 470h88v-301q0 -30 7.5 -51t20 -33.5t30 -18t36.5 -5.5q40 0 72 17t61 47v345h88v-470h-69l-12 59h-4q-26 -29 -64.5 -48.5t-89.5 -19.5q-73 0 -118.5 41.5t-45.5 125.5v312zM307 556l75 134h99l-106 -134h-68zM147 556l75 134h99l-106 -134h-68z" />
    <glyph glyph-name="Uogonek" unicode="&#x172;" horiz-adv-x="640" 
d="M164 630v-377q0 -101 37 -144t119 -43q81 0 118.5 48t37.5 127v389h92v-386q0 -118 -53.5 -179.5t-153.5 -71.5q-39 -20 -63 -39.5t-24 -48.5q0 -24 15.5 -37.5t39.5 -13.5q26 0 50 8l13 -47q-34 -21 -80 -21t-76.5 24.5t-30.5 72.5q0 35 21.5 61.5t47.5 41.5
q-97 11 -149.5 72t-52.5 183v381h92z" />
    <glyph glyph-name="uogonek" unicode="&#x173;" horiz-adv-x="539" 
d="M156 470v-301q0 -30 7.5 -51t20 -33.5t30 -18t36.5 -5.5q40 0 72 17t61 47v345h88v-470q-32 -21 -51.5 -45t-19.5 -50q0 -24 15.5 -37.5t39.5 -13.5q26 0 50 8l13 -47q-34 -21 -80 -21t-76.5 24.5t-30.5 72.5q0 19 6.5 35.5t17 30t23 24.5t24.5 19l-12 59h-4
q-26 -29 -64.5 -48.5t-89.5 -19.5q-73 0 -118.5 41.5t-45.5 125.5v312h88z" />
    <glyph glyph-name="Wcircumflex" unicode="&#x174;" horiz-adv-x="859" 
d="M8 630h94l107 -371q4 -12 9 -30.5t9.5 -39t8.5 -41.5t6 -38h2q3 18 7.5 38.5t9.5 41t9.5 38.5t8.5 31l110 371h82l114 -371q4 -13 9 -31t9.5 -38t8.5 -41t7 -39h2q3 19 7.5 40t9.5 41.5t9.5 38t7.5 29.5l103 371h93l-185 -630h-93l-96 335q-7 26 -13 47.5t-12 41.5
t-11.5 40.5t-11.5 43.5h-2q-10 -45 -22 -90t-23 -83l-93 -335h-92zM271 710l122 134h69l125 -134h-80l-80 84l-80 -84h-76z" />
    <glyph glyph-name="wcircumflex" unicode="&#x175;" horiz-adv-x="712" 
d="M105 470l80 -296l18 -105h4l22 105l81 296h95l83 -296l21 -105h4l22 105l78 296h90l-143 -470h-100l-80 288l-23 116l-24 -116l-82 -288h-95l-145 470h94zM322 690h69l112 -134h-76l-70 84l-70 -84h-80z" />
    <glyph glyph-name="Ycircumflex" unicode="&#x176;" horiz-adv-x="523" 
d="M111 630l157 -282l158 282h97l-213 -366v-264h-92v264l-208 366h101zM233 844h69l125 -134h-80l-80 84l-80 -84h-76z" />
    <glyph glyph-name="ycircumflex" unicode="&#x177;" horiz-adv-x="461" 
d="M9 470h94l100 -269l34 -112h2l34 112l91 269h90l-181 -510q-30 -85 -75.5 -133t-108.5 -70l-38 70q48 18 84 52t56 94l9 27zM204 690h69l112 -134h-76l-70 84l-70 -84h-80z" />
    <glyph glyph-name="Ydieresis" unicode="&#x178;" horiz-adv-x="523" 
d="M111 630l157 -282l158 282h97l-213 -366v-264h-92v264l-208 366h101zM351 810q20 0 35 -15t15 -34q0 -20 -15 -35.5t-35 -15.5t-35 15.5t-15 35.5q0 19 15 34t35 15zM185 810q20 0 35 -15t15 -34q0 -20 -15 -35.5t-35 -15.5t-35 15.5t-15 35.5q0 19 15 34t35 15z" />
    <glyph glyph-name="Zacute" unicode="&#x179;" horiz-adv-x="511" 
d="M481 630v-55l-346 -501h351v-74h-460v65l340 491h-325v74h440zM274 710h-72l80 124h103z" />
    <glyph glyph-name="zacute" unicode="&#x17a;" horiz-adv-x="411" 
d="M382 419l-249 -353h254v-66h-362v54l249 350h-232v66h340v-51zM225 556h-72l70 134h103z" />
    <glyph glyph-name="Zdotaccent" unicode="&#x17b;" horiz-adv-x="511" 
d="M481 630v-55l-346 -501h351v-74h-460v65l340 491h-325v74h440zM209 767q0 21 17 38t39 17q23 0 39.5 -17t16.5 -38q0 -23 -16.5 -40t-39.5 -17q-22 0 -39 17t-17 40z" />
    <glyph glyph-name="zdotaccent" unicode="&#x17c;" horiz-adv-x="411" 
d="M382 419l-249 -353h254v-66h-362v54l249 350h-232v66h340v-51zM157 624q0 21 16.5 37.5t38.5 16.5q23 0 39 -16.5t16 -37.5q0 -23 -16 -39.5t-39 -16.5q-22 0 -38.5 16.5t-16.5 39.5z" />
    <glyph glyph-name="Zcaron" unicode="&#x17d;" horiz-adv-x="511" 
d="M366 556h-325v74h440v-55l-346 -501h351v-74h-460v65zM106 845h76l80 -84l80 84h80l-125 -134h-69z" />
    <glyph glyph-name="zcaron" unicode="&#x17e;" horiz-adv-x="411" 
d="M274 404h-232v66h340v-51l-249 -353h254v-66h-362v54zM148 690l70 -84l70 84h80l-115 -134h-69l-112 134h76z" />
    <glyph glyph-name="florin" unicode="&#x192;" horiz-adv-x="444" 
d="M-27 -114q25 6 47 17t40 29.5t30.5 46t18.5 67.5l52 359h-69v65h78l11 79q6 41 18.5 77.5t35 64t56.5 43.5t82 16q52 0 96 -22l-23 -63q-15 7 -33 10t-35 3q-51 0 -76 -33.5t-35 -105.5l-9 -69h134v-66h-143l-49 -349q-9 -64 -29.5 -106.5t-48 -69t-59.5 -40t-65 -19.5z
" />
    <glyph glyph-name="AEacute" unicode="&#x1fc;" horiz-adv-x="789" 
d="M326 630h416v-76h-268v-189h242v-75h-242v-214h271v-76h-359v175h-190l-85 -175h-109zM386 245v316l-159 -316h159zM441 834h103l-111 -124h-72z" />
    <glyph glyph-name="aeacute" unicode="&#x1fd;" horiz-adv-x="785" 
d="M749 220h-327v-4q0 -78 40 -117.5t113 -39.5q38 0 67.5 6t64.5 20l18 -65q-29 -13 -68.5 -21t-84.5 -8q-63 0 -112 20t-79 66h-2q-32 -42 -75 -64t-109 -22q-34 0 -63 9.5t-50.5 27t-33.5 42.5t-12 56q0 74 58.5 112.5t154.5 38.5h93v40q0 51 -27.5 69.5t-71.5 18.5
q-26 0 -59.5 -8.5t-76.5 -32.5l-34 64q24 12 45 21.5t42 15.5t43 9t48 3q54 0 88.5 -15t57.5 -53h2q32 38 71.5 53t85.5 15t81.5 -15t60.5 -42.5t38 -66.5t13 -87v-46zM128 129q0 -21 7 -35.5t18.5 -22.5t27 -11.5t32.5 -3.5q42 0 78.5 18t62.5 58q-6 19 -9.5 39.5
t-4.5 45.5l-74 -2q-75 -2 -106.5 -26.5t-31.5 -59.5zM658 280q0 26 -5.5 50t-18.5 42.5t-33 29.5t-50 11q-55 0 -89 -36t-39 -98zM532 690l-101 -134h-72l70 134h103z" />
    <glyph glyph-name="Oslashacute" unicode="&#x1fe;" horiz-adv-x="686" 
d="M324 710h-72l80 124h103zM500 748l40 -14l-50 -127q68 -36 109 -108t41 -184q0 -79 -23 -139.5t-63 -101.5t-94.5 -62t-118.5 -21q-26 0 -52 4t-49 10l-62 -157l-40 17l61 156q-69 37 -111 108.5t-42 185.5q0 79 23 139.5t63 101.5t94.5 62t118.5 21q26 0 53.5 -4
t51.5 -13zM146 315q0 -81 24 -134.5t65 -82.5l181 453q-36 14 -75 14q-41 0 -77 -15t-62 -46t-41 -78t-15 -111zM345 65q41 0 76.5 15t62 46t41.5 78t15 111q0 81 -23.5 134t-62.5 82l-180 -454q33 -12 71 -12z" />
    <glyph glyph-name="oslashacute" unicode="&#x1ff;" horiz-adv-x="538" 
d="M358 568l42 -10l-31 -99q57 -26 93.5 -79t36.5 -140q0 -59 -18 -105.5t-49.5 -78.5t-73.5 -48.5t-91 -16.5q-14 0 -27.5 1.5t-25.5 3.5l-27 -87l-41 11l28 88q-61 26 -98 80t-37 142q0 59 18 105t49.5 77.5t73.5 48t91 16.5q28 0 57 -6zM268 409q-26 0 -51 -8t-44 -28
t-30.5 -53.5t-11.5 -84.5q0 -62 19.5 -100t49.5 -57l102 327q-8 2 -17 3t-17 1zM407 235q0 60 -18.5 96.5t-47.5 55.5l-101 -325q15 -3 30 -3q26 0 51 8.5t44 29t30.5 54t11.5 84.5zM257 556h-72l70 134h103z" />
    <glyph glyph-name="uni0218" unicode="&#x218;" horiz-adv-x="505" 
d="M409 528q-43 20 -77.5 28.5t-70.5 8.5q-57 0 -90 -25t-33 -70q0 -26 9.5 -42.5t30 -29.5t52 -24t76.5 -25q86 -28 121.5 -73.5t35.5 -104.5q0 -41 -16.5 -74.5t-46 -57t-69.5 -36t-88 -12.5t-97.5 8.5t-98.5 31.5l22 75q43 -21 84 -31t86 -10q54 0 92 25t38 74
q0 24 -8 41t-29 31.5t-56 28t-89 31.5q-69 23 -106 60t-37 103q0 83 54.5 131.5t158.5 48.5q46 0 89 -7.5t85 -27.5zM227 -182q-15 3 -32.5 17.5t-17.5 40.5q0 24 15.5 41.5t43.5 17.5q12 0 24 -5t22.5 -15.5t17 -27t6.5 -40.5q0 -23 -8 -46.5t-23 -45.5t-35 -40.5
t-44 -31.5l-25 35q28 17 50 43.5t24 52.5z" />
    <glyph glyph-name="uni0219" unicode="&#x219;" horiz-adv-x="407" 
d="M189 -182q-15 3 -32.5 17.5t-17.5 40.5q0 24 15.5 41.5t43.5 17.5q12 0 24 -5t22.5 -15.5t17 -27t6.5 -40.5q0 -23 -8 -46.5t-23 -45.5t-35 -40.5t-44 -31.5l-25 35q28 17 50 43.5t24 52.5zM332 382q-33 16 -60 22t-54 6q-48 0 -71 -17.5t-23 -46.5q0 -21 16 -36.5
t67 -30.5l30 -9q67 -20 101.5 -51.5t34.5 -85.5q0 -64 -47.5 -103t-132.5 -39q-45 0 -86.5 8t-71.5 22l21 69q29 -14 63 -22.5t69 -8.5q45 0 71.5 16t26.5 53q0 32 -23 45.5t-66 26.5l-31 10q-65 21 -96.5 52.5t-31.5 81.5q0 30 13 55t35.5 42t53.5 26.5t68 9.5
q35 0 72.5 -6.5t71.5 -21.5z" />
    <glyph glyph-name="uni021A" unicode="&#x21a;" 
d="M10 552v78h482v-78h-197v-552h-92v552h-193zM181 -282q28 17 50 43.5t24 52.5l-18 4q-15 3 -32.5 17.5t-17.5 40.5q0 24 15.5 41.5t43.5 17.5q12 0 24 -5t22.5 -15.5t17 -27t6.5 -40.5q0 -23 -8 -46.5t-23 -45.5t-35 -40.5t-44 -31.5z" />
    <glyph glyph-name="uni021B" unicode="&#x21b;" horiz-adv-x="364" 
d="M20 404v66h70v150h87v-150h138v-66h-138v-273q0 -35 17.5 -47t45.5 -12q20 0 44 4.5t42 10.5l14 -67q-20 -8 -51 -14t-65 -6q-70 0 -102 30.5t-32 88.5v285h-70zM134 -282q28 17 50 43.5t24 52.5l-18 4q-15 3 -32.5 17.5t-17.5 40.5q0 24 15.5 41.5t43.5 17.5q12 0 24 -5
t22.5 -15.5t17 -27t6.5 -40.5q0 -23 -8 -46.5t-23 -45.5t-35 -40.5t-44 -31.5z" />
    <glyph glyph-name="circumflex" unicode="&#x2c6;" horiz-adv-x="355" 
d="M27 555l125 165h59l121 -165h-76l-74 117l-78 -117h-77z" />
    <glyph glyph-name="caron" unicode="&#x2c7;" horiz-adv-x="357" 
d="M36 690h76l70 -84l70 84h80l-115 -134h-69z" />
    <glyph glyph-name="uni02C9" unicode="&#x2c9;" horiz-adv-x="286" 
d="M256 660v-57h-225v57h225z" />
    <glyph glyph-name="breve" unicode="&#x2d8;" horiz-adv-x="295" 
d="M15 680h63q2 -16 5.5 -29t11.5 -22t21 -14t34 -5q35 0 51.5 18t20.5 52h62q0 -54 -34 -89t-100 -35q-36 0 -61.5 10.5t-42 28t-24 40t-7.5 45.5z" />
    <glyph glyph-name="dotaccent" unicode="&#x2d9;" horiz-adv-x="171" 
d="M30 633q0 21 16.5 37.5t38.5 16.5q23 0 39 -16.5t16 -37.5q0 -23 -16 -39.5t-39 -16.5q-22 0 -38.5 16.5t-16.5 39.5z" />
    <glyph glyph-name="ring" unicode="&#x2da;" horiz-adv-x="246" 
d="M28 623q0 42 28 62.5t65 20.5q38 0 65.5 -20.5t27.5 -62.5q0 -21 -8 -36.5t-21 -26t-29.5 -15.5t-34.5 -5q-36 0 -64.5 21.5t-28.5 61.5zM73 623q0 -23 12.5 -36.5t35.5 -13.5t35.5 13.5t12.5 36.5t-12.5 36.5t-35.5 13.5t-35.5 -13.5t-12.5 -36.5z" />
    <glyph glyph-name="ogonek" unicode="&#x2db;" horiz-adv-x="250" 
d="M195 0q-45 -22 -73 -43t-28 -52q0 -24 15.5 -37.5t39.5 -13.5q29 0 50 8l13 -47q-35 -21 -80 -21q-46 0 -76.5 25t-30.5 72q0 19 7.5 36t19 31t26 24.5t29.5 17.5h88z" />
    <glyph glyph-name="tilde" unicode="&#x2dc;" horiz-adv-x="399" 
d="M34 596q0 48 17.5 79.5t62.5 31.5q21 0 37.5 -7.5t31.5 -16t29 -16t30 -7.5q33 0 33 50h48q0 -51 -17 -80.5t-59 -29.5q-23 0 -41 7t-33.5 15.5t-28.5 15.5t-25 7q-36 0 -36 -49h-49z" />
    <glyph glyph-name="hungarumlaut" unicode="&#x2dd;" horiz-adv-x="324" 
d="M267 690h99l-106 -134h-68zM107 690h99l-106 -134h-68z" />
    <glyph glyph-name="pi" unicode="&#x3c0;" horiz-adv-x="627" 
d="M10 557v73h596v-73h-93v-433q0 -32 12.5 -46t41.5 -14q6 0 16.5 1t21.5 4l12 -68q-21 -7 -34.5 -8.5t-30.5 -1.5q-61 0 -93.5 31.5t-32.5 89.5v445h-237v-557h-86v557h-93z" />
    <glyph glyph-name="uni0B82" unicode="&#xb82;" horiz-adv-x="263" 
d="M134 780q27 0 50 -9t40.5 -25t27 -39t9.5 -50q0 -30 -11 -52.5t-29.5 -38t-42 -23t-47.5 -7.5t-47 7.5t-41.5 22.5t-29.5 38t-11 53q0 55 36 89t96 34zM130 723q-26 0 -41.5 -18t-15.5 -48q0 -32 17 -48.5t44 -16.5q25 0 41 18t16 47q0 33 -18 49.5t-43 16.5z" />
    <glyph glyph-name="uni0B83" unicode="&#xb83;" horiz-adv-x="541" 
d="M190 502q0 28 20 44t48 16h22q28 0 48.5 -16.5t20.5 -43.5v-30q0 -28 -20.5 -44.5t-48.5 -16.5h-22q-28 0 -48 16.5t-20 44.5v30zM366 63q0 28 20.5 44t48.5 16h21q28 0 48 -16.5t20 -43.5v-30q0 -27 -20.5 -44t-47.5 -17h-21q-26 0 -47.5 17.5t-21.5 43.5v30zM39 107
q19 16 46 16h22q28 0 48.5 -16t20.5 -44v-30q0 -27 -21 -44t-48 -17h-22q-27 0 -47.5 17t-20.5 44v30q0 28 22 44z" />
    <glyph glyph-name="uni0B85" unicode="&#xb85;" horiz-adv-x="1124" 
d="M24 71q0 64 89 64h569q10 47 10 82q0 103 -52.5 160.5t-154.5 57.5q-24 0 -50.5 -7t-49 -21t-39 -34t-20.5 -47q32 80 123 80q61 0 99 -36t38 -97q0 -34 -12.5 -59.5t-33.5 -42t-49 -25t-60 -8.5q-35 0 -64 11.5t-49.5 32t-32 49t-11.5 63.5q0 57 23.5 95.5t61 62
t85.5 33.5t96 10q71 0 129.5 -20t101 -59t66 -95.5t23.5 -129.5q0 -18 -7 -56h56v343h195v-578h-195v178h-76q-96 -180 -448 -180q-24 0 -60 4.5t-76 13t-80 22.5t-72.5 33.5t-52.5 44t-20 55.5zM397 -49q217 0 269 129h-469q-15 0 -21 -2q-9 -3 -9 -17q0 -19 15 -38.5
t44.5 -35.5t72.5 -26t98 -10zM366 266q0 -8 2 -19.5t6 -22.5t11.5 -18.5t17.5 -7.5q34 0 34 67q0 69 -35 69q-11 0 -18 -7.5t-11 -18t-5.5 -22.5t-1.5 -20z" />
    <glyph glyph-name="uni0B86" unicode="&#xb86;" horiz-adv-x="1388" 
d="M24 71q0 64 89 64h569q10 47 10 82q0 103 -52.5 160.5t-154.5 57.5q-24 0 -50.5 -7t-49 -21t-39 -34t-20.5 -47q32 80 123 80q61 0 99 -36t38 -97q0 -34 -12.5 -59.5t-33.5 -42t-49 -25t-60 -8.5q-35 0 -64 11.5t-49.5 32t-32 49t-11.5 63.5q0 57 23.5 95.5t61 62
t85.5 33.5t96 10q71 0 129.5 -20t101 -59t66 -95.5t23.5 -129.5q0 -18 -7 -56h56v343h195v-323q36 24 89 24q81 0 130.5 -44.5t49.5 -123.5q0 -213 -347 -213q-142 0 -195 78q-34 49 -34 95q0 5 3 34l59 1q-1 -7 -1.5 -11.5t-0.5 -7.5l-1 -7q0 -33 12 -57t32.5 -39
t47.5 -22.5t57 -7.5q38 0 73 5t62 20t43 43t16 73q0 52 -7 70q-14 38 -52 38q-22 0 -36 -18v-185h-195v178h-76q-96 -180 -448 -180q-24 0 -60 4.5t-76 13t-80 22.5t-72.5 33.5t-52.5 44t-20 55.5zM397 -49q217 0 269 129h-469q-15 0 -21 -2q-9 -3 -9 -17q0 -19 15 -38.5
t44.5 -35.5t72.5 -26t98 -10zM366 266q0 -8 2 -19.5t6 -22.5t11.5 -18.5t17.5 -7.5q34 0 34 67q0 69 -35 69q-11 0 -18 -7.5t-11 -18t-5.5 -22.5t-1.5 -20z" />
    <glyph glyph-name="uni0B87" unicode="&#xb87;" horiz-adv-x="958" 
d="M259 330q30 86 125 86q61 0 99 -36.5t38 -97.5q0 -65 -46 -101q-42 -34 -109 -34q-71 0 -114.5 42.5t-43.5 114.5q0 102 86 155q71 44 181 44q137 0 218 -64q88 -70 88 -204q0 -63 -20 -115q172 -38 172 -129q0 -135 -287 -135q-114 0 -189 27q-85 -26 -204 -26
q-84 0 -143 25q-80 34 -80 106q0 71 99 110q-69 97 -69 223q0 184 116 292q113 105 299 105q199 0 293 -90t115 -190q19 -93 19 -204v-95h-60q0 125 -5 159q-49 289 -358 289q-148 0 -244 -70q-107 -79 -107 -222q0 -111 55 -179q73 21 174 26q37 2 177 2q35 0 46 -1
q20 72 20 113q0 82 -49 135t-131 53q-56 0 -102 -29q-51 -32 -59 -85zM731 60q-61 -103 -177 -143q27 -2 56 -2q38 0 76 12q45 15 64 39.5t19 39.5q0 39 -38 54zM337 344q-19 0 -29 -27q-7 -20 -7 -42t8 -42q11 -26 29 -26q34 0 34 68q0 69 -35 69zM518 90h-117
q-116 0 -181 -18q61 -59 195 -118q85 38 141 135q-28 1 -38 1zM162 56q-28 -7 -50 -22q-28 -20 -28 -45q0 -82 167 -82q53 0 102 15q-120 54 -191 134z" />
    <glyph glyph-name="uni0B88" unicode="&#xb88;" horiz-adv-x="595" 
d="M32 478h511v-55h-112v-429h-195v429h-149v-429h-55v484zM99 232q0 28 17.5 50.5t44.5 22.5q29 0 46.5 -22t17.5 -51q0 -30 -17.5 -52t-46.5 -22q-28 0 -45 22t-17 52zM449 232q0 29 16.5 51t45.5 22q26 0 46 -23q16 -22 16 -50q0 -30 -17 -52t-45 -22t-45 22t-17 52z" />
    <glyph glyph-name="uni0B89" unicode="&#xb89;" horiz-adv-x="1200" 
d="M94 252v1q0 7 -3 21.5t-3 21.5q0 53 41 88q38 35 92 35q56 0 96.5 -34t40.5 -89q0 -69 -42.5 -107.5t-111.5 -38.5q-71 0 -122 42q-54 45 -54 114q0 105 85 157q70 43 182 43q135 0 208 -34q102 -49 102 -168q0 -109 -52 -160q-43 -41 -131 -51q-28 -3 -170 -4h-24
q-15 -2 -21 -8q-9 -9 -10 -31h982v-56h-1151v57q0 90 123 91l132 1q137 1 137 161q0 145 -178 145q-67 0 -113 -35q-50 -38 -50 -103q0 -35 15 -59zM178 347q-19 0 -29 -27q-8 -20 -8 -42q0 -24 8 -43q10 -26 30 -26q17 0 27 27q6 20 6 42q0 69 -34 69z" />
    <glyph glyph-name="uni0B8A" unicode="&#xb8a;" horiz-adv-x="1280" 
d="M151 142l132 1q137 2 137 161q0 145 -178 145q-31 0 -60.5 -9t-52 -26t-36.5 -43t-14 -60q0 -35 15 -59v1q0 7 -3 21.5t-3 21.5q0 27 11 49.5t29.5 39t42.5 25.5t50 9q28 0 53 -9t43.5 -25t29.5 -39t11 -50q0 -69 -42.5 -107.5t-111.5 -38.5q-34 0 -66 10.5t-56.5 31
t-39 49.5t-14.5 65q0 57 23.5 95.5t61.5 62t85.5 33t96.5 9.5q53 0 108 -6.5t100 -27.5t73.5 -61t28.5 -107q0 -100 -42.5 -149.5t-140.5 -61.5q-14 -2 -56 -2.5t-114 -1.5h-24q-18 -2 -23.5 -12t-7.5 -27h1059v-56h-1228v57q0 90 123 91zM632 266q0 43 11.5 82.5t35 70
t58.5 49t82 18.5q106 0 152 -69v61h288v-55h-43v-336h-141v336h-52v-336h-134v201q0 135 -107 135q-37 0 -75 -39q-36 -36 -37 -109q24 92 99 92q29 0 49 -13.5t33 -34.5t19 -46.5t6 -49.5q0 -30 -7.5 -55.5t-23 -44.5t-39 -30t-55.5 -11q-36 0 -59.5 18t-36.5 45t-18 59.5
t-5 61.5zM702 211q0 -76 33 -76q29 0 29 76t-30 76q-32 0 -32 -76zM141 278q0 -9 2 -20.5t6.5 -22.5t11.5 -18.5t18 -7.5q17 0 27 27q6 20 6 42q0 69 -34 69q-10 0 -17.5 -8t-11.5 -19t-6 -22.5t-2 -19.5z" />
    <glyph glyph-name="uni0B8E" unicode="&#xb8e;" horiz-adv-x="765" 
d="M24 216q0 64 23 113t62.5 82t92.5 50t113 17h433v-55h-73v-429h-196v429h-173q-43 0 -84.5 -13.5t-74.5 -39.5t-53.5 -62.5t-20.5 -83.5q0 -10 0.5 -19.5t1.5 -20.5q5 35 19.5 63t37 48.5t52.5 31.5t64 11q38 0 69.5 -13t54.5 -36.5t35.5 -56t12.5 -71.5
q0 -44 -16.5 -76.5t-44 -54t-64 -32t-77.5 -10.5q-52 0 -88.5 18t-60 49t-34.5 72.5t-11 88.5zM125 147q0 -11 2 -28t7 -32.5t15 -26.5t25 -11t24.5 11t15 27t7.5 32.5t2 27.5t-2 27.5t-7.5 32t-15 26.5t-24.5 11t-25 -11t-15 -26t-7 -31.5t-2 -28.5z" />
    <glyph glyph-name="uni0B8F" unicode="&#xb8f;" horiz-adv-x="768" 
d="M24 216q0 64 23 113t62.5 82t92.5 50t113 17h433v-55h-73v-443l-343 -188v55l147 154v422h-173q-43 0 -84.5 -13.5t-74.5 -39.5t-53.5 -62.5t-20.5 -83.5q0 -10 0.5 -19.5t1.5 -20.5q5 35 19.5 63t37 48.5t52.5 31.5t64 11q38 0 69.5 -13t54.5 -36.5t35.5 -56t12.5 -71.5
q0 -44 -16.5 -76.5t-44 -54t-64 -32t-77.5 -10.5q-52 0 -88.5 18t-60 49t-34.5 72.5t-11 88.5zM125 147q0 -11 2 -28t7 -32.5t15 -26.5t25 -11t24.5 11t15 27t7.5 32.5t2 27.5t-2 27.5t-7.5 32t-15 26.5t-24.5 11t-25 -11t-15 -26t-7 -31.5t-2 -28.5z" />
    <glyph glyph-name="uni0B90" unicode="&#xb90;" horiz-adv-x="870" 
d="M28 305q0 54 22.5 90t58.5 57t81 30t90 9q184 0 238 -69q30 62 151 62q176 0 176 -167q0 -63 -17.5 -105.5t-50.5 -67.5t-79.5 -35.5t-104.5 -10.5h-276q-52 0 -69.5 -27t-17.5 -75q0 -47 7 -62q11 -27 51 -27q75 0 75 65v116h195v-48q-1 -16 -1 -28v-20q0 -52 8 -70
q13 -28 61 -28q45 0 60 16t15 61q0 37 -12.5 50.5t-49.5 13.5v53q23 4 46.5 6t49.5 2q110 0 110 -113q0 -52 -21.5 -81t-55 -42.5t-74.5 -16t-81 -2.5q-27 0 -56.5 1.5t-57 8.5t-52 20.5t-42.5 37.5q-14 -24 -34 -37t-44 -20t-49.5 -8.5t-50.5 -1.5q-35 0 -69.5 6.5
t-61.5 23t-44 44t-17 69.5v27q0 39 14.5 65.5t39 43.5t56.5 24.5t66 7.5h346q25 0 44.5 2.5t33.5 11.5t21.5 26t7.5 45v118q0 64 -56 64q-50 0 -50 -73v-180h-195v169q0 13 -11 38q-30 58 -136 58q-61 0 -101 -33.5t-40 -93.5q0 -46 28 -68q-10 21 -10 51q0 24 9.5 45
t25.5 36t38 23.5t46 8.5q54 0 85.5 -30t31.5 -84q0 -61 -38.5 -93t-101.5 -32q-34 0 -63.5 8.5t-51.5 26t-34 44.5t-12 64zM172 225q26 0 26 54t-27 54q-28 0 -28 -53q0 -55 29 -55z" />
    <glyph glyph-name="uni0B92" unicode="&#xb92;" horiz-adv-x="852" 
d="M84 211q7 70 55 112t117 42q77 0 124.5 -50t47.5 -127q0 -84 -60 -131q-55 -43 -141 -43t-142 64q-53 60 -53 148q0 145 130 213q100 51 261 51q162 0 263 -48q135 -64 135 -209q0 -95 -47 -149q-50 -56 -144 -56q-74 0 -107 23q14 -31 83 -38q19 -2 99 -2v-76h-42
q-22 0 -40 -36q-13 -27 -25 -54q-31 -52 -215 -52q-89 0 -135 27q-58 35 -58 119q0 22 15 43t37 21q16 0 30.5 -8.5t14.5 -23.5q0 -11 -15.5 -26.5t-15.5 -19.5q0 -43 32 -60q22 -11 68 -11q81 0 104 22q23 51 28 58q19 24 56 29q-54 19 -75 57q-18 33 -18 94q0 129 93 174
l30 -49q-59 -24 -59 -81q0 -53 50 -53q60 0 60 123q0 109 -88 161q-70 40 -188 40q-93 0 -172 -44q-94 -52 -94 -137q0 -18 1 -37zM183 277q-27 0 -40 -38q-9 -27 -9 -59q0 -33 9 -60q13 -38 40 -38q26 0 39 37q10 27 10 61q0 32 -10 59q-13 38 -39 38z" />
    <glyph glyph-name="uni0B93" unicode="&#xb93;" horiz-adv-x="854" 
d="M84 211q7 69 55 111.5t117 42.5q77 0 124.5 -50t47.5 -127q0 -84 -60 -131q-55 -43 -141 -43t-142 64q-53 60 -53 148q0 145 130 212q100 52 261 52q162 0 263 -48q135 -64 135 -209q0 -95 -47 -149q-50 -56 -144 -56q-74 0 -107 23q14 -31 83 -38q19 -2 99 -2v-76h-42
q-23 0 -40 -36q-13 -27 -25 -54q-39 -52 -215 -52q-214 0 -214 117q0 111 159 111q56 0 96 -21q50 -25 58 -75q19 33 62 38q-54 19 -75 57q-18 33 -18 94q0 129 93 174l30 -49q-59 -22 -59 -81q0 -53 50 -53q60 0 60 123q0 109 -88 161q-70 40 -188 40q-93 0 -172 -44
q-94 -52 -94 -137q0 -18 1 -37zM183 277q-27 0 -40 -38q-9 -27 -9 -59q0 -33 9 -60q13 -38 40 -38q26 0 39 37q10 27 10 61q0 32 -10 59q-13 38 -39 38zM436 -126q-37 0 -37 30q0 4 2 11.5t2 11.5q0 34 -90 34q-77 0 -77 -56q0 -51 120 -51q98 0 106 26q-14 -6 -26 -6z" />
    <glyph glyph-name="uni0B94" unicode="&#xb94;" horiz-adv-x="1794" 
d="M847 222q0 65 25 115.5t67 85t97 52t116 17.5q171 0 257 -95v87h258q41 0 65 -24t24 -65v-395h-196v429h-93v-429h-196v249q0 177 -179 177q-38 0 -73.5 -16.5t-62.5 -43.5t-43.5 -62.5t-16.5 -73.5q0 -10 0.5 -19.5t1.5 -20.5q5 35 19.5 63t37 48.5t52.5 31.5t64 11
q38 0 69.5 -13t54.5 -36.5t35.5 -56t12.5 -71.5q0 -44 -16.5 -76.5t-44 -54t-64 -32t-77.5 -10.5q-52 0 -88.5 18t-60 49t-34.5 72.5t-11 88.5zM32 226q0 81 36.5 132.5t93.5 80.5t126.5 40t134.5 11q43 0 89 -4t90 -14.5t84 -29t70 -47t47.5 -68.5t17.5 -94q0 -93 -47 -149
t-144 -56q-73 0 -107 23q13 -30 83 -38q10 -1 34.5 -1.5t64.5 -0.5v-76h-42q-22 0 -40 -36q-7 -14 -13 -27t-12 -27q-31 -52 -215 -52q-39 0 -74 5.5t-61.5 21.5t-42 44.5t-15.5 74.5q0 22 15 43t37 21q16 0 30.5 -8.5t14.5 -23.5q0 -6 -5 -13t-10.5 -14t-10.5 -12t-5 -7
q0 -24 8.5 -38t22.5 -21.5t32 -9.5t37 -2q82 0 104 22q11 26 18.5 40t9.5 18q20 25 56 29q-57 20 -75 57t-18 94q0 129 93 174l30 -49q-59 -24 -59 -81q0 -53 50 -53q60 0 60 123q0 60 -24.5 99t-63.5 61.5t-88.5 31.5t-99.5 9q-39 0 -85.5 -10.5t-86.5 -33t-67 -56.5
t-27 -81v-18t1 -19q3 35 17.5 63.5t37.5 48.5t53 31t64 11q39 0 70.5 -13t54 -36.5t35 -56t12.5 -71.5q0 -44 -16 -77t-44 -54.5t-64 -32t-77 -10.5q-45 0 -81 17t-61.5 46.5t-39 68t-13.5 80.5zM948 153q0 -11 2 -28t7 -32.5t15 -26.5t25 -11t24.5 11t15 27t7.5 32.5
t2 27.5t-2 27.5t-7.5 32t-15 26.5t-24.5 11t-25 -11t-15 -26t-7 -31.5t-2 -28.5zM134 180q0 -11 2 -28t7 -32.5t15 -26.5t25 -11t24.5 11t15 26.5t7.5 32.5t2 28t-2 27.5t-7.5 32t-15 26.5t-24.5 11t-25 -11t-15 -26.5t-7 -32t-2 -27.5z" />
    <glyph glyph-name="uni0B95" unicode="&#xb95;" horiz-adv-x="776" 
d="M157 305v173h454v-55h-120v-115q40 0 84 -2.5t80.5 -16t60.5 -43t24 -83.5q0 -173 -196 -173q-79 0 -117 37q-53 -38 -173 -38q-215 0 -215 179q0 26 8.5 49.5t24.5 42t37.5 30.5t47.5 15zM195 70q42 0 71.5 23.5t29.5 65.5v94h-91q-109 0 -109 -85q0 -98 99 -98zM462 65
q18 -12 33 -12q39 0 52 24q10 16 10 57v49q0 21 -2.5 34.5t-9.5 21.5t-20 11t-34 3v-50q0 -95 -29 -138zM296 308v115h-84v-115h84z" />
    <glyph glyph-name="uni0B99" unicode="&#xb99;" horiz-adv-x="899" 
d="M32 478h483v-55h-149v-121q27 12 97 12q159 0 159 -156q0 -76 -33 -108h80v428h196v-484h-694v56h219q50 0 50 83v84q0 36 -37 36t-37 -38v-127h-195v335h-84v-429h-55v484z" />
    <glyph glyph-name="uni0B9A" unicode="&#xb9a;" horiz-adv-x="660" 
d="M157 305v173h454v-55h-120v-115h117v-55h-117v-71q0 -193 -237 -193q-215 0 -215 179q0 26 8.5 49.5t24.5 42t37.5 30.5t47.5 15zM96 168q0 -98 99 -98q42 0 71.5 23.5t29.5 65.5v94h-91q-109 0 -109 -85zM212 308h84v115h-84v-115z" />
    <glyph glyph-name="uni0B9C" unicode="&#xb9c;" horiz-adv-x="870" 
d="M103 237q-10 23 -10 51q0 48 35.5 80.5t83.5 32.5q54 0 85.5 -30t31.5 -84q0 -61 -38.5 -93t-101.5 -32q-73 0 -115 35q-46 37 -46 108q0 99 81 147q66 39 171 39q184 0 238 -69q30 62 151 62q176 0 176 -167q0 -120 -68 -173q-60 -46 -184 -46h-276q-51 0 -70 -27
q-17 -22 -17 -75q0 -48 5 -62q10 -28 48 -28q78 0 78 46q0 130 250 130q98 0 146 -14q87 -25 87 -97q0 -129 -201 -129q-164 0 -164 111q0 37 15 59q-69 -10 -69 -61q0 -109 -198 -109q-82 0 -131 30q-61 37 -61 113v27q0 73 54 109q47 32 122 32h346q55 0 77 13
q30 19 30 72v118q0 64 -56 64q-50 0 -50 -73v-180h-195v169q0 14 -11 38q-29 58 -136 58q-61 0 -101 -34t-40 -93q0 -46 28 -68zM599 10q-24 0 -41 -17.5t-17 -41.5t17 -41.5t41 -17.5q25 0 42 17t17 42q0 24 -17 41.5t-42 17.5zM171 333q-28 0 -28 -53q0 -55 29 -55
q26 0 26 54t-27 54z" />
    <glyph glyph-name="uni0B9E" unicode="&#xb9e;" horiz-adv-x="1136" 
d="M34 196q0 45 10 87t30 79.5t50 68t71 51.5v-70q-105 -58 -105 -217q0 -341 473 -341q274 0 325 112q22 48 22 129q0 51 -3 66q-9 43 -40 43q-19 0 -33 -21v-189h-196v429h-173q-43 0 -84.5 -13.5t-74.5 -39.5t-53.5 -62.5t-20.5 -83.5v-19.5t1 -20.5q5 34 20 62.5
t38 48.5t52.5 31.5t62.5 11.5q38 0 69.5 -13t54.5 -36.5t35.5 -56t12.5 -71.5q0 -44 -16 -76.5t-43.5 -54t-64 -32t-77.5 -10.5q-52 0 -88.5 18t-60 49t-34.5 72.5t-11 88.5q0 63 23 112t63 82.5t92.5 50.5t112.5 17h457v-55h-97v-167q38 32 106 32q164 0 164 -168
q0 -73 -23.5 -125.5t-63 -88t-92 -57t-110.5 -33t-119 -15t-117 -3.5q-545 0 -545 398zM383 32q36 0 60.5 24.5t24.5 59.5q0 36 -24.5 60.5t-60.5 24.5q-35 0 -59.5 -24.5t-24.5 -60.5q0 -35 24.5 -59.5t59.5 -24.5z" />
    <glyph glyph-name="uni0B9F" unicode="&#xb9f;" horiz-adv-x="741" 
d="M33 -6v484h195v-428h483v-56h-678z" />
    <glyph glyph-name="uni0BA3" unicode="&#xba3;" horiz-adv-x="1492" 
d="M24 216q0 71 32.5 121.5t83.5 83t114 47.5t124 15q136 0 223 -33q78 33 172 33q110 0 197 -33q66 28 168 28h324v-55h-73v-429h-195v429h-56q-52 0 -96 -9q54 -32 81.5 -87.5t27.5 -117.5q0 -43 -10.5 -82.5t-32.5 -70.5t-56 -49.5t-82 -18.5q-183 0 -183 225
q0 20 6.5 44.5t17 49t25 45.5t30.5 33q-49 39 -121 39q-45 0 -76 -7q112 -63 112 -208q0 -43 -10 -82.5t-32 -70.5t-56 -49.5t-82 -18.5q-164 0 -181 183q0 -46 -15 -80.5t-42 -57.5t-64 -34t-81 -11q-52 0 -89 18t-60.5 48.5t-34 72t-10.5 89.5zM76 180q9 75 53 116.5
t119 41.5q71 0 117 -43t54 -112q-1 8 -1 15v15q0 20 6.5 44.5t17.5 49t25.5 45.5t30.5 33q-52 40 -176 40q-42 0 -86 -14.5t-80.5 -41.5t-59.5 -64.5t-23 -83.5q0 -21 3 -41zM470 210q0 -139 64 -139q17 0 27 16.5t16 38.5t8 44.5t2 34.5q0 100 -50 147q-14 -12 -26 -28.5
t-21 -35.5t-14.5 -39.5t-5.5 -38.5zM839 210q0 -139 64 -139q17 0 27 16.5t16 38.5t8 44.5t2 34.5q0 100 -50 147q-14 -12 -26 -28.5t-21 -36t-14.5 -39.5t-5.5 -38zM125 147q0 -11 2 -28t7 -32.5t15 -26.5t25 -11t24.5 11t15 27t7.5 32.5t2 27.5t-2 27.5t-7.5 32t-15 26.5
t-24.5 11t-25 -11t-15 -26t-7 -31.5t-2 -28.5z" />
    <glyph glyph-name="uni0BA4" unicode="&#xba4;" horiz-adv-x="782" 
d="M39 168q0 26 8.5 49.5t24.5 42t37.5 30.5t47.5 15v173h483v-55h-149v-115q48 0 93.5 -3t81 -19t57 -50t21.5 -95q0 -76 -34 -120t-86.5 -66.5t-115.5 -28.5t-121 -6h-60q-60 0 -69 -10q-10 -10 -11 -43q-2 -24 -12.5 -38t-26 -20.5t-34.5 -8.5t-40 -2q-54 0 -74 20.5
t-20 72.5q0 79 94 79h277q28 0 55 8.5t48.5 24.5t34.5 39.5t13 53.5v96q0 59 -71 61v-71q0 -193 -237 -193q-215 0 -215 179zM96 168q0 -98 99 -98q42 0 71.5 23.5t29.5 65.5v94h-91q-109 0 -109 -85zM212 423v-115h84v115h-84z" />
    <glyph glyph-name="uni0BA8" unicode="&#xba8;" horiz-adv-x="651" 
d="M11 -109q0 79 93 79h185q151 0 151 126v113q0 24 -7 34.5t-35 10.5q-32 0 -32 -39v-221h-195v429h-84v-429h-55v484h499v-55h-165v-121q24 11 62 11q48 0 84.5 -7.5t60.5 -27t36.5 -52.5t12.5 -85q0 -50 -16 -86t-43 -60.5t-63 -39.5t-76 -23t-81.5 -10.5t-80.5 -2.5
t-43 -31q-8 -51 -13 -58q-23 -32 -102 -32q-54 0 -73.5 20.5t-19.5 72.5z" />
    <glyph glyph-name="uni0BA9" unicode="&#xba9;" horiz-adv-x="1116" 
d="M24 216q0 71 32.5 121.5t83.5 83t114 47.5t124 15q136 0 223 -33q40 17 82 23t85 6l325 -1v-55h-74v-429h-195v429h-56q-52 0 -96 -9q109 -67 109 -205q0 -43 -10 -82.5t-31.5 -70.5t-56 -49.5t-82.5 -18.5q-164 0 -181 183q0 -46 -15 -80.5t-42 -57.5t-64 -34t-81 -11
q-52 0 -89 18t-60 49t-34 72.5t-11 88.5zM76 180q9 75 53 116.5t119 41.5q71 0 117 -43t54 -112q-1 8 -1 15v15q0 20 6.5 44.5t17.5 49t25.5 45.5t30.5 33q-55 40 -187 40q-42 0 -84 -15.5t-76 -43.5t-55.5 -66t-21.5 -82q0 -10 0.5 -19t1.5 -19zM470 207q0 -136 64 -136
q17 0 27 16.5t16 38.5t8 44.5t2 34.5q0 100 -50 147q-14 -12 -26 -29t-21 -36.5t-14.5 -40.5t-5.5 -39zM125 147q0 -11 2 -28t7 -32.5t15 -26.5t25 -11t24.5 11t15 27t7.5 32.5t2 27.5t-2 27.5t-7.5 32t-15 26.5t-24.5 11t-25 -11t-15 -26t-7 -31.5t-2 -28.5z" />
    <glyph glyph-name="uni0BAA" unicode="&#xbaa;" horiz-adv-x="716" 
d="M236 478v-428h239v428h196v-484h-630v484h195z" />
    <glyph glyph-name="uni0BAE" unicode="&#xbae;" horiz-adv-x="759" 
d="M33 478h195v-428h95v315q0 36 16 60t41 37.5t56 19t61 5.5q54 0 97 -19t74 -52.5t47.5 -79t16.5 -97.5q0 -48 -13.5 -92t-39.5 -78t-65.5 -54.5t-91.5 -20.5h-489v484zM531 50q38 0 65 17.5t45 45t26.5 61.5t8.5 66q0 26 -7 55t-22 53.5t-37 41t-52 16.5q-40 0 -40 -51
v-305h13z" />
    <glyph glyph-name="uni0BAF" unicode="&#xbaf;" horiz-adv-x="837" 
d="M32 93v385h65v-377q0 -25 3 -33q6 -13 28 -13q32 0 104 129v294h195v-428h170v428h195v-484h-560v78q-16 -20 -27.5 -34t-19.5 -21q-31 -28 -66 -28q-87 0 -87 104z" />
    <glyph glyph-name="uni0BB0" unicode="&#xbb0;" horiz-adv-x="505" 
d="M27 -208v55l148 154v422h-84v-429h-55v484h434v-55h-100v-443z" />
    <glyph glyph-name="uni0BB1" unicode="&#xbb1;" horiz-adv-x="709" 
d="M14 -109q0 79 94 79h238q38 0 66.5 12.5t47 35t28 52.5t9.5 66v179q0 81 -65 81q-16 0 -27 -11.5t-17.5 -27.5t-9 -34t-2.5 -30v-299h-189v331q0 71 -48 71q-52 0 -52 -82v-320h-55v316q0 81 42.5 126.5t123.5 45.5q55 0 90.5 -17t67.5 -60q36 77 126 77q51 0 87.5 -20.5
t60.5 -53.5t35.5 -76t11.5 -88v-30q0 -134 -73 -214q-25 -29 -49 -45.5t-49.5 -24.5t-55 -10t-66.5 -2h-23t-29 1q-17 1 -30.5 1h-21.5q-18 0 -28.5 -1.5t-17 -7t-9 -15.5t-4.5 -28q-2 -24 -12 -38t-25.5 -21t-35 -9t-40.5 -2q-54 0 -74 20.5t-20 72.5z" />
    <glyph glyph-name="uni0BB2" unicode="&#xbb2;" horiz-adv-x="886" 
d="M76 178q10 74 54 117t118 43q76 0 124 -50t48 -127q0 -84 -61 -131q-55 -42 -141 -42q-99 0 -149 67q-45 59 -45 161q0 127 86 198q80 66 210 66q140 0 221 -51q99 -63 99 -195q0 -9 -1 -29v-29q0 -52 4 -65q10 -33 49 -33q63 0 94 59q24 46 24 116q0 37 -11 78
q-14 50 -36 69q-4 3 -69 28q-48 19 -48 46q0 21 7.5 27t28.5 6q35 0 83 -41q44 -38 68.5 -96t24.5 -118q0 -264 -231 -264q-74 0 -115 36q-57 51 -66 161q-11 137 -23 163q-34 74 -161 74q-75 0 -132 -60.5t-57 -135.5q0 -28 3 -48zM174 244q-27 0 -40 -37q-9 -27 -9 -60
q0 -32 9 -60q14 -38 40 -38t39 38q10 27 10 60t-10 60q-13 37 -39 37z" />
    <glyph glyph-name="uni0BB3" unicode="&#xbb3;" horiz-adv-x="1034" 
d="M24 216q0 65 25 115.5t67 85t97 52t116 17.5q171 0 257 -95v87h420v-55h-73v-429h-196v429h-93v-429h-196v249q0 177 -179 177q-38 0 -73.5 -16.5t-62.5 -43.5t-43.5 -62.5t-16.5 -73.5q0 -10 0.5 -19.5t1.5 -20.5q5 35 19.5 63t37 48.5t52.5 31.5t64 11q38 0 69.5 -13
t54.5 -36.5t35.5 -56t12.5 -71.5q0 -44 -16.5 -76.5t-44 -54t-64 -32t-77.5 -10.5q-52 0 -88.5 18t-60 49t-34.5 72.5t-11 88.5zM125 147q0 -11 2 -28t7 -32.5t15 -26.5t25 -11t24.5 11t15 27t7.5 32.5t2 27.5t-2 27.5t-7.5 32t-15 26.5t-24.5 11t-25 -11t-15 -26t-7 -31.5
t-2 -28.5z" />
    <glyph glyph-name="uni0BB4" unicode="&#xbb4;" horiz-adv-x="759" 
d="M114 -16q44 0 59 -4q35 -9 35 -38q0 -28 -36 -28q-10 0 -26.5 8.5t-26.5 8.5q-35 0 -35 -27q0 -51 93 -51q58 0 92 20l24 20l24 20q30 24 73 28q-50 19 -61 53h-296v485l195 -1v-428h95v315q0 36 16 60t41 37.5t56 19t61 5.5q54 0 97 -19t74 -52.5t47.5 -79t16.5 -97.5
q0 -50 -13 -94.5t-40 -77.5t-67 -52.5t-94 -20.5v-2q0 -29 76 -29h87v-58h-106q-49 0 -84 -32q-25 -23 -42.5 -37t-28.5 -19q-39 -19 -193 -19q-30 0 -64.5 2t-64.5 12.5t-50 33t-20 62.5q0 37 24.5 56.5t61.5 19.5zM531 50q38 0 65 17.5t45 45t26.5 61.5t8.5 66q0 26 -7 55
t-22 53.5t-37 41t-52 16.5q-40 0 -40 -51v-305h13z" />
    <glyph glyph-name="uni0BB5" unicode="&#xbb5;" horiz-adv-x="954" 
d="M76 178q26 160 172 160q76 0 124 -50t48 -127q0 -84 -61 -131q-55 -42 -141 -42q-98 0 -149 67q-45 60 -45 161q0 124 92 200q86 70 213 70q340 0 340 -261q0 -116 -64 -175h108v428h195v-484h-503v56q48 0 64 69q7 33 7 107q0 90 -58 142t-149 52q-76 0 -136 -59.5
t-60 -134.5q0 -25 3 -48zM174 244q-27 0 -40 -37q-9 -27 -9 -60q0 -32 9 -60q14 -38 40 -38t39 38q10 27 10 60t-10 60q-13 37 -39 37z" />
    <glyph glyph-name="uni0BB6" unicode="&#xbb6;" horiz-adv-x="948" 
d="M769 146q0 12 -2 28.5t-7 31.5t-15 26t-25 11t-24.5 -11t-15 -26.5t-7.5 -32t-2 -27.5t2 -27.5t7.5 -32.5t15 -27t24.5 -11t25 11t15 26.5t7 32.5t2 28zM869 479v-264q0 -47 -10.5 -88.5t-34 -72.5t-60 -49t-88.5 -18q-40 0 -77 10.5t-64.5 32t-44 54t-16.5 76.5
q0 39 12.5 71.5t35.5 56t54.5 36.5t69.5 13q75 0 118.5 -42.5t53.5 -117.5q3 20 3 48q0 38 -15 73t-41 62.5t-60.5 44t-72.5 16.5q-64 0 -113 -17.5t-66 -54.5q-3 -6 -3.5 -29t0.5 -54.5t2 -68.5t1 -71q0 -44 -11.5 -71t-35 -42t-58 -20.5t-81.5 -5.5q-231 0 -231 264
q0 60 24 118t69 96q49 41 83 41q21 0 28.5 -6t7.5 -27q0 -26 -48 -46q-32 -13 -50 -20.5t-26 -14.5q-10 -8 -17.5 -25t-12.5 -37.5t-7.5 -41t-2.5 -36.5q0 -28 5.5 -59t19 -57t36 -42.5t57.5 -16.5q13 0 26 4.5t23.5 11.5t18 16t10.5 17q1 2 1 23v52.5v70.5t-0.5 77.5
t-0.5 72.5v57h589z" />
    <glyph glyph-name="uni0BB7" unicode="&#xbb7;" horiz-adv-x="1215" 
d="M24 216q0 65 25 115.5t67 85t97 52t116 17.5q340 0 340 -261q0 -117 -64 -175h221q-102 75 -102 211q0 52 15.5 94t44 72t69.5 46t92 16q88 0 138.5 -52t50.5 -140v-247h50v-56h-50v-196h-195v196h-534v56q48 0 64 69q7 31 7 107q0 45 -15.5 81t-43 61t-65.5 38.5
t-83 13.5q-38 0 -73.5 -16t-62.5 -43t-43.5 -62t-16.5 -73q0 -25 3 -48q25 160 172 160q38 0 69.5 -13t54.5 -36.5t35.5 -56t12.5 -71.5q0 -44 -16.5 -76.5t-44 -54t-64 -32t-77.5 -10.5q-52 0 -88.5 18t-60 49t-34.5 72.5t-11 88.5zM780 258q0 -131 104 -188
q14 -8 26.5 -13t28.5 -7v272q0 84 -56 84q-27 0 -46 -15t-32 -37t-19 -48t-6 -48zM125 147q0 -11 2 -28t7 -32.5t15 -26.5t25 -11t24.5 11t15 27t7.5 32.5t2 27.5t-2 27.5t-7.5 32t-15 26.5t-24.5 11t-25 -11t-15 -26t-7 -31.5t-2 -28.5z" />
    <glyph glyph-name="uni0BB8" unicode="&#xbb8;" horiz-adv-x="1211" 
d="M77 181q11 72 55 114.5t116 42.5q76 0 124 -50t48 -127q0 -84 -61 -131q-55 -42 -141 -42q-99 0 -149 67q-45 59 -45 161q0 125 92 200q86 70 213 70q196 0 273 -106q12 47 61 75q43 25 95 25q188 0 188 -171v-122q0 -60 3 -71q9 -38 49 -38q64 0 94 59q24 47 24 117
q0 115 -62 158q-102 22 -102 62q0 33 36 33q34 0 83 -41q44 -37 68.5 -95t24.5 -117q0 -266 -226 -266q-120 0 -157 74q-24 48 -24 181q0 68 -5 89q-12 51 -58 51q-50 0 -50 -75v-314h-196v249q0 177 -179 177q-75 0 -135.5 -60t-60.5 -135q0 -23 4 -44zM174 244
q-27 0 -40 -37q-9 -27 -9 -60q0 -32 9 -60q14 -38 40 -38t39 38q10 27 10 60t-10 60q-13 37 -39 37z" />
    <glyph glyph-name="uni0BB9" unicode="&#xbb9;" horiz-adv-x="1393" 
d="M36 216q0 66 25 116.5t67 84.5t97.5 51.5t116.5 17.5q66 0 127 -12t108 -42t75 -80t28 -127q0 -115 -62 -175h107v260q0 81 43.5 126.5t122.5 45.5q55 0 90 -17t68 -60q35 77 127 77q50 0 86.5 -20.5t60.5 -53.5t35.5 -76t11.5 -88v-30q0 -65 -17.5 -119t-52.5 -93
t-86 -61t-119 -22h-796q-39 0 -45 -31q-9 -51 -14 -58q-23 -32 -101 -32q-51 0 -72 21t-21 72q0 79 93 79h899q77 0 114 46.5t37 119.5v179q0 81 -64 81q-16 0 -26.5 -11.5t-17.5 -27.5t-10 -34t-3 -30v-299h-187v331q0 71 -49 71q-52 0 -52 -82v-320h-363v56q48 0 63 69
q8 35 8 107q0 44 -14.5 79.5t-41 60.5t-63 39t-80.5 14q-42 0 -78 -15t-63 -42t-42 -63t-15 -78v-16q16 61 60.5 97t107.5 36q39 0 70.5 -13t54 -36.5t35 -56t12.5 -71.5q0 -45 -16 -77.5t-43.5 -53.5t-64 -31.5t-77.5 -10.5q-52 0 -89 18t-60.5 48.5t-34 72t-10.5 89.5z
M152 116q0 -36 24 -60t60 -24q37 0 61 24t24 60q0 37 -24 61t-61 24q-36 0 -60 -24t-24 -61z" />
    <glyph glyph-name="uni0BBE" unicode="&#xbbe;" horiz-adv-x="492" 
d="M32 478h434v-55h-100v-429h-195v429h-84v-429h-55v484z" />
    <glyph glyph-name="uni0BBF" unicode="&#xbbf;" horiz-adv-x="709" 
d="M60 327v164q0 45 -33 61q-21 10 -72 10h-82q-69 0 -69 -44q0 -26 35 -43l-67 -18q-26 24 -34 56q-4 18 -4 66q0 70 48 106q43 33 114 33h72q62 0 102 -32q43 -35 43 -95v-264h-53z" />
    <glyph glyph-name="uni0BC0" unicode="&#xbc0;" horiz-adv-x="2" 
d="M-219 574q-50 -2 -50 -50q0 -51 74 -51v-45q-60 0 -99 27q-45 30 -45 88v36q0 70 48 106q43 33 114 33h65q53 0 90.5 -29t37.5 -81q0 -121 -139 -121q-102 0 -97 84q0 1 1 3zM-125 582q-43 0 -43 -24q0 -25 43 -25t43 25q0 24 -43 24z" />
    <glyph glyph-name="uni0BC1" unicode="&#xbc1;" horiz-adv-x="303" 
d="M-76 461v61h205q41 0 71 -15v15h90v-60h-42q12 -21 12 -48q0 -106 -138 -106q-30 0 -55.5 4t-44 16t-29 33.5t-10.5 56.5q0 27 6 43h-65zM37 421q0 -43 44 -43q42 0 42 43t-42 43q-44 0 -44 -43z" />
    <glyph glyph-name="uni0BC2" unicode="&#xbc2;" horiz-adv-x="394" 
d="M142 522q40 0 71 -15v15h27q66 0 103.5 -37.5t37.5 -104.5q0 -54 -16.5 -88.5t-46 -54t-70 -26.5t-87.5 -7h-51v59q110 0 138 9q67 22 67 106q0 71 -50 82q9 -18 9 -46q0 -106 -139 -106q-30 0 -55.5 4.5t-44 16.5t-29 33.5t-10.5 55.5q0 28 7 43h-65v61h204zM51 421
q0 -43 43 -43t43 43t-43 43t-43 -43z" />
    <glyph glyph-name="uni0BC6" unicode="&#xbc6;" horiz-adv-x="702" 
d="M135 104q-11 31 -11 73q0 69 48 116t118 47q73 0 118 -45.5t45 -118.5q0 -89 -47.5 -138.5t-135.5 -49.5q-131 0 -190 107q-47 85 -47 227q0 155 87 250q90 99 244 99q161 0 240 -98q72 -89 72 -253v-326h-196v303q0 82 -6 130q-8 54 -51 108.5t-134 54.5q-98 0 -156 -91
q-49 -79 -49 -183q0 -138 51 -212zM230 259q-26 0 -41 -35q-11 -28 -11 -59q0 -33 10 -62q15 -39 42 -39q26 0 39 38q10 27 10 59q0 33 -10 60q-13 38 -39 38z" />
    <glyph glyph-name="uni0BC7" unicode="&#xbc7;" horiz-adv-x="649" 
d="M357 -17q-168 0 -255 89t-87 257q0 169 87 257.5t255 88.5q256 0 256 -182q0 -71 -42.5 -114t-113.5 -43t-115 44t-44 116q0 82 45 122q-80 -7 -111 -76q-22 -49 -22 -140v-146q0 -93 22 -140q30 -69 111 -76q-45 39 -45 121q0 70 45 115.5t114 45.5q72 0 114 -43
t42 -115q0 -181 -256 -181zM406 586q-23 0 -36 -34q-9 -25 -9 -53q0 -30 9 -54q12 -33 36 -33q44 0 44 87q0 29 -9 53q-11 34 -35 34zM406 244q-23 0 -35 -34q-10 -25 -10 -52q0 -31 9 -55q12 -33 36 -33q44 0 44 88q0 86 -44 86z" />
    <glyph glyph-name="uni0BC8" unicode="&#xbc8;" horiz-adv-x="1150" 
d="M24 216q0 74 31.5 125t82 82.5t114 45.5t126.5 14q133 0 220 -32q75 33 142 33q70 0 137.5 -10t121 -38.5t86.5 -81t33 -137.5q0 -44 -15 -85.5t-42.5 -73.5t-65.5 -51.5t-85 -19.5q-75 0 -116 34l1 27q14 -1 22 -3q4 -1 7 -1q98 0 98 178q0 96 -52.5 147.5t-149.5 51.5
q-36 0 -52 -4q113 -68 113 -208q0 -43 -10 -82.5t-32 -70.5t-56 -49.5t-82 -18.5q-164 0 -181 183q0 -46 -15 -80.5t-42 -57.5t-64 -34t-81 -11q-52 0 -89 18t-60.5 48.5t-34 72t-10.5 89.5zM76 179q9 73 54 116t118 43q71 0 117 -43t54 -112q-1 8 -1 15v15q0 20 6.5 44.5
t17.5 49t25.5 45.5t30.5 33q-52 40 -176 40q-43 0 -87.5 -13.5t-80.5 -39t-58.5 -63.5t-22.5 -86q0 -21 3 -44zM534 71q17 0 27 16.5t16 38.5t8 44.5t2 34.5q0 100 -50 147q-14 -12 -26 -28.5t-21 -35.5t-14.5 -39.5t-5.5 -38.5q0 -139 64 -139zM125 147q0 -11 2 -28
t7 -32.5t15 -26.5t25 -11t24.5 11t15 27t7.5 32.5t2 27.5t-2 27.5t-7.5 32t-15 26.5t-24.5 11t-25 -11t-15 -26t-7 -31.5t-2 -28.5z" />
    <glyph glyph-name="uni0BCA" unicode="&#xbca;" horiz-adv-x="1998" 
d="M33 322q0 76 22.5 140t65 110.5t104 72.5t139.5 26q84 0 143 -25.5t96.5 -72t55 -111t17.5 -142.5v-326h-196v303q0 82 -6 130q-7 53 -51 109q-43 54 -134 54q-54 0 -92.5 -25.5t-63.5 -65.5t-37 -88.5t-12 -94.5q0 -138 51 -212q-11 33 -11 73q0 35 13 65t35.5 52
t52.5 34t65 12q36 0 66 -12t51.5 -33.5t33.5 -52t12 -66.5q0 -90 -47.5 -139t-135.5 -49q-72 0 -118 30t-72.5 78t-36.5 107.5t-10 118.5zM1535 478h434v-55h-100v-429h-195v429h-84v-429h-55v484zM178 165q0 -12 2 -29t8 -33t16 -27.5t26 -11.5q15 0 24.5 11t15 26.5
t7.5 32t2 27.5t-2 27.5t-7.5 32.5t-15 27t-24.5 11q-26 0 -41 -35q-11 -30 -11 -59z" />
    <glyph glyph-name="uni0BCB" unicode="&#xbcb;" horiz-adv-x="2000" 
d="M15 329q0 170 86.5 258t255.5 88q256 0 256 -182q0 -72 -42 -114.5t-114 -42.5q-36 0 -65 11.5t-50 32.5t-32.5 50.5t-11.5 65.5q0 82 45 122q-44 -4 -70.5 -24.5t-40.5 -51t-18 -67.5t-4 -73v-146q0 -36 4 -73t18 -67.5t40 -51t71 -24.5q-45 39 -45 121q0 35 12 64.5
t33 51t50.5 33.5t63.5 12q72 0 114 -43t42 -115q0 -181 -256 -181q-169 0 -255.5 88.5t-86.5 257.5zM1535 478h434v-55h-100v-429h-195v429h-84v-429h-55v484zM361 158q0 -10 2 -25.5t7 -29t13.5 -23.5t22.5 -10q44 0 44 88q0 86 -44 86q-23 0 -35 -34q-10 -24 -10 -52z
M361 499q0 -10 2 -25t7 -28.5t13.5 -23.5t22.5 -10q44 0 44 87q0 29 -9 53q-10 34 -35 34q-13 0 -21.5 -10t-14 -23.5t-7.5 -28.5t-2 -25z" />
    <glyph glyph-name="uni0BCC" unicode="&#xbcc;" horiz-adv-x="2293" 
d="M1358 210q0 65 25 115.5t67 85t97 52t116 17.5q171 0 257 -95v87h258q41 0 65 -24t24 -65v-395h-196v429h-93v-429h-196v249q0 177 -179 177q-38 0 -73.5 -16.5t-62.5 -43.5t-43.5 -62.5t-16.5 -73.5q0 -10 0.5 -19.5t1.5 -20.5q5 35 19.5 63t37 48.5t52.5 31.5t64 11
q38 0 69.5 -13t54.5 -36.5t35.5 -56t12.5 -71.5q0 -44 -16.5 -76.5t-44 -54t-64 -32t-77.5 -10.5q-52 0 -88.5 18t-60 49t-34.5 72.5t-11 88.5zM33 322q0 76 22.5 140t65 110.5t104 72.5t139.5 26q84 0 143 -25.5t96.5 -72t55 -111t17.5 -142.5v-326h-196v303q0 82 -6 130
q-7 53 -51 109q-43 54 -134 54q-54 0 -92.5 -25.5t-63.5 -65.5t-37 -88.5t-12 -94.5q0 -138 51 -212q-11 33 -11 73q0 35 13 65t35.5 52t52.5 34t65 12q36 0 66 -12t51.5 -33.5t33.5 -52t12 -66.5q0 -90 -47.5 -139t-135.5 -49q-72 0 -118 30t-72.5 78t-36.5 107.5
t-10 118.5zM1459 141q0 -11 2 -28t7 -32.5t15 -26.5t25 -11t24.5 11t15 27t7.5 32.5t2 27.5t-2 27.5t-7.5 32t-15 26.5t-24.5 11t-25 -11t-15 -26t-7 -31.5t-2 -28.5zM178 165q0 -12 2 -29t8 -33t16 -27.5t26 -11.5q15 0 24.5 11t15 26.5t7.5 32t2 27.5t-2 27.5t-7.5 32.5
t-15 27t-24.5 11q-26 0 -41 -35q-11 -30 -11 -59z" />
    <glyph glyph-name="uni0BCD" unicode="&#xbcd;" horiz-adv-x="0" 
d="M-177 541h-89q-75 0 -75 79q0 30 22 48t53 18h89q75 0 75 -79q0 -31 -21.5 -48.5t-53.5 -17.5z" />
    <glyph glyph-name="uni0BD0" unicode="&#xbd0;" horiz-adv-x="811" 
d="M408 528q77 0 144 -22t116 -60t77 -90.5t28 -112.5q0 -72 -35.5 -111t-92.5 -39q-40 0 -67 23.5t-27 68.5q0 10 2 18t7 16l-2 2q-8 -4 -15 -14q-10 -12 -16.5 -29.5t-6.5 -45.5q0 -57 44 -86.5t117 -29.5h47v-63h-15q-13 0 -22 -7t-18.5 -20.5t-20.5 -32.5t-28 -43
q-47 -65 -104 -99t-146 -34q-56 0 -104 16.5t-82.5 49t-54 80.5t-19.5 112q0 63 23 104q-45 15 -72 56.5t-27 110.5q0 59 25.5 110t73.5 89.5t116.5 60.5t154.5 22zM202 317q23 0 44.5 -9.5t38 -25.5t26 -38t9.5 -46q0 -25 -8.5 -47.5t-22.5 -39.5q22 -19 22 -59v-125h61
v110q0 40 23 63t61 23h3v9q0 63 35.5 102.5t89.5 50.5l31 -42q-7 -8 -11.5 -19t-4.5 -26q0 -21 13.5 -33t33.5 -12q24 0 40 22t16 64q0 51 -23.5 92.5t-64 71t-94.5 46t-115 16.5t-114 -13.5t-93 -39.5t-64.5 -63t-29.5 -84q14 23 38.5 37.5t59.5 14.5zM181 -24
q0 -100 51 -150t145 -50q35 0 62.5 7t49.5 19.5t38.5 28.5t30.5 34q32 42 47.5 68t33.5 37q-18 2 -40.5 6.5t-40.5 14.5v-3q0 -20 -6.5 -39t-20.5 -34t-36 -24t-53 -9h-187v167q0 38 -28 38q-23 0 -34.5 -31.5t-11.5 -79.5zM109 204q5 -38 27 -57t48 -19q29 0 49 18t20 49
q0 28 -19.5 47t-48.5 19q-26 0 -45.5 -15t-30.5 -42zM427 36v-109h17q32 0 47.5 19.5t15.5 54.5q0 37 -14 57t-34 20q-14 0 -23 -9.5t-9 -32.5zM355 192q0 14 9.5 25.5t26.5 11.5t26.5 -11.5t9.5 -25.5q0 -16 -9.5 -26.5t-26.5 -10.5t-26.5 10.5t-9.5 26.5z" />
    <glyph glyph-name="uni0BD7" unicode="&#xbd7;" horiz-adv-x="1034" 
d="M24 216q0 65 25 115.5t67 85t97 52t116 17.5q171 0 257 -95v87h258q41 0 65 -24t24 -65v-395h-196v429h-93v-429h-196v249q0 177 -179 177q-38 0 -73.5 -16.5t-62.5 -43.5t-43.5 -62.5t-16.5 -73.5q0 -10 0.5 -19.5t1.5 -20.5q5 35 19.5 63t37 48.5t52.5 31.5t64 11
q38 0 69.5 -13t54.5 -36.5t35.5 -56t12.5 -71.5q0 -44 -16.5 -76.5t-44 -54t-64 -32t-77.5 -10.5q-52 0 -88.5 18t-60 49t-34.5 72.5t-11 88.5zM125 147q0 -11 2 -28t7 -32.5t15 -26.5t25 -11t24.5 11t15 27t7.5 32.5t2 27.5t-2 27.5t-7.5 32t-15 26.5t-24.5 11t-25 -11
t-15 -26t-7 -31.5t-2 -28.5z" />
    <glyph glyph-name="uni0BE6" unicode="&#xbe6;" horiz-adv-x="519" 
d="M262 500q48 0 87 -18t67.5 -51t44 -80t15.5 -105q0 -59 -15.5 -105.5t-44 -79.5t-68.5 -50.5t-90 -17.5q-48 0 -87 17.5t-67.5 50.5t-44 79.5t-15.5 105.5q0 58 15.5 105t44 80t68.5 51t90 18zM120 246q0 -41 9 -75.5t27 -59t44.5 -38.5t61.5 -14q34 0 60 14t43 38.5
t26 59t9 75.5q0 85 -36 136.5t-106 51.5q-68 0 -103 -51.5t-35 -136.5z" />
    <glyph glyph-name="uni0BE7" unicode="&#xbe7;" horiz-adv-x="665" 
d="M32 153q0 27 8 49t21.5 38.5t31 27.5t36.5 15v212h430v-62h-150v-140h46q94 0 139.5 -41t45.5 -111q0 -33 -12 -60.5t-33.5 -47t-51 -30t-64.5 -10.5q-23 0 -45 5l8 63q8 -2 17.5 -3t17.5 -1q39 0 63 23t24 61q0 89 -112 89h-43v-84q0 -67 -47.5 -110t-135.5 -43
q-41 0 -76.5 11t-61.5 32t-41 50.5t-15 66.5zM230 56q51 0 79 26t28 74v74h-140q-42 0 -67 -20t-25 -58q0 -43 34 -69.5t91 -26.5zM201 433v-140h136v140h-136z" />
    <glyph glyph-name="uni0BE8" unicode="&#xbe8;" horiz-adv-x="778" 
d="M252 500q51 0 91 -13.5t67 -37.5t41 -56.5t14 -69.5q0 -42 -15 -74t-42 -55t-64 -37t-80 -20l-103 -13q-24 -3 -35.5 -10.5t-11.5 -22.5t11.5 -21.5t28.5 -6.5h621v-63h-611q-64 0 -94.5 25t-30.5 69q0 43 31 64.5t88 29.5l96 13q28 4 52.5 13.5t42.5 24.5t28 36t10 48
q0 53 -37 82.5t-102 29.5q-64 0 -93.5 -27.5t-29.5 -63.5q0 -26 12 -44.5t32 -30.5l-33 -54q-34 14 -60 47.5t-26 81.5q0 31 12 59t37 49.5t63 34.5t90 13z" />
    <glyph glyph-name="uni0BE9" unicode="&#xbe9;" horiz-adv-x="751" 
d="M545 495v-62h-170v-146q14 19 40.5 34t61.5 15q30 0 56 -9.5t45.5 -28.5t30.5 -45.5t11 -61.5q0 -39 -17.5 -75.5t-46.5 -53.5h192v-62h-446v62h114q27 0 51 9t41 25t27 38.5t10 49.5q0 37 -21 64.5t-66 27.5q-30 0 -54 -20t-30 -53v-58h-70v288h-157v-433h-74v495h472z
" />
    <glyph glyph-name="uni0BEA" unicode="&#xbea;" horiz-adv-x="751" 
d="M129 283v212h424v-62h-144v-142h221v204h73v-266h-294v-83q0 -67 -47.5 -110t-135.5 -43q-41 0 -76.5 11t-61.5 32t-41 50.5t-15 66.5q0 27 8 49t21.5 38.5t31 27.5t36.5 15zM230 56q51 0 79 26t28 74v74h-140q-42 0 -67 -20t-25 -58q0 -43 34 -69.5t91 -26.5zM201 293
h136v140h-136v-140z" />
    <glyph glyph-name="uni0BEB" unicode="&#xbeb;" horiz-adv-x="950" 
d="M535 747q67 0 122 -12.5t99.5 -32t77.5 -43.5t55 -46l-40 -46q-24 21 -55.5 41.5t-71.5 36.5t-88 26t-104 10q-100 0 -176.5 -33.5t-128 -93t-77.5 -141.5t-26 -178q0 -100 26.5 -178.5t76.5 -133t121 -83t159 -28.5q78 0 140 21.5t105.5 61t67 94t23.5 120.5
q0 64 -25 105.5t-79 41.5q-29 0 -52.5 -18.5t-34.5 -50.5v-187h-75v432h-172v-432h-74v495h511v-63h-190v-166q14 20 42.5 35.5t65.5 15.5t66.5 -15t50.5 -42t32 -64.5t11 -82.5q0 -79 -29.5 -146.5t-83.5 -116t-131.5 -76t-173.5 -27.5q-100 0 -183.5 33t-143.5 96
t-93.5 153.5t-33.5 205.5q0 108 32.5 201.5t95 162.5t153.5 108.5t208 39.5z" />
    <glyph glyph-name="uni0BEC" unicode="&#xbec;" horiz-adv-x="861" 
d="M129 283v212h440v-62h-160v-140h19q33 0 55 -6t36.5 -16t23 -21t13.5 -22q4 11 12.5 22.5t22.5 21t34.5 15.5t47.5 6h176v-58h-76v-235h-71v233h-38q-37 0 -55 -22t-18 -59v-152h-71v145q0 43 -20 64.5t-71 21.5h-20v-85q0 -67 -47.5 -110t-135.5 -43q-41 0 -76.5 11
t-61.5 32t-41 50.5t-15 66.5q0 27 8 49t21.5 38.5t31 27.5t36.5 15zM230 56q51 0 79 26t28 74v74h-140q-42 0 -67 -20t-25 -58q0 -43 34 -69.5t91 -26.5zM337 293v140h-136v-140h136z" />
    <glyph glyph-name="uni0BED" unicode="&#xbed;" horiz-adv-x="677" 
d="M44 211q0 70 23.5 123t65 89t97 54t118.5 18h334v-62h-110v-433h-73v433h-149q-48 0 -89 -12.5t-72.5 -37t-51 -62.5t-24.5 -89q19 27 50 44t69 17q32 0 59 -11t46.5 -30.5t30.5 -46t11 -58.5q0 -34 -12 -62.5t-33 -49t-50.5 -31.5t-64.5 -11q-39 0 -71 15.5t-55 44
t-36 69t-13 89.5zM219 56q39 0 62.5 25t23.5 63t-23 62t-65 24q-38 0 -63 -24t-37 -53q9 -48 38 -72.5t64 -24.5z" />
    <glyph glyph-name="uni0BEE" unicode="&#xbee;" horiz-adv-x="1009" 
d="M136 199h525q4 11 4 42q0 41 -11.5 76t-34.5 61t-56.5 41t-77.5 15q-48 0 -73.5 -22.5t-25.5 -56.5q0 -26 14.5 -42.5t34.5 -24.5l-24 -53q-45 11 -72 43t-27 78q0 32 13.5 58.5t37 45.5t56 29.5t71.5 10.5q58 0 104.5 -20t79 -55t50 -82t17.5 -102q0 -13 -0.5 -24
t-2.5 -18h122v296h74v-577h-74v219h-132q-17 -54 -53 -93.5t-86 -65t-112 -37.5t-131 -12q-70 0 -130 11.5t-104 33.5t-69 54t-25 73q0 48 30.5 73t87.5 25zM349 -4q115 0 193.5 36t105.5 105h-503q-26 0 -37 -11.5t-11 -28.5q0 -21 18 -39t51 -32t79.5 -22t103.5 -8z" />
    <glyph glyph-name="uni0BEF" unicode="&#xbef;" horiz-adv-x="997" 
d="M32 153q0 27 8 49t21.5 38.5t31 27.5t36.5 15v212h425v-62h-145v-141h123q28 48 78.5 75.5t117.5 27.5q51 0 92.5 -15.5t71 -44t45.5 -68.5t16 -88q0 -63 -18.5 -109t-44.5 -82l-58 40q18 26 33.5 61.5t15.5 89.5q0 72 -43 113.5t-116 41.5q-39 0 -69 -13t-48 -34
q94 0 142.5 -41.5t48.5 -110.5q0 -28 -10 -54t-28.5 -45.5t-45.5 -31t-61 -11.5q-40 0 -69 14t-48 37t-28 54t-9 65q0 17 2.5 35t7.5 33h-98v-85q0 -67 -47.5 -110t-135.5 -43q-41 0 -76.5 11t-61.5 32t-41 50.5t-15 66.5zM230 56q51 0 79 26t28 74v74h-140q-42 0 -67 -20
t-25 -58q0 -43 34 -69.5t91 -26.5zM654 56q29 0 50 20.5t21 58.5q0 48 -33.5 70.5t-93.5 22.5h-20q-5 -15 -7.5 -32.5t-2.5 -31.5q0 -58 26 -83t60 -25zM201 433v-140h136v140h-136z" />
    <glyph glyph-name="uni0BF0" unicode="&#xbf0;" horiz-adv-x="718" 
d="M69 495h75v-341q0 -48 21 -71t58 -23q40 0 63 28.5t23 88.5v318h75v-312q0 -63 22 -93t64 -30q34 0 57 18t37.5 50.5t20.5 78t6 99.5q0 74 -13.5 134t-42 102t-71 64.5t-101.5 22.5q-52 0 -86.5 -12.5t-58.5 -26.5l-30 52q26 19 72.5 36t104.5 17q75 0 131.5 -28.5
t94 -79.5t56.5 -121.5t19 -154.5q0 -69 -10.5 -127.5t-34 -101t-60 -66t-87.5 -23.5q-48 0 -82.5 25.5t-45.5 62.5q-14 -38 -46 -63t-89 -25q-66 0 -104 42.5t-38 117.5v342z" />
    <glyph glyph-name="uni0BF1" unicode="&#xbf1;" horiz-adv-x="769" 
d="M69 0v332q0 45 11 76.5t31 52t47 30t58 9.5t58.5 -16.5t41.5 -38.5v50h455v-63h-107v-432h-74v432h-206v-432h-72v322q0 22 -5 42.5t-15.5 36t-27 25t-40.5 9.5q-42 0 -61.5 -26t-19.5 -74v-335h-74z" />
    <glyph glyph-name="uni0BF2" unicode="&#xbf2;" horiz-adv-x="917" 
d="M129 283v212h430v-62h-150v-140h427v-60h-96v-81h11q33 0 61.5 -10.5t49.5 -30t33 -48.5t12 -66q0 -85 -55 -131.5t-164 -46.5h-141q-22 0 -31 -9.5t-9 -24.5q0 -12 4 -22.5t9 -18.5l-52 -22q-8 12 -15 29t-7 39q0 21 7.5 36.5t19 25.5t26 15t29.5 5h156q82 0 120.5 35
t38.5 93q0 43 -22.5 71.5t-70.5 28.5h-9v-59q0 -22 -7.5 -43t-24 -37t-42.5 -26t-62 -10q-28 0 -54 8t-45.5 23.5t-31.5 38t-12 51.5q0 54 34.5 80t88.5 26h95v81h-271v-87q0 -67 -47.5 -110t-135.5 -43q-41 0 -76.5 11t-61.5 32t-41 50.5t-15 66.5q0 27 8 49t21.5 38.5
t31 27.5t36.5 15zM105 152q0 -43 34 -69.5t91 -26.5q51 0 79 26t28 74v74h-140q-42 0 -67 -20t-25 -58zM337 293v140h-136v-140h136zM607 -20q36 0 54 18.5t18 49.5v52h-89q-29 0 -46.5 -14.5t-17.5 -42.5t21.5 -45.5t59.5 -17.5z" />
    <glyph glyph-name="uni0BF3" unicode="&#xbf3;" horiz-adv-x="780" 
d="M326 500q57 0 106 -19.5t85 -55t56.5 -84.5t20.5 -108q0 -27 -4.5 -53t-11.5 -48.5t-15.5 -40t-15.5 -28.5h230v-63h-295l-23 48q29 36 43.5 82.5t14.5 97.5q0 46 -13.5 84t-39 65t-61.5 42t-82 15q-47 0 -85 -15t-65 -42t-42.5 -65.5t-16.5 -84.5q18 29 50 47.5t72 18.5
q32 0 59 -11t46.5 -30.5t30.5 -46.5t11 -58q0 -35 -12 -63t-33 -48.5t-50.5 -31.5t-64.5 -11q-39 0 -71 16t-55 45.5t-36 71t-13 91.5q0 63 21 115.5t58 89.5t88.5 57.5t112.5 20.5zM219 230q-19 0 -34.5 -6.5t-28.5 -17.5t-22 -24.5t-15 -28.5q9 -48 38 -72.5t64 -24.5
q39 0 62.5 25t23.5 63t-23 62t-65 24z" />
    <glyph glyph-name="uni0BF4" unicode="&#xbf4;" horiz-adv-x="989" 
d="M73 0v495h73v-432h174v275q0 72 39 113t105 45q-21 23 -34.5 56t-13.5 63q0 42 17 73t44 51.5t61.5 30t70.5 9.5q13 0 15 -1q21 17 51 29.5t66 12.5q33 0 62 -9.5t51 -27.5t34.5 -44.5t12.5 -61.5q0 -32 -9.5 -59t-22.5 -47h117v-53h-171l-21 45q14 18 27 47t13 65
q0 48 -27.5 72.5t-72.5 24.5q-30 0 -49 -10q32 -11 55.5 -37.5t23.5 -61.5q0 -24 -9 -43t-24 -32.5t-35 -21t-42 -7.5q-45 0 -74.5 27.5t-29.5 72.5q0 39 24 66q-38 -8 -62.5 -36.5t-24.5 -74.5t25 -81.5t62 -65.5l6 -4q18 -15 35 -35t30 -46t21 -59t8 -74q0 -57 -15 -103.5
t-47 -78.5t-82 -49.5t-119 -17.5h-338zM419 63q96 0 137.5 50t41.5 134q0 47 -10.5 82t-27.5 58.5t-39 35t-46 11.5q-35 0 -58.5 -23t-23.5 -78v-270h26zM656 613q21 0 33.5 14t12.5 37q0 29 -21.5 46t-47.5 18q-11 -11 -18 -26.5t-7 -35.5q0 -25 14 -39t34 -14z" />
    <glyph glyph-name="uni0BF5" unicode="&#xbf5;" horiz-adv-x="2073" 
d="M897 758q224 0 382.5 -37t259.5 -105t148 -163t47 -212v-55q0 -66 27 -97t78 -31t82.5 42.5t31.5 117.5q0 42 -9.5 77t-25.5 63.5t-38 49.5t-46 35l41 59q27 -17 55 -43t50 -61t36 -80t14 -100q0 -51 -14 -93t-39.5 -71t-61 -45t-79.5 -16q-88 0 -132.5 51t-44.5 139v53
q0 108 -41.5 192.5t-133 142.5t-237.5 88.5t-355 30.5q-213 0 -360 -38.5t-238.5 -103t-132.5 -148.5t-41 -175q0 -114 54 -197.5t149.5 -137.5t225.5 -80t283 -26q165 0 286 27t200 73t117 107.5t38 131.5q0 60 -26 96.5t-80 36.5q-29 0 -54.5 -18t-38.5 -53v-185h-76v432
h-170v-432h-332l-23 48q29 36 43.5 82.5t14.5 97.5q0 46 -13.5 84t-39 65t-61.5 42t-82 15t-84.5 -15t-65.5 -42t-42.5 -65t-16.5 -85q18 29 50 47.5t72 18.5q32 0 59 -11t46.5 -30.5t30.5 -46t11 -58.5q0 -34 -12 -62.5t-33 -49t-50.5 -31.5t-64.5 -11q-39 0 -71 16
t-55 45.5t-36 71t-13 91.5q0 63 21 115.5t58 89.5t88.5 57.5t112.5 20.5q57 0 106 -19.5t85 -55t56.5 -84.5t20.5 -108q0 -27 -4.5 -53t-11.5 -48t-15.5 -40t-15.5 -29h193v432h470v-63h-150v-166q15 22 45 37.5t63 15.5q78 0 123 -50.5t45 -141.5q0 -84 -41.5 -158.5
t-130 -130t-225 -87.5t-327.5 -32q-169 0 -312 30.5t-247.5 93t-163.5 157.5t-59 225q0 70 20.5 137t64 126t111 108.5t162.5 85.5t218 56t277 20zM435 56q39 0 62.5 25t23.5 63t-23 62t-65 24q-38 0 -63 -24t-37 -53q9 -48 38 -72.5t64 -24.5z" />
    <glyph glyph-name="uni0BF6" unicode="&#xbf6;" horiz-adv-x="883" 
d="M154 -61h361v61h-442v495h77v-428h361v428h77v-556h146v556h76v-619h-228q-14 -75 -90 -119.5t-197 -44.5q-55 0 -99.5 11t-76 30.5t-49 46t-17.5 57.5q0 42 27.5 62t73.5 20zM129 -150q0 -17 12.5 -30.5t35 -23.5t53.5 -15.5t68 -5.5q41 0 77 7t63.5 20.5t45.5 32
t24 41.5h-350q-15 0 -22 -7.5t-7 -18.5z" />
    <glyph glyph-name="uni0BF7" unicode="&#xbf7;" horiz-adv-x="1272" 
d="M44 211q0 70 24 123t65 89t97 54t120 18h332v-62h-110v-316q18 28 43.5 54t51.5 45q8 39 27.5 72t49 56.5t66.5 37t80 13.5q53 0 96 -15.5t73.5 -43.5t47 -67t16.5 -86q0 -42 -9.5 -71.5t-20.5 -48.5h176v-63h-234l-24 48q19 28 29.5 60t10.5 74q0 72 -43.5 112
t-121.5 40q-48 0 -85.5 -21.5t-53.5 -56.5q29 17 66 17q31 0 58 -9t47 -26.5t31.5 -43.5t11.5 -60q0 -33 -12 -59t-32.5 -44.5t-48 -28t-58.5 -9.5q-32 0 -58.5 11.5t-45.5 31.5t-29.5 47.5t-11.5 59.5q-14 -14 -29 -32.5t-28.5 -38t-24.5 -38.5t-17 -34h-67v433h-153
q-46 0 -86.5 -12.5t-71.5 -37t-50.5 -62.5t-24.5 -89q19 27 50 44t69 17q32 0 59 -11t46.5 -30.5t30.5 -46t11 -58.5q0 -34 -12 -62.5t-33 -49t-50.5 -31.5t-64.5 -11q-39 0 -71 15.5t-55 44t-36 69t-13 89.5zM219 56q39 0 62.5 25t23.5 63t-23 62t-65 24q-38 0 -63 -24
t-37 -53q9 -48 38 -72.5t64 -24.5zM731 157q0 -48 22 -74.5t60 -26.5q32 0 54.5 21.5t22.5 56.5q0 37 -23.5 58.5t-60.5 21.5q-23 0 -41 -7.5t-32 -19.5q-2 -8 -2 -15v-15z" />
    <glyph glyph-name="uni0BF8" unicode="&#xbf8;" horiz-adv-x="1758" 
d="M40 354q0 86 28 155.5t76.5 119.5t115 77t142.5 27q71 0 125 -22.5t95.5 -57t72 -76.5t53.5 -81q14 -25 25 -43.5t21 -32.5q37 37 86 58.5t106 21.5q59 0 108.5 -20t85 -55t55.5 -84t20 -108q0 -27 -4.5 -53t-11.5 -48t-15.5 -40t-15.5 -29h196l81 168q-78 1 -124 36.5
t-46 98.5q0 32 12 56.5t32.5 42t47.5 26.5t57 9q31 0 57 -9.5t45.5 -27t30.5 -42t11 -53.5q0 -20 -6.5 -40t-15.5 -40q70 -5 113 -38t43 -99q0 -69 -50 -110t-150 -41h-87l-96 -201l-64 30l83 171h-235l-23 48q29 36 43.5 82.5t14.5 97.5q0 46 -13 84t-38 65t-62 42t-84 15
q-45 0 -81 -15.5t-62 -43.5q27 -25 58.5 -48t58 -49.5t44.5 -59t18 -74.5q0 -36 -12 -64t-33.5 -47.5t-50.5 -29.5t-63 -10q-32 0 -62 11.5t-53 35.5t-37 60.5t-14 86.5q0 57 18 104.5t42 78.5q-17 21 -35 51t-42 68q-20 32 -45.5 63.5t-58.5 57t-75.5 41t-96.5 15.5
q-58 0 -109.5 -21t-89.5 -60.5t-60 -97.5t-22 -133q0 -67 20.5 -123t57.5 -96.5t87 -63t108 -22.5h21q-22 4 -44 15t-39.5 28.5t-28.5 41.5t-11 54q0 34 12.5 61.5t34 47.5t51.5 31t64 11q33 0 62.5 -11t52 -31t35.5 -49t13 -65q0 -45 -19 -80t-51 -59t-74 -36.5t-89 -12.5
q-72 0 -134 25t-108 71.5t-72.5 113t-26.5 149.5zM766 181q0 -63 28 -94t66 -31t60.5 23t22.5 65q0 30 -15 54.5t-37 46t-47 41t-45 38.5q-15 -26 -24 -61.5t-9 -81.5zM481 76q27 12 43.5 38t16.5 64q0 43 -26.5 69t-65.5 26t-64.5 -23.5t-25.5 -65.5q0 -23 10 -43t27 -34.5
t39 -22.5t46 -8zM1547 63q63 0 91 26.5t28 61.5q0 38 -27 58.5t-75 20.5h-3l-80 -167h66zM1504 291h7q22 40 22 74q0 29 -20 49.5t-52 20.5q-33 0 -52 -19t-19 -48q0 -37 28.5 -57t85.5 -20z" />
    <glyph glyph-name="uni0BF9" unicode="&#xbf9;" horiz-adv-x="1389" 
d="M600 751q96 0 174.5 -21t140.5 -56t106.5 -79t72.5 -91h8q33 0 64 -10t55 -28.5t38 -46t14 -62.5q0 -33 -10.5 -58.5t-22.5 -44.5h126v-54h-179l-22 46q14 19 27.5 45.5t13.5 63.5q0 45 -25 69.5t-61 27.5q8 -14 13 -32.5t5 -41.5q0 -51 -32 -82t-86 -31q-22 0 -42.5 8
t-35.5 22t-24 34t-9 44q0 25 9.5 46t26 37t38 26.5t44.5 14.5q-27 41 -68 75.5t-95 60t-121.5 39.5t-147.5 14q-107 0 -193.5 -30.5t-147.5 -87.5t-94 -139.5t-33 -187.5q0 -102 26.5 -182t76.5 -135t121 -84t161 -29q79 0 142.5 21t107.5 58.5t68 90.5t24 117q0 33 -6.5 62
t-19.5 50t-33.5 33.5t-47.5 12.5q-30 0 -53.5 -18t-35.5 -53v-185h-75v432h-172v-432h-74v495h511v-63h-190v-166q14 22 42.5 36.5t61.5 14.5q40 0 71 -16t52.5 -44.5t33 -68t11.5 -86.5q0 -78 -29.5 -143.5t-84.5 -112.5t-133 -73.5t-176 -26.5q-101 0 -185 33t-144 96.5
t-93.5 155.5t-33.5 210q0 117 39.5 211t111.5 160.5t173.5 102.5t224.5 36zM970 372q0 -25 14.5 -39.5t37.5 -14.5q25 0 40 16.5t15 43.5q0 22 -6 40.5t-16 33.5q-33 -2 -59 -23t-26 -57z" />
    <glyph glyph-name="uni0BFA" unicode="&#xbfa;" horiz-adv-x="826" 
d="M148 -74h190q60 0 104.5 14t74.5 39.5t45 61t15 77.5q0 67 -25 102.5t-73 35.5q-29 0 -53.5 -19.5t-35.5 -52.5v-184h-76v433h-166v-433h-75v495h227q-21 23 -34 55.5t-13 64.5q0 42 17 73t44 51.5t61.5 30t70.5 9.5q13 0 15 -1q21 17 51 29.5t66 12.5q33 0 62 -9.5
t51 -27.5t34.5 -44.5t12.5 -61.5q0 -32 -9.5 -59t-22.5 -47h117v-53h-171l-21 45q14 18 27 47t13 65q0 48 -27.5 72.5t-72.5 24.5q-30 0 -49 -10q32 -11 55.5 -37.5t23.5 -61.5q0 -24 -9 -43t-24 -32.5t-35 -21t-42 -7.5q-45 0 -74.5 27.5t-29.5 72.5q0 39 24 66
q-38 -8 -62.5 -36.5t-24.5 -74.5q0 -42 15.5 -71.5t38.5 -47.5h202v-62h-190v-168q14 21 43.5 37t66.5 16q69 0 112 -50t43 -150q0 -57 -21.5 -104t-61.5 -80.5t-98 -52.5t-132 -19h-178q-32 0 -46 -13.5t-14 -35.5q0 -17 7.5 -33t16.5 -29l-62 -33q-14 18 -26 44t-12 58
q0 31 10.5 51.5t27.5 32.5t38.5 17t43.5 5zM493 613q21 0 33.5 14t12.5 37q0 29 -21.5 46t-47.5 18q-11 -11 -18 -26.5t-7 -35.5q0 -25 14 -39t34 -14z" />
    <glyph glyph-name="uni1E0C" unicode="&#x1e0c;" horiz-adv-x="642" 
d="M285 630q67 0 124 -19t98.5 -56.5t65 -94t23.5 -131.5q0 -91 -28 -154t-75.5 -102t-110 -56t-132.5 -17h-170v630h205zM172 76h69q48 0 94 10.5t81.5 39t57.5 77.5t22 126q0 54 -16 96t-46 70.5t-72.5 43.5t-94.5 15h-95v-478zM229 -125q0 21 17 38t39 17q23 0 39.5 -17
t16.5 -38q0 -23 -16.5 -40t-39.5 -17q-22 0 -39 17t-17 40z" />
    <glyph glyph-name="uni1E0D" unicode="&#x1e0d;" horiz-adv-x="536" 
d="M250 477q37 0 70.5 -11.5t59.5 -34.5v279h88v-710h-74l-11 52h-3q-31 -32 -62.5 -46.5t-79.5 -14.5q-37 0 -73 15t-64 45t-45 76t-17 107q0 56 14.5 100.5t41.5 76.5t66.5 49t88.5 17zM258 59q75 0 122 65v233q-47 53 -111 53q-27 0 -52.5 -9.5t-45 -30.5t-31.5 -53.5
t-12 -79.5q0 -48 11 -81.5t29.5 -55t42 -31.5t47.5 -10zM230 -125q0 21 16.5 37.5t38.5 16.5q23 0 39 -16.5t16 -37.5q0 -23 -16 -39.5t-39 -16.5q-22 0 -38.5 16.5t-16.5 39.5z" />
    <glyph glyph-name="uni1E24" unicode="&#x1e24;" horiz-adv-x="642" 
d="M80 0v630h92v-265h299v265h92v-630h-92v287h-299v-287h-92zM264 -115q0 21 17 38t39 17q23 0 39.5 -17t16.5 -38q0 -23 -16.5 -40t-39.5 -17q-22 0 -39 17t-17 40z" />
    <glyph glyph-name="uni1E25" unicode="&#x1e25;" horiz-adv-x="540" 
d="M69 0v710h88v-300q33 29 73 48t88 19q78 0 115.5 -43.5t37.5 -109.5v-324h-88v302q0 54 -22 78.5t-67 24.5q-34 0 -68.5 -17t-68.5 -48v-340h-88zM275 -61q23 0 39 -16.5t16 -37.5q0 -23 -16 -39.5t-39 -16.5q-22 0 -38.5 16.5t-16.5 39.5q0 21 16.5 37.5t38.5 16.5z" />
    <glyph glyph-name="uni1E36" unicode="&#x1e36;" horiz-adv-x="456" 
d="M80 630h92v-552h269v-78h-361v630zM208 -125q0 21 17 38t39 17q23 0 39.5 -17t16.5 -38q0 -23 -16.5 -40t-39.5 -17q-22 0 -39 17t-17 40z" />
    <glyph glyph-name="uni1E37" unicode="&#x1e37;" horiz-adv-x="230" 
d="M72 0v710h86v-710h-86zM63 -125q0 21 16.5 37.5t38.5 16.5q23 0 39 -16.5t16 -37.5q0 -23 -16 -39.5t-39 -16.5q-22 0 -38.5 16.5t-16.5 39.5z" />
    <glyph glyph-name="uni1E38" unicode="&#x1e38;" horiz-adv-x="456" 
d="M80 630h92v-552h269v-78h-361v630zM208 -125q0 21 17 38t39 17q23 0 39.5 -17t16.5 -38q0 -23 -16.5 -40t-39.5 -17q-22 0 -39 17t-17 40zM380 772v-62h-245v62h245z" />
    <glyph glyph-name="uni1E39" unicode="&#x1e39;" horiz-adv-x="230" 
d="M63 -125q0 21 16.5 37.5t38.5 16.5q23 0 39 -16.5t16 -37.5q0 -23 -16 -39.5t-39 -16.5q-22 0 -38.5 16.5t-16.5 39.5zM172 630v-630h-92v630h92zM251 772v-62h-245v62h245z" />
    <glyph glyph-name="uni1E3A" unicode="&#x1e3a;" horiz-adv-x="456" 
d="M80 630h92v-552h269v-78h-361v630zM379 -101v-62h-245v62h245z" />
    <glyph glyph-name="uni1E3B" unicode="&#x1e3b;" horiz-adv-x="230" 
d="M72 0v710h86v-710h-86zM238 -101v-62h-245v62h245z" />
    <glyph glyph-name="uni1E42" unicode="&#x1e42;" horiz-adv-x="811" 
d="M64 0l53 630h120l132 -402q10 -29 19 -56.5t17 -55.5h2q8 28 16.5 54t19.5 58l129 402h120l55 -630h-92l-26 334q-4 49 -6 97t-4 99h-2q-14 -49 -28.5 -98t-30.5 -98l-111 -334h-84l-111 335q-17 51 -31 97.5t-28 97.5h-2q-2 -49 -5.5 -98t-7.5 -98l-24 -334h-90z
M350 -125q0 21 17 38t39 17q23 0 39.5 -17t16.5 -38q0 -23 -16.5 -40t-39.5 -17q-22 0 -39 17t-17 40z" />
    <glyph glyph-name="uni1E43" unicode="&#x1e43;" horiz-adv-x="824" 
d="M68 0v470h68l13 -65q33 33 70.5 52.5t91.5 19.5q51 0 82.5 -20.5t47.5 -56.5q35 37 77 57t93 20q72 0 108.5 -40.5t36.5 -112.5v-324h-88v308q0 48 -20 72.5t-66 24.5q-69 0 -127 -61q1 -5 1 -10v-10v-324h-88v308q0 48 -20 72.5t-66 24.5q-68 0 -126 -64v-341h-88z
M358 -125q0 21 16.5 37.5t38.5 16.5q23 0 39 -16.5t16 -37.5q0 -23 -16 -39.5t-39 -16.5q-22 0 -38.5 16.5t-16.5 39.5z" />
    <glyph glyph-name="uni1E44" unicode="&#x1e44;" horiz-adv-x="672" 
d="M160 630l287 -399q16 -22 31 -45t27 -45h2q-2 35 -3 70t-1 70v349h90v-630h-80l-284 394q-15 21 -31 47.5t-30 52.5h-2q2 -42 3 -84t1 -84v-326h-90v630h80zM336 847q23 0 39 -16.5t16 -37.5q0 -23 -16 -39.5t-39 -16.5q-22 0 -38.5 16.5t-16.5 39.5q0 21 16.5 37.5
t38.5 16.5z" />
    <glyph glyph-name="uni1E45" unicode="&#x1e45;" horiz-adv-x="534" 
d="M68 0v470h69l13 -65q35 35 73 53.5t89 18.5q72 0 113 -40.5t41 -112.5v-324h-88v311q0 43 -22.5 68.5t-68.5 25.5q-69 0 -131 -63v-342h-88zM212 633q0 21 16.5 37.5t38.5 16.5q23 0 39 -16.5t16 -37.5q0 -23 -16 -39.5t-39 -16.5q-22 0 -38.5 16.5t-16.5 39.5z" />
    <glyph glyph-name="uni1E46" unicode="&#x1e46;" horiz-adv-x="672" 
d="M160 630l287 -399q16 -22 31 -45t27 -45h2q-2 35 -3 70t-1 70v349h90v-630h-80l-284 394q-15 21 -31 47.5t-30 52.5h-2q2 -42 3 -84t1 -84v-326h-90v630h80zM340 -60q23 0 39.5 -17t16.5 -38q0 -23 -16.5 -40t-39.5 -17q-22 0 -39 17t-17 40q0 21 17 38t39 17z" />
    <glyph glyph-name="uni1E47" unicode="&#x1e47;" horiz-adv-x="534" 
d="M68 0v470h69l13 -65q35 35 73 53.5t89 18.5q72 0 113 -40.5t41 -112.5v-324h-88v311q0 43 -22.5 68.5t-68.5 25.5q-69 0 -131 -63v-342h-88zM213 -115q0 21 16.5 37.5t38.5 16.5q23 0 39 -16.5t16 -37.5q0 -23 -16 -39.5t-39 -16.5q-22 0 -38.5 16.5t-16.5 39.5z" />
    <glyph glyph-name="uni1E48" unicode="&#x1e48;" horiz-adv-x="672" 
d="M80 630h80l287 -399q16 -22 31 -45t27 -45h2q-2 35 -3 70t-1 70v349h90v-630h-80l-284 394q-15 21 -31 47.5t-30 52.5h-2q2 -42 3 -84t1 -84v-326h-90v630zM461 -91v-62h-245v62h245z" />
    <glyph glyph-name="uni1E49" unicode="&#x1e49;" horiz-adv-x="534" 
d="M137 470l13 -65q35 35 73 53.5t89 18.5q72 0 113 -40.5t41 -112.5v-324h-88v311q0 43 -22.5 68.5t-68.5 25.5q-69 0 -131 -63v-342h-88v470h69zM143 -91h245v-62h-245v62z" />
    <glyph glyph-name="uni1E5A" unicode="&#x1e5a;" horiz-adv-x="537" 
d="M285 630q49 0 86.5 -14t62.5 -39t38 -59.5t13 -75.5q0 -36 -11 -64.5t-29 -50.5t-41.5 -37.5t-47.5 -25.5l166 -264h-103l-149 247h-103v-247h-87v630h205zM167 322h76q31 0 57.5 6.5t46 20t31 35.5t11.5 53q0 61 -33.5 90t-97.5 29h-91v-234zM285 -70q23 0 39.5 -17
t16.5 -38q0 -23 -16.5 -40t-39.5 -17q-22 0 -39 17t-17 40q0 21 17 38t39 17z" />
    <glyph glyph-name="uni1E5B" unicode="&#x1e5b;" horiz-adv-x="372" 
d="M66 0v470h66l15 -94q17 45 56 73t90 28q26 0 43 -4t31 -10l-17 -77q-12 6 -26.5 10t-34.5 4q-29 0 -53.5 -10t-43 -30t-29 -49.5t-10.5 -67.5v-243h-87zM55 -115q0 21 16.5 37.5t38.5 16.5q23 0 39 -16.5t16 -37.5q0 -23 -16 -39.5t-39 -16.5q-22 0 -38.5 16.5
t-16.5 39.5z" />
    <glyph glyph-name="uni1E5C" unicode="&#x1e5c;" horiz-adv-x="537" 
d="M80 630h205q49 0 86.5 -14t62.5 -39t38 -59.5t13 -75.5q0 -36 -11 -64.5t-29 -50.5t-41.5 -37.5t-47.5 -25.5l166 -264h-103l-149 247h-103v-247h-87v630zM167 556v-234h76q31 0 57.5 6.5t46 20t31 35.5t11.5 53q0 61 -33.5 90t-97.5 29h-91zM136 772h245v-62h-245v62z
M229 -125q0 21 17 38t39 17q23 0 39.5 -17t16.5 -38q0 -23 -16.5 -40t-39.5 -17q-22 0 -39 17t-17 40z" />
    <glyph glyph-name="uni1E5D" unicode="&#x1e5d;" horiz-adv-x="372" 
d="M66 0v470h66l15 -94q17 45 56 73t90 28q26 0 43 -4t31 -10l-17 -77q-12 6 -26.5 10t-34.5 4q-29 0 -53.5 -10t-43 -30t-29 -49.5t-10.5 -67.5v-243h-87zM55 -115q0 21 16.5 37.5t38.5 16.5q23 0 39 -16.5t16 -37.5q0 -23 -16 -39.5t-39 -16.5q-22 0 -38.5 16.5
t-16.5 39.5zM329 652v-62h-245v62h245z" />
    <glyph glyph-name="uni1E5E" unicode="&#x1e5e;" horiz-adv-x="537" 
d="M80 630h205q49 0 86.5 -14t62.5 -39t38 -59.5t13 -75.5q0 -36 -11 -64.5t-29 -50.5t-41.5 -37.5t-47.5 -25.5l166 -264h-103l-149 247h-103v-247h-87v630zM167 322h76q31 0 57.5 6.5t46 20t31 35.5t11.5 53q0 61 -33.5 90t-97.5 29h-91v-234zM173 -153v62h245v-62h-245z
" />
    <glyph glyph-name="uni1E5F" unicode="&#x1e5f;" horiz-adv-x="372" 
d="M66 0v470h66l15 -94q17 45 56 73t90 28q26 0 43 -4t31 -10l-17 -77q-12 6 -26.5 10t-34.5 4q-29 0 -53.5 -10t-43 -30t-29 -49.5t-10.5 -67.5v-243h-87zM333 -101v-62h-245v62h245z" />
    <glyph glyph-name="uni1E62" unicode="&#x1e62;" horiz-adv-x="505" 
d="M257 639q46 0 89 -7.5t85 -27.5l-22 -76q-43 20 -77.5 28.5t-70.5 8.5q-57 0 -90 -25t-33 -70q0 -38 24.5 -61t80.5 -40l63 -20q86 -27 121.5 -73.5t35.5 -104.5q0 -41 -16.5 -74.5t-46 -57t-69.5 -36t-88 -12.5t-97.5 8.5t-98.5 31.5l22 75q43 -21 84 -31t86 -10
q54 0 92 25t38 74q0 18 -5.5 33.5t-19 29.5t-36.5 26t-58 23l-63 20q-69 22 -106 60t-37 103q0 83 54.5 131.5t158.5 48.5zM191 -125q0 21 17 38t39 17q23 0 39.5 -17t16.5 -38q0 -23 -16.5 -40t-39.5 -17q-22 0 -39 17t-17 40z" />
    <glyph glyph-name="uni1E63" unicode="&#x1e63;" horiz-adv-x="407" 
d="M332 382q-33 16 -60 22t-54 6q-48 0 -71 -17.5t-23 -46.5q0 -21 16 -36.5t67 -30.5l30 -9q67 -20 101.5 -51.5t34.5 -85.5q0 -64 -47.5 -103t-132.5 -39q-45 0 -86.5 8t-71.5 22l21 69q29 -14 63 -22.5t69 -8.5q45 0 71.5 16t26.5 53q0 32 -23 45.5t-66 26.5l-31 10
q-65 21 -96.5 52.5t-31.5 81.5q0 30 13 55t35.5 42t53.5 26.5t68 9.5q35 0 72.5 -6.5t71.5 -21.5zM143 -115q0 21 16.5 37.5t38.5 16.5q23 0 39 -16.5t16 -37.5q0 -23 -16 -39.5t-39 -16.5q-22 0 -38.5 16.5t-16.5 39.5z" />
    <glyph glyph-name="uni1E6C" unicode="&#x1e6c;" 
d="M10 630h482v-78h-197v-552h-92v552h-193v78zM192 -125q0 21 17 38t39 17q23 0 39.5 -17t16.5 -38q0 -23 -16.5 -40t-39.5 -17q-22 0 -39 17t-17 40z" />
    <glyph glyph-name="uni1E6D" unicode="&#x1e6d;" horiz-adv-x="364" 
d="M20 404v66h70v150h87v-150h138v-66h-138v-273q0 -35 17.5 -47t45.5 -12q20 0 44 4.5t42 10.5l14 -67q-20 -8 -51 -14t-65 -6q-70 0 -102 30.5t-32 88.5v285h-70zM202 -61q23 0 39 -16.5t16 -37.5q0 -23 -16 -39.5t-39 -16.5q-22 0 -38.5 16.5t-16.5 39.5q0 21 16.5 37.5
t38.5 16.5z" />
    <glyph glyph-name="uni1E6E" unicode="&#x1e6e;" 
d="M492 630v-78h-197v-552h-92v552h-193v78h482zM128 -163v62h245v-62h-245z" />
    <glyph glyph-name="uni1E6F" unicode="&#x1e6f;" horiz-adv-x="364" 
d="M20 470h70v150h87v-150h138v-66h-138v-273q0 -35 17.5 -47t45.5 -12q20 0 44 4.5t42 10.5l14 -67q-20 -8 -51 -14t-65 -6q-70 0 -102 30.5t-32 88.5v285h-70v66zM92 -101h245v-62h-245v62z" />
    <glyph glyph-name="Wgrave" unicode="&#x1e80;" horiz-adv-x="859" 
d="M8 630h94l107 -371q4 -12 9 -30.5t9.5 -39t8.5 -41.5t6 -38h2q3 18 7.5 38.5t9.5 41t9.5 38.5t8.5 31l110 371h82l114 -371q4 -13 9 -31t9.5 -38t8.5 -41t7 -39h2q3 19 7.5 40t9.5 41.5t9.5 38t7.5 29.5l103 371h93l-185 -630h-93l-96 335q-7 26 -13 47.5t-12 41.5
t-11.5 40.5t-11.5 43.5h-2q-10 -45 -22 -90t-23 -83l-93 -335h-92zM386 834l80 -124h-72l-111 124h103z" />
    <glyph glyph-name="wgrave" unicode="&#x1e81;" horiz-adv-x="712" 
d="M105 470l80 -296l18 -105h4l22 105l81 296h95l83 -296l21 -105h4l22 105l78 296h90l-143 -470h-100l-80 288l-23 116l-24 -116l-82 -288h-95l-145 470h94zM253 690h103l70 -134h-72z" />
    <glyph glyph-name="Wacute" unicode="&#x1e82;" horiz-adv-x="859" 
d="M8 630h94l107 -371q4 -12 9 -30.5t9.5 -39t8.5 -41.5t6 -38h2q3 18 7.5 38.5t9.5 41t9.5 38.5t8.5 31l110 371h82l114 -371q4 -13 9 -31t9.5 -38t8.5 -41t7 -39h2q3 19 7.5 40t9.5 41.5t9.5 38t7.5 29.5l103 371h93l-185 -630h-93l-96 335q-7 26 -13 47.5t-12 41.5
t-11.5 40.5t-11.5 43.5h-2q-10 -45 -22 -90t-23 -83l-93 -335h-92zM463 834h103l-111 -124h-72z" />
    <glyph glyph-name="wacute" unicode="&#x1e83;" horiz-adv-x="712" 
d="M105 470l80 -296l18 -105h4l22 105l81 296h95l83 -296l21 -105h4l22 105l78 296h90l-143 -470h-100l-80 288l-23 116l-24 -116l-82 -288h-95l-145 470h94zM361 690h103l-101 -134h-72z" />
    <glyph glyph-name="Wdieresis" unicode="&#x1e84;" horiz-adv-x="859" 
d="M102 630l107 -371q4 -12 9 -30.5t9.5 -39t8.5 -41.5t6 -38h2q3 18 7.5 38.5t9.5 41t9.5 38.5t8.5 31l110 371h82l114 -371q4 -13 9 -31t9.5 -38t8.5 -41t7 -39h2q3 19 7.5 40t9.5 41.5t9.5 38t7.5 29.5l103 371h93l-185 -630h-93l-96 335q-7 26 -13 47.5t-12 41.5
t-11.5 40.5t-11.5 43.5h-2q-10 -45 -22 -90t-23 -83l-93 -335h-92l-189 630h94zM511 810q20 0 35 -15t15 -34q0 -20 -15 -35.5t-35 -15.5t-35 15.5t-15 35.5q0 19 15 34t35 15zM295 761q0 19 15 34t35 15t35 -15t15 -34q0 -20 -15 -35.5t-35 -15.5t-35 15.5t-15 35.5z" />
    <glyph glyph-name="wdieresis" unicode="&#x1e85;" horiz-adv-x="712" 
d="M11 470h94l80 -296l18 -105h4l22 105l81 296h95l83 -296l21 -105h4l22 105l78 296h90l-143 -470h-100l-80 288l-23 116l-24 -116l-82 -288h-95zM439 672q20 0 35 -15t15 -34q0 -20 -15 -35.5t-35 -15.5t-35 15.5t-15 35.5q0 19 15 34t35 15zM223 623q0 19 15 34t35 15
t35 -15t15 -34q0 -20 -15 -35.5t-35 -15.5t-35 15.5t-15 35.5z" />
    <glyph glyph-name="uni1E8E" unicode="&#x1e8e;" horiz-adv-x="523" 
d="M10 630h101l157 -282l158 282h97l-213 -366v-264h-92v264zM261 837q23 0 39 -16.5t16 -37.5q0 -23 -16 -39.5t-39 -16.5q-22 0 -38.5 16.5t-16.5 39.5q0 21 16.5 37.5t38.5 16.5z" />
    <glyph glyph-name="uni1E8F" unicode="&#x1e8f;" horiz-adv-x="461" 
d="M103 470l100 -269l34 -112h2l34 112l91 269h90l-181 -510q-30 -85 -75.5 -133t-108.5 -70l-38 70q48 18 84 52t56 94l9 27l-191 470h94zM175 623q0 21 16.5 37.5t38.5 16.5q23 0 39 -16.5t16 -37.5q0 -23 -16 -39.5t-39 -16.5q-22 0 -38.5 16.5t-16.5 39.5z" />
    <glyph glyph-name="Ygrave" unicode="&#x1ef2;" horiz-adv-x="523" 
d="M111 630l157 -282l158 282h97l-213 -366v-264h-92v264l-208 366h101zM152 834h103l80 -124h-72z" />
    <glyph glyph-name="ygrave" unicode="&#x1ef3;" horiz-adv-x="461" 
d="M9 470h94l100 -269l34 -112h2l34 112l91 269h90l-181 -510q-30 -85 -75.5 -133t-108.5 -70l-38 70q48 18 84 52t56 94l9 27zM131 690h103l70 -134h-72z" />
    <glyph glyph-name="uni200C" unicode="&#x200c;" horiz-adv-x="0" 
 />
    <glyph glyph-name="endash" unicode="&#x2013;" horiz-adv-x="389" 
d="M360 205v-61h-331v61h331z" />
    <glyph glyph-name="emdash" unicode="&#x2014;" horiz-adv-x="718" 
d="M689 204v-60h-660v60h660z" />
    <glyph glyph-name="quoteleft" unicode="&#x2018;" horiz-adv-x="170" 
d="M146 567q-22 -11 -38.5 -28.5t-22.5 -45.5l13 -2q23 -2 33.5 -18t10.5 -36t-12.5 -36.5t-38.5 -16.5q-10 0 -21 4t-20.5 13t-15.5 25t-6 40q0 44 26 79t66 56z" />
    <glyph glyph-name="quoteright" unicode="&#x2019;" horiz-adv-x="164" 
d="M81 602q10 0 20.5 -3.5t19.5 -12.5t15 -24t6 -39q0 -44 -26 -80t-66 -58l-26 32q22 11 38.5 29.5t22.5 46.5l-13 2q-23 3 -33.5 19t-10.5 36t13.5 36t39.5 16z" />
    <glyph glyph-name="quotesinglbase" unicode="&#x201a;" horiz-adv-x="190" 
d="M77 -6q-26 5 -39 23t-13 41q0 24 16.5 43t46.5 19q12 0 24.5 -4t23 -15t17.5 -29.5t7 -46.5q0 -54 -31 -99t-79 -71l-29 40q26 14 46.5 37.5t27.5 58.5z" />
    <glyph glyph-name="quotedblleft" unicode="&#x201c;" horiz-adv-x="327" 
d="M146 567q-22 -11 -38.5 -28.5t-22.5 -45.5l13 -2q23 -2 33.5 -18t10.5 -36t-12.5 -36.5t-38.5 -16.5q-10 0 -21 4t-20.5 13t-15.5 25t-6 40q0 44 26 79t66 56zM303 567q-22 -11 -38.5 -28.5t-22.5 -45.5l13 -2q23 -2 33.5 -18t10.5 -36t-12.5 -36.5t-38.5 -16.5
q-10 0 -21 4t-20.5 13t-15.5 25t-6 40q0 44 26 79t66 56z" />
    <glyph glyph-name="quotedblright" unicode="&#x201d;" horiz-adv-x="322" 
d="M81 602q10 0 20.5 -3.5t19.5 -12.5t15 -24t6 -39q0 -44 -26 -80t-66 -58l-26 32q22 11 38.5 29.5t22.5 46.5l-13 2q-23 3 -33.5 19t-10.5 36t13.5 36t39.5 16zM239 602q10 0 20.5 -3.5t19.5 -12.5t15 -24t6 -39q0 -44 -26 -80t-66 -58l-26 32q22 11 38.5 29.5t22.5 46.5
l-13 2q-23 3 -33.5 19t-10.5 36t13.5 36t39.5 16z" />
    <glyph glyph-name="quotedblbase" unicode="&#x201e;" horiz-adv-x="385" 
d="M77 -6q-26 5 -39 23t-13 41q0 24 16.5 43t46.5 19q12 0 24.5 -4t23 -15t17.5 -29.5t7 -46.5q0 -54 -31 -99t-79 -71l-29 40q26 14 46.5 37.5t27.5 58.5zM272 -6q-26 5 -39 23t-13 41q0 24 16.5 43t46.5 19q12 0 24.5 -4t23 -15t17.5 -29.5t7 -46.5q0 -54 -31 -99t-79 -71
l-29 40q26 14 46.5 37.5t27.5 58.5z" />
    <glyph glyph-name="dagger" unicode="&#x2020;" horiz-adv-x="351" 
d="M10 396v74h122v160h88v-160h121v-74h-121v-436h-88v436h-122z" />
    <glyph glyph-name="daggerdbl" unicode="&#x2021;" horiz-adv-x="351" 
d="M132 194v202h-122v74h122v160h88v-160h121v-74h-121v-202h121v-74h-121v-160h-88v160h-122v74h122z" />
    <glyph glyph-name="bullet" unicode="&#x2022;" horiz-adv-x="293" 
d="M146 317q46 0 75 -29t29 -75t-29 -75t-74 -29q-47 0 -76 29t-29 75t29 75t75 29z" />
    <glyph glyph-name="ellipsis" unicode="&#x2026;" horiz-adv-x="436" 
d="M74 99q22 0 36 -14.5t14 -37.5t-14 -37.5t-36 -14.5t-36 14.5t-14 37.5t14 37.5t36 14.5zM219 99q22 0 36 -14.5t14 -37.5t-14 -37.5t-36 -14.5t-36 14.5t-14 37.5t14 37.5t36 14.5zM363 99q22 0 36 -14.5t14 -37.5t-14 -37.5t-36 -14.5t-36 14.5t-14 37.5t14 37.5
t36 14.5z" />
    <glyph glyph-name="perthousand" unicode="&#x2030;" horiz-adv-x="1002" 
d="M161 600q31 0 56 -12t41.5 -32.5t25.5 -47.5t9 -57t-8.5 -57.5t-25.5 -47.5t-42 -32t-58 -12q-32 0 -57 12t-41.5 32t-25 47.5t-8.5 57.5t9 57t26.5 47.5t42 32.5t56.5 12zM161 551q-19 0 -32.5 -8t-22 -21.5t-12.5 -32t-4 -38.5t3.5 -38.5t12 -32.5t21.5 -22t32 -8
q37 0 54 28t17 73q0 19 -3.5 37.5t-11.5 32t-21.5 22t-32.5 8.5zM544 600l-350 -600h-62l350 600h62zM507 291q31 0 56 -12t41.5 -32.5t25.5 -47.5t9 -57t-8.5 -57.5t-25.5 -47.5t-42 -32t-58 -12q-32 0 -57 12t-41.5 32t-25 47.5t-8.5 57.5t9 57t26.5 47.5t42 32.5t56.5 12
zM507 242q-19 0 -32.5 -8t-22 -21.5t-12.5 -32t-4 -38.5t3.5 -38.5t12 -32.5t21.5 -22t32 -8q37 0 54 28t17 73q0 19 -3.5 37.5t-11.5 32t-21.5 22t-32.5 8.5zM835 291q31 0 56 -12t41.5 -32.5t25.5 -47.5t9 -57t-8.5 -57.5t-25.5 -47.5t-42 -32t-58 -12q-32 0 -57 12
t-41.5 32t-25 47.5t-8.5 57.5t9 57t26.5 47.5t42 32.5t56.5 12zM835 242q-19 0 -32.5 -8t-22 -21.5t-12.5 -32t-4 -38.5t3.5 -38.5t12 -32.5t21.5 -22t32 -8q37 0 54 28t17 73q0 19 -3.5 37.5t-11.5 32t-21.5 22t-32.5 8.5z" />
    <glyph glyph-name="guilsinglleft" unicode="&#x2039;" horiz-adv-x="314" 
d="M194 76l-148 160l148 161h76l-136 -161l136 -160h-76z" />
    <glyph glyph-name="guilsinglright" unicode="&#x203a;" horiz-adv-x="309" 
d="M46 76l136 160l-136 161h76l148 -161l-148 -160h-76z" />
    <glyph glyph-name="fraction" unicode="&#x2044;" horiz-adv-x="443" 
d="M-15 -9l408 648h65l-408 -648h-65z" />
    <glyph glyph-name="uni20A8" unicode="&#x20a8;" horiz-adv-x="401" 
d="M37 450v54h344v-54h-118q9 -11 19 -28.5t15 -43.5h84v-54h-82q-3 -51 -41 -87.5t-104 -39.5l139 -169l-56 -38l-112 149q-14 19 -26 32.5t-21 23.5l-21 21l21 41q11 -4 21 -6t24 -2q49 0 76 21.5t30 53.5h-192v54h189q-4 22 -15 40.5t-22 31.5h-152z" />
    <glyph glyph-name="Euro" unicode="&#x20ac;" horiz-adv-x="461" 
d="M20 313h58q14 94 71 146t151 52q25 0 44 -2t34.5 -6t29 -10t27.5 -13l-20 -60q-30 14 -53 20t-52 6q-27 0 -53.5 -8.5t-48 -25.5t-35.5 -41.5t-17 -57.5h217v-46h-223v-9v-15t1 -24h222v-46h-216q12 -63 52.5 -89t94.5 -26q34 0 59 6t51 18l19 -61q-29 -15 -59 -21.5
t-78 -6.5q-82 0 -142 45t-76 135h-58v46h52q-1 15 -1 21v13v14h-51v46z" />
    <glyph glyph-name="uni20B9" unicode="&#x20b9;" horiz-adv-x="510" 
d="M0 566v64h430v-64h-151q11 -14 23 -38t19 -58h109v-64h-106q-2 -32 -15.5 -60t-37.5 -50t-56.5 -35t-73.5 -15l177 -211l-68 -45l-140 184q-17 23 -32 40t-27 30l-26 26l25 49q14 -5 26.5 -7.5t30.5 -2.5q63 0 96.5 27.5t37.5 69.5h-241v64h238q-5 29 -19 54t-28 42h-191
z" />
    <glyph glyph-name="uni2113" unicode="&#x2113;" horiz-adv-x="514" 
d="M35 179q20 14 44.5 30.5t43.5 32.5v269q0 56 12.5 95.5t35 65t52.5 37t65 11.5q33 0 60.5 -12t47 -33t30 -50t10.5 -63q0 -46 -17 -90t-47 -87t-71.5 -86t-91.5 -87v-19q0 -35 7.5 -59.5t21 -39.5t31.5 -22t38 -7q38 0 73 17.5t62 44.5l40 -59q-19 -18 -38 -32.5
t-41 -24.5t-47.5 -15t-57.5 -5q-36 0 -68 11t-55 32t-36.5 51.5t-13.5 69.5v6q-15 -11 -29 -20.5t-27 -17.5zM209 307q29 27 55.5 57.5t47.5 62.5t33.5 65.5t12.5 67.5q0 51 -20.5 72t-51.5 21q-13 0 -27 -6.5t-25 -21.5t-18 -40t-7 -63v-215z" />
    <glyph glyph-name="uni2116" unicode="&#x2116;" horiz-adv-x="1047" 
d="M220 630l251 -544h3l-1 150v394h90v-630h-140l-184 396l-67 153h-3l1 -173v-376h-90v630h140zM820 639q83 0 125 -48t42 -124q0 -78 -44.5 -123t-122.5 -45q-81 0 -124 45t-43 123t41 125t126 47zM729 468q0 -54 24 -84.5t67 -30.5t67 31.5t24 82.5q0 57 -23 88t-68 31
q-91 0 -91 -118zM974 239v-56h-303v56h303z" />
    <glyph glyph-name="trademark" unicode="&#x2122;" horiz-adv-x="722" 
d="M361 630h57l75 -226q5 -17 10 -35.5t10 -35.5h2q4 14 9.5 33t11.5 38l73 226h57l31 -356h-51l-14 190q-2 24 -2.5 46t-1.5 53h-2q-8 -31 -15.5 -57t-12.5 -42l-63 -190h-43l-63 191q-8 25 -14 47t-14 51h-2q-1 -29 -2 -55t-3 -44l-13 -190h-50zM40 587v43h270v-43h-110
v-313h-52v313h-108z" />
    <glyph glyph-name="Omega" unicode="&#x2126;" horiz-adv-x="751" 
d="M46 370q0 78 27 140t73 104.5t107 65t128 22.5q70 0 129.5 -24.5t103 -68t68 -104t24.5 -132.5q0 -58 -13.5 -104.5t-35 -83t-49.5 -63.5t-57 -48v-3h148v-71h-254v57q43 30 74.5 61.5t52.5 67.5t31.5 79.5t10.5 98.5q0 56 -16.5 104.5t-47.5 84.5t-74.5 57t-97.5 21
q-53 0 -97 -19t-75.5 -54t-49 -84.5t-17.5 -110.5q0 -88 37 -165t109 -127q5 -4 10.5 -7.5t11.5 -6.5v-57h-254v71h146v3q-28 22 -55.5 48.5t-49 61t-35 80t-13.5 106.5z" />
    <glyph glyph-name="estimated" unicode="&#x212e;" horiz-adv-x="817" 
d="M409 661q77 0 145 -26.5t118.5 -72t80 -106.5t29.5 -131v-9h-605q-5 0 -5 -4v-183q0 -10 9 -21q43 -46 101.5 -72.5t127.5 -26.5q72 0 133.5 30t106.5 81h55q-51 -60 -128 -95.5t-168 -35.5q-77 0 -145 26.5t-119 72t-80.5 106.5t-29.5 131t29.5 131t80.5 106.5t119 72
t145 26.5zM172 340q0 -5 5 -5h464q5 0 5 5v184q0 12 -10 22q-45 45 -102.5 70t-123.5 25q-69 0 -126 -26.5t-102 -71.5q-10 -10 -10 -23v-180z" />
    <glyph glyph-name="partialdiff" unicode="&#x2202;" horiz-adv-x="524" 
d="M76 690q31 20 71.5 27.5t78.5 7.5q48 0 96 -20.5t87 -63.5t63 -109.5t24 -158.5q0 -101 -22.5 -173t-60 -118.5t-87 -68.5t-102.5 -22q-52 0 -89.5 18t-61.5 47.5t-35.5 67t-11.5 77.5q0 55 17 100t46 76.5t69 49t86 17.5q36 0 61.5 -6.5t44 -17.5t32.5 -24.5t27 -27.5
q1 8 1 12.5v8.5q0 69 -14.5 118.5t-39.5 81.5t-59 47.5t-74 15.5q-32 0 -61.5 -5.5t-51.5 -15.5zM225 63q33 0 63.5 17t54 47t39 70t19.5 87q-9 14 -22.5 30t-31 29.5t-40 22t-49.5 8.5q-30 0 -56 -11t-45.5 -33t-31 -53.5t-11.5 -73.5q0 -66 28.5 -103t82.5 -37z" />
    <glyph glyph-name="Delta" unicode="&#x2206;" horiz-adv-x="618" 
d="M30 0v49l232 611h97l229 -610v-50h-558zM357 430q-6 16 -13 37.5t-13.5 43.5t-12.5 43.5t-10 37.5h-3q-3 -16 -8.5 -36t-11.5 -41.5t-13 -42.5t-13 -38l-141 -362h378z" />
    <glyph glyph-name="product" unicode="&#x220f;" horiz-adv-x="616" 
d="M10 630h596v-73h-93v-667h-83v667h-244v-667h-83v667h-93v73z" />
    <glyph glyph-name="summation" unicode="&#x2211;" horiz-adv-x="507" 
d="M9 -82v53l249 316l-236 314v59h471v-73h-361l224 -298l-234 -298h393v-73h-506z" />
    <glyph glyph-name="minus" unicode="&#x2212;" horiz-adv-x="473" 
d="M433 335v-61h-393v61h393z" />
    <glyph glyph-name="uni2215" unicode="&#x2215;" horiz-adv-x="443" 
d="M-15 -9l408 648h65l-408 -648h-65z" />
    <glyph glyph-name="uni2219" unicode="&#x2219;" horiz-adv-x="369" 
d="M60 266q0 25 10 48t27 40t39.5 27t48.5 10q25 0 48 -10t40 -27t27 -40t10 -48q0 -26 -10 -48.5t-27 -39.5t-40 -27t-48 -10q-26 0 -48.5 10t-39.5 27t-27 39.5t-10 48.5z" />
    <glyph glyph-name="radical" unicode="&#x221a;" horiz-adv-x="558" 
d="M348 -95h-63l-180 427l-74 -31l-19 47l138 57l137 -331q8 -17 14 -41t10 -42h2q3 17 7.5 40t10.5 44l211 752h66z" />
    <glyph glyph-name="infinity" unicode="&#x221e;" horiz-adv-x="742" 
d="M549 112q-28 0 -52 9t-45.5 24.5t-41.5 36t-39 43.5q-19 -23 -39 -43.5t-42.5 -36t-48 -24.5t-56.5 -9q-32 0 -58.5 11.5t-45.5 31.5t-30 48t-11 61t11.5 61t32 48.5t48.5 31.5t61 11q28 0 52 -9t45.5 -24.5t41 -36t39.5 -42.5q19 23 39 43.5t42.5 35.5t48 24t56.5 9
t58 -12t46 -32t30 -48t11 -59q0 -30 -11.5 -57.5t-32 -49t-48.5 -34t-61 -12.5zM549 171q37 0 62.5 26t25.5 68q0 43 -24 67.5t-61 24.5q-42 0 -77 -28t-64 -64q15 -19 30.5 -36t32 -30t35.5 -20.5t40 -7.5zM190 171q42 0 77.5 28t63.5 65q-15 17 -30 33.5t-31.5 30
t-35.5 21.5t-41 8q-38 0 -63 -25.5t-25 -67.5q0 -40 23.5 -66.5t61.5 -26.5z" />
    <glyph glyph-name="integral" unicode="&#x222b;" horiz-adv-x="318" 
d="M297 731q-6 2 -15.5 3.5t-17.5 1.5q-43 0 -59 -29t-16 -98q0 -62 2 -131t4 -141t4 -145t2 -144q0 -99 -35 -148.5t-103 -49.5q-19 0 -36 4.5t-24 8.5l18 54q7 -2 16 -4t20 -2q42 0 58.5 39.5t16.5 102.5q0 136 -6 271.5t-6 281.5q0 89 32 139t109 50q15 0 29.5 -3
t22.5 -6z" />
    <glyph glyph-name="approxequal" unicode="&#x2248;" horiz-adv-x="689" 
d="M40 385q31 45 74.5 67.5t104.5 22.5q40 0 74.5 -9.5t66 -21.5t61.5 -21.5t62 -9.5q38 0 65 12.5t56 38.5l45 -48q-38 -44 -76.5 -58.5t-84.5 -14.5q-39 0 -73.5 10t-67 21.5t-64 21.5t-65.5 10q-36 0 -66 -12.5t-63 -50.5zM40 169q31 45 74.5 67.5t104.5 22.5
q40 0 74.5 -9.5t66 -21.5t61.5 -21.5t62 -9.5q38 0 65 12.5t56 38.5l45 -48q-38 -44 -76.5 -58.5t-84.5 -14.5q-39 0 -73.5 10t-67 21.5t-64 21.5t-65.5 10q-36 0 -66 -12.5t-63 -50.5z" />
    <glyph glyph-name="notequal" unicode="&#x2260;" horiz-adv-x="493" 
d="M40 263h153l42 96h-195v63h223l93 208h55l-93 -208h135v-63h-163l-42 -96h205v-63h-233l-89 -200h-55l89 200h-125v63z" />
    <glyph glyph-name="lessequal" unicode="&#x2264;" horiz-adv-x="434" 
d="M40 412l354 169v-75l-274 -125l274 -123v-74l-354 169v59zM41 147h353v-61h-353v61z" />
    <glyph glyph-name="greaterequal" unicode="&#x2265;" horiz-adv-x="434" 
d="M314 384l-274 123v74l354 -169v-59l-354 -169v75zM393 147v-61h-353v61h353z" />
    <glyph glyph-name="lozenge" unicode="&#x25ca;" horiz-adv-x="532" 
d="M300 -51h-69l-201 356l201 355h69l202 -355zM276 572l-11 25l-12 -25l-148 -266l151 -271l11 -25l11 25l148 268z" />
    <glyph glyph-name="uni25CC" unicode="&#x25cc;" horiz-adv-x="531" 
d="M236 21q0 12 8.5 21.5t20.5 9.5t21 -9.5t9 -21.5t-9 -20.5t-21 -8.5t-20.5 9t-8.5 20zM236 473q0 14 8 22t21 8q12 0 21 -8.5t9 -21.5q0 -12 -9 -20.5t-21 -8.5t-20.5 8.5t-8.5 20.5zM10 247q0 12 8.5 21t20.5 9t21 -9t9 -21t-9 -20.5t-21 -8.5t-20.5 8.5t-8.5 20.5z
M461 247q0 12 9 21t21 9t21 -9t9 -21t-9 -20.5t-21 -8.5t-21 8.5t-9 20.5zM85 398q0 12 8.5 21t20.5 9t21 -9t9 -21t-9 -20.5t-21 -8.5t-20.5 8.5t-8.5 20.5zM85 96q0 14 8 22t21 8q12 0 21 -8.5t9 -21.5q0 -12 -9 -20t-21 -8t-20.5 8t-8.5 20zM387 96q0 14 8 22t21 8t21 -8
t8 -22q0 -12 -8.5 -20t-20.5 -8t-20.5 8t-8.5 20zM387 398q0 12 8.5 21t20.5 9t20.5 -9t8.5 -21t-8.5 -20.5t-20.5 -8.5t-20.5 8.5t-8.5 20.5z" />
    <glyph glyph-name="uniF730" unicode="&#xf730;" horiz-adv-x="387" 
d="M203 470h41v-404h105v-66h-296v66h109v240l3 76l-104 -33l-19 68z" />
    <glyph glyph-name="uniF731" unicode="&#xf731;" horiz-adv-x="520" 
d="M480 240q0 -59 -16.5 -105.5t-46 -78.5t-70 -48.5t-89.5 -16.5t-89 15.5t-68.5 46t-44.5 75t-16 102.5q0 59 16.5 105t46 77.5t70 48t89.5 16.5t89 -15t68.5 -45t44.5 -74.5t16 -102.5zM392 235q0 47 -11 80t-29.5 54t-42.5 30.5t-50 9.5t-50 -8t-42 -28t-28.5 -53.5
t-10.5 -84.5q0 -47 11 -80.5t29.5 -54.5t42.5 -31t50 -10t50 8.5t42 29t28.5 54t10.5 84.5z" />
    <glyph glyph-name="uniF732" unicode="&#xf732;" horiz-adv-x="418" 
d="M31 425q38 28 75 40t78 12q80 0 126 -42.5t46 -112.5q0 -43 -18 -80.5t-46 -70.5t-61.5 -60t-64.5 -49l88 6h119v-68h-323v52q30 19 68 47.5t71.5 64t57 75t23.5 79.5q0 42 -24.5 65.5t-69.5 23.5q-26 0 -54.5 -10.5t-54.5 -28.5z" />
    <glyph glyph-name="uniF733" unicode="&#xf733;" horiz-adv-x="434" 
d="M40 440q35 21 70.5 29t77.5 8q40 0 72.5 -11t55 -30.5t34.5 -47t12 -59.5q0 -23 -8 -43.5t-22 -36.5t-32.5 -28t-39.5 -18v-2q52 -9 88 -48t36 -103q0 -47 -19 -86t-54 -66.5t-84.5 -42.5t-110.5 -15q-14 0 -31.5 1t-37.5 4l-12 63q17 -2 33 -2.5t28 -0.5q101 0 152.5 40
t51.5 107q0 54 -38 82t-107 28q-9 0 -23 -0.5t-35 -2.5v71h24q87 0 123 27.5t36 71.5q0 38 -28.5 59t-68.5 21q-27 0 -54.5 -6.5t-56.5 -23.5z" />
    <glyph glyph-name="uniF734" unicode="&#xf734;" horiz-adv-x="540" 
d="M311 470h85v-402h99v-68h-99v-160h-78v160h-283v52zM318 68v193l6 126l-65 -110l-131 -209h190z" />
    <glyph glyph-name="uniF735" unicode="&#xf735;" horiz-adv-x="439" 
d="M91 470l270 4l-9 -68h-199l-24 -154q11 2 24 2h21q49 0 88 -14.5t66 -39.5t41.5 -59t14.5 -74q0 -47 -18.5 -88.5t-53.5 -72.5t-85.5 -48.5t-115.5 -17.5q-14 0 -29 1t-35 4l-12 63q33 -3 56 -3q54 0 93.5 12.5t65 34t38 51t12.5 62.5q0 30 -12.5 52.5t-34.5 38
t-52.5 23.5t-67.5 8q-23 0 -40.5 -1.5t-42.5 -4.5z" />
    <glyph glyph-name="uniF736" unicode="&#xf736;" horiz-adv-x="519" 
d="M433 572q-9 2 -17 2.5t-21 0.5q-58 0 -103.5 -20.5t-78 -54.5t-52 -76.5t-26.5 -85.5l2 -2q23 28 61 45.5t82 17.5q46 0 82 -14.5t61 -41t38 -62.5t13 -78q0 -48 -16.5 -87t-44.5 -66.5t-65.5 -43t-79.5 -15.5q-45 0 -85 16t-69.5 48.5t-46.5 81.5t-17 116q0 74 22 143.5
t64 123.5t103.5 86.5t140.5 32.5q11 0 23 -1t23 -3zM132 217q0 -35 10 -64t28 -50t43 -33t55 -12q56 0 89 39t33 102q0 62 -33.5 98t-90.5 36q-48 0 -75.5 -17.5t-41.5 -40.5q-17 -27 -17 -58z" />
    <glyph glyph-name="uniF737" unicode="&#xf737;" horiz-adv-x="429" 
d="M409 470v-60q-47 -74 -88 -151.5t-75 -152t-60 -141.5t-42 -121l-78 20q18 56 46 123.5t61 138.5t69.5 141.5t71.5 132.5h-267v70h362z" />
    <glyph glyph-name="uniF738" unicode="&#xf738;" horiz-adv-x="500" 
d="M251 639q43 0 77.5 -12.5t58.5 -34t37 -51.5t13 -64q0 -26 -9.5 -48t-25.5 -40t-37.5 -31.5t-45.5 -21.5v-2q69 -24 100 -63t31 -96q0 -43 -17 -76t-44.5 -55t-63.5 -33t-74 -11q-40 0 -76.5 11t-64 32t-44 52.5t-16.5 73.5q0 113 133 158v2q-55 23 -86 56.5t-31 91.5
q0 34 12 64t35.5 51.5t58 34t79.5 12.5zM146 482q0 -24 8.5 -42t23.5 -32.5t34.5 -25t41.5 -17.5q19 6 37.5 16t33 24t23.5 32t9 41q0 25 -9.5 43.5t-24.5 31t-34 18.5t-38 6q-45 0 -75 -25t-30 -70zM248 298q-60 -21 -88 -52.5t-28 -73.5q0 -28 9.5 -48t26 -33.5t38 -20
t45.5 -6.5q22 0 43.5 7t37.5 20.5t26 34.5t10 49q0 25 -9.5 44.5t-26 34t-38.5 25.5t-46 19z" />
    <glyph glyph-name="uniF739" unicode="&#xf739;" horiz-adv-x="519" 
d="M94 -96q63 0 113 19.5t86.5 51t58.5 72t30 82.5l-2 2q-24 -30 -61.5 -46t-79.5 -16q-46 0 -82 14.5t-61 41t-38 62.5t-13 78q0 48 17 87t45.5 66.5t67 43t82.5 15.5q45 0 84 -16t67.5 -48.5t44.5 -81.5t16 -116q0 -77 -24 -145.5t-69.5 -119.5t-112.5 -80.5t-154 -29.5
q-11 0 -23 1t-23 3l-7 63q9 -2 17 -2.5t21 -0.5zM387 251q0 32 -8 61t-24 50.5t-41 34.5t-59 13q-56 0 -91 -39t-35 -102q0 -62 33.5 -98t90.5 -36q48 0 75.5 17.5t41.5 40.5q17 27 17 58z" />
    <glyph glyph-name="uniF761" unicode="&#xf761;" horiz-adv-x="465" 
d="M2 0l188 470h82l192 -470h-90l-47 124h-190l-49 -124h-86zM161 191h142l-30 79q-11 28 -21 55.5t-18 51.5h-1q-8 -23 -19 -51l-22 -56z" />
    <glyph glyph-name="uniF762" unicode="&#xf762;" horiz-adv-x="468" 
d="M253 470q78 0 116.5 -32t38.5 -84q0 -38 -23 -63.5t-59 -37.5q103 -25 103 -119q0 -28 -11 -52.5t-33.5 -42.5t-55.5 -28.5t-77 -10.5h-172v470h173zM155 212v-144h76q51 0 78.5 17t27.5 57q0 13 -4.5 25.5t-14 22.5t-26 16t-40.5 6h-97zM155 402v-124h79q35 0 59.5 14.5
t24.5 49.5q0 28 -20 44t-66 16h-77z" />
    <glyph glyph-name="uniF763" unicode="&#xf763;" horiz-adv-x="449" 
d="M302 59q32 0 56 7t47 18l19 -66q-54 -27 -129 -27q-53 0 -98.5 15t-79.5 45.5t-53 76t-19 106.5q0 56 18 101t50.5 76.5t78.5 48.5t102 17q31 0 60.5 -4.5t67.5 -21.5l-20 -67q-46 26 -99 26q-77 0 -122.5 -45.5t-45.5 -127.5q0 -51 14 -85t37.5 -54.5t53.5 -29.5t62 -9z
" />
    <glyph glyph-name="uniF764" unicode="&#xf764;" horiz-adv-x="535" 
d="M243 470q48 0 92.5 -12t79 -39t55 -69.5t20.5 -103.5q0 -64 -19.5 -110.5t-53.5 -76.5t-80.5 -44.5t-99.5 -14.5h-157v470h163zM168 69h49q28 0 60.5 6t59.5 24.5t45 52.5t18 91q0 80 -46.5 119t-136.5 39h-49v-332z" />
    <glyph glyph-name="uniF765" unicode="&#xf765;" horiz-adv-x="443" 
d="M397 470v-68h-231v-126h209v-67h-209v-141h233v-68h-319v470h317z" />
    <glyph glyph-name="uniF766" unicode="&#xf766;" horiz-adv-x="423" 
d="M80 0v470h308v-68h-220v-137h202v-68h-202v-197h-88z" />
    <glyph glyph-name="uniF767" unicode="&#xf767;" horiz-adv-x="505" 
d="M302 59q20 0 39 2.5t36 7.5v116h-96v65h169v-231q-31 -14 -72 -21t-83 -7q-53 0 -98.5 15t-79.5 45.5t-53 76t-19 106.5q0 56 18 101t50.5 76.5t78.5 48.5t102 17q31 0 67.5 -3.5t74.5 -20.5l-20 -67q-24 14 -54 19t-59 5q-77 0 -122.5 -45.5t-45.5 -127.5q0 -51 14 -85
t37.5 -54.5t53.5 -29.5t62 -9z" />
    <glyph glyph-name="uniF768" unicode="&#xf768;" horiz-adv-x="550" 
d="M80 0v470h85v-187h220v187h86v-470h-86v211h-220v-211h-85z" />
    <glyph glyph-name="uniF769" unicode="&#xf769;" horiz-adv-x="247" 
d="M168 470v-470h-88v470h88z" />
    <glyph glyph-name="uniF76A" unicode="&#xf76a;" horiz-adv-x="247" 
d="M175 470v-397q0 -51 -4.5 -91t-24.5 -73q-24 -40 -62 -56t-84 -16v72q18 0 37 7t31 26q12 20 15.5 50t3.5 52v426h88z" />
    <glyph glyph-name="uniF76B" unicode="&#xf76b;" horiz-adv-x="472" 
d="M168 470v-203l178 203h104l-188 -207l205 -263h-106l-155 209l-38 -43v-166h-88v470h88z" />
    <glyph glyph-name="uniF76C" unicode="&#xf76c;" horiz-adv-x="399" 
d="M80 470h88v-398h216v-72h-304v470z" />
    <glyph glyph-name="uniF76D" unicode="&#xf76d;" horiz-adv-x="664" 
d="M60 0l40 470h108l99 -299l27 -88h1q6 21 12.5 42.5t14.5 45.5l97 299h108l41 -470h-87l-19 250q-2 27 -4 62t-3 73h-2q-3 -18 -7.5 -38t-10 -38t-10 -33.5t-7.5 -25.5l-83 -250h-83l-83 251q-11 31 -21 65t-17 69h-2q0 -35 -2 -70.5t-4 -64.5l-18 -250h-85z" />
    <glyph glyph-name="uniF76E" unicode="&#xf76e;" horiz-adv-x="561" 
d="M80 0v470h79l185 -253q7 -10 15 -22.5t15.5 -25.5t14 -24.5t9.5 -18.5h2q-2 34 -3 65.5t-1 59.5v219h86v-470h-78l-187 259q-15 23 -28.5 44.5t-23.5 44.5h-2q2 -36 2.5 -72t0.5 -72v-204h-86z" />
    <glyph glyph-name="uniF76F" unicode="&#xf76f;" horiz-adv-x="552" 
d="M506 240q0 -59 -18 -105.5t-49.5 -78.5t-73.5 -48.5t-91 -16.5t-90.5 15.5t-72 46t-48 75t-17.5 102.5q0 59 18 105t49.5 77.5t73.5 48t91 16.5t90.5 -15t72 -45t48 -74.5t17.5 -102.5zM414 235q0 47 -12 80t-31.5 54t-44.5 30.5t-51 9.5t-51 -8t-44 -28t-30.5 -53.5
t-11.5 -84.5q0 -47 12 -80.5t31.5 -54.5t44.5 -31t51 -10t51 8.5t44 29t30.5 54t11.5 84.5z" />
    <glyph glyph-name="uniF770" unicode="&#xf770;" horiz-adv-x="455" 
d="M81 470h176q34 0 65 -9.5t54.5 -28.5t37 -46t13.5 -61q0 -48 -19 -78t-48.5 -46.5t-66.5 -22.5t-73 -6h-51v-172h-88v470zM168 240h55q20 0 40.5 3.5t37 12.5t26.5 25t10 41t-10 40.5t-25.5 24.5t-35.5 12t-40 3h-58v-162z" />
    <glyph glyph-name="uniF771" unicode="&#xf771;" horiz-adv-x="536" 
d="M323 -6q16 -3 30.5 -9.5t29.5 -14t32 -13t39 -5.5q26 0 41 5t29 13l22 -65q-15 -9 -38 -15.5t-51 -6.5q-35 0 -62 9.5t-51 21.5t-47.5 21.5t-52.5 9.5q-34 0 -58 -9.5t-47 -24.5l-32 60q18 14 40.5 22.5t42.5 12.5v3q-29 8 -55 28t-46 49t-31.5 66.5t-11.5 81.5
q0 58 18 103.5t49 76.5t73 47t91 16t90.5 -15.5t72.5 -46t48.5 -75t17.5 -102.5q0 -53 -15 -95t-40.5 -72.5t-58.5 -49t-69 -25.5v-2zM414 233q0 47 -12 80.5t-31.5 54.5t-45 31t-51.5 10t-50.5 -8t-43.5 -27.5t-30.5 -52t-11.5 -82.5q0 -47 11.5 -81t30.5 -56.5t44 -33.5
t51 -11t51 8.5t44.5 29t31.5 54t12 84.5z" />
    <glyph glyph-name="uniF772" unicode="&#xf772;" horiz-adv-x="447" 
d="M80 470h176q32 0 61.5 -9t52 -26.5t36 -44.5t13.5 -63q0 -54 -25 -88t-73 -53l111 -186h-98l-86 170h-85v-170h-83v470zM162 402v-165h64q48 0 76.5 20t28.5 65t-28 62.5t-79 17.5h-62z" />
    <glyph glyph-name="uniF773" unicode="&#xf773;" horiz-adv-x="424" 
d="M339 382q-33 16 -60 22t-54 6q-48 0 -71 -17.5t-23 -46.5q0 -24 16 -38t67 -29l30 -9q67 -20 101.5 -51.5t34.5 -85.5q0 -64 -47.5 -103t-132.5 -39q-45 0 -86.5 8t-71.5 22l21 69q29 -14 63 -22.5t69 -8.5q45 0 71.5 16t26.5 53q0 32 -23 45.5t-66 26.5l-31 10
q-65 21 -96.5 51t-31.5 83q0 30 13 55t35.5 42t53.5 26.5t68 9.5q35 0 72.5 -6.5t71.5 -21.5z" />
    <glyph glyph-name="uniF774" unicode="&#xf774;" horiz-adv-x="396" 
d="M10 470h377v-68h-146v-402h-88v402h-143v68z" />
    <glyph glyph-name="uniF775" unicode="&#xf775;" horiz-adv-x="549" 
d="M70 221v249h88v-245q0 -51 9 -83t25 -50t38.5 -25t49.5 -7q53 0 82 35.5t29 119.5v255h88v-248q0 -118 -50.5 -174.5t-150.5 -56.5q-103 0 -155.5 56t-52.5 174z" />
    <glyph glyph-name="uniF776" unicode="&#xf776;" horiz-adv-x="460" 
d="M96 470l92 -248q11 -30 22.5 -63.5t19.5 -62.5h2q7 27 18.5 62t22.5 65l93 247h92l-186 -470h-87l-182 470h93z" />
    <glyph glyph-name="uniF777" unicode="&#xf777;" horiz-adv-x="668" 
d="M98 470l76 -261q6 -18 13.5 -49.5t11.5 -57.5h2l10.5 52.5t13.5 53.5l79 262h61l82 -263q3 -8 6.5 -20.5t7.5 -27t7 -29.5t5 -28h2q4 27 10.5 58t11.5 51l73 259h90l-139 -470h-89l-72 251q-3 9 -6.5 23t-7.5 29t-7 29.5t-5 26.5h-2q-2 -11 -5 -25.5t-6 -29.5t-6.5 -29
t-6.5 -24l-69 -251h-89l-142 470h90z" />
    <glyph glyph-name="uniF778" unicode="&#xf778;" horiz-adv-x="439" 
d="M169 238l-155 232h99l74 -115l36 -60l104 175h96l-154 -232l165 -238h-100l-81 118l-37 61l-34 -60l-78 -119h-98z" />
    <glyph glyph-name="uniF779" unicode="&#xf779;" horiz-adv-x="401" 
d="M-2 470h97l105 -218l109 218h92l-162 -290v-180h-85v180z" />
    <glyph glyph-name="uniF77A" unicode="&#xf77a;" horiz-adv-x="413" 
d="M382 417l-249 -349h254v-68h-362v56l249 346h-232v68h340v-53z" />
    <glyph glyph-name="OneEightieth.1" horiz-adv-x="821" 
d="M53 696q57 28 137.5 49.5t183.5 21.5q82 0 150.5 -21t118 -69t77 -127t27.5 -195q0 -190 -55.5 -280t-170.5 -90q-103 0 -153.5 68.5t-50.5 194.5q0 99 22 191h-181v-439h-78v504h456v-65h-117q-13 -48 -18.5 -95t-5.5 -93q0 -94 29.5 -145t96.5 -51q35 0 62 15.5t46 51
t29 92.5t10 141q0 98 -21.5 164t-60.5 106t-93 56.5t-120 16.5q-100 0 -172.5 -18.5t-126.5 -41.5z" />
    <glyph glyph-name="exclam.lat" horiz-adv-x="247" 
d="M77 710h94l-12 -501h-72zM63 54q0 26 18 44t43 18t42.5 -18t17.5 -44q0 -29 -17.5 -46t-42.5 -17t-43 17t-18 46z" />
    <glyph glyph-name="quotedbl.lat" horiz-adv-x="324" 
d="M190 645h83l-16 -217h-52zM134 645l-15 -217h-52l-16 217h83z" />
    <glyph glyph-name="numbersign.lat" horiz-adv-x="620" 
d="M35 282h128l30 187h-123v68h135l32 203h67l-33 -203v-1h147v1l32 203h67l-33 -203h102v-68h-112l-31 -187h109v-68h-118l-35 -214h-68l34 214h-145l-35 -214h-67l33 214h-116v68zM376 282l30 187h-146l-30 -187h146z" />
    <glyph glyph-name="percent.lat" horiz-adv-x="820" 
d="M165 0l437 750h65l-437 -750h-65zM789 178q0 -38 -10.5 -72t-31.5 -59.5t-52 -40.5t-71 -15q-39 0 -69.5 15t-51 40.5t-31 59.5t-10.5 72t11 71.5t32.5 59t52 40.5t69.5 15t69 -15t51 -40.5t31.5 -59t10.5 -71.5zM717 178q0 26 -4.5 50t-15 43t-28 30t-42.5 11
q-24 0 -42 -11t-29 -29t-16.5 -42.5t-5.5 -51.5t5 -51.5t15.5 -43t28 -29.5t41.5 -11q48 0 70.5 37.5t22.5 97.5zM357 564q0 -38 -10.5 -72t-31.5 -59.5t-52 -40.5t-71 -15q-39 0 -69.5 15t-51 40.5t-31 59.5t-10.5 72t11 71.5t32.5 59t52 40.5t69.5 15t69 -15t51 -40.5
t31.5 -59t10.5 -71.5zM285 564q0 26 -4.5 50t-15 43t-28 30t-42.5 11q-24 0 -42 -11t-29 -29t-16.5 -42.5t-5.5 -51.5t5 -51.5t15.5 -43t28 -29.5t41.5 -11q48 0 70.5 37.5t22.5 97.5z" />
    <glyph glyph-name="quotesingle.lat" horiz-adv-x="185" 
d="M51 645h83l-16 -217h-52z" />
    <glyph glyph-name="parenleft.lat" horiz-adv-x="301" 
d="M211 -153q-30 41 -59 87.5t-51.5 99.5t-36.5 113.5t-14 131.5q0 70 14.5 132.5t37.5 117t52 100t59 81.5l48 -34q-55 -84 -89.5 -181.5t-34.5 -215.5q0 -59 8.5 -111.5t24 -101t38.5 -95.5t53 -95z" />
    <glyph glyph-name="parenright.lat" horiz-adv-x="301" 
d="M90 710q30 -41 59 -87.5t51.5 -99.5t36.5 -114t14 -131t-14.5 -132.5t-37.5 -117t-52 -100t-59 -81.5l-48 34q55 84 89.5 181.5t34.5 215.5q0 59 -8.5 111.5t-24 101t-38.5 95.5t-53 95z" />
    <glyph glyph-name="asterisk.lat" horiz-adv-x="342" 
d="M57 412l39 52l57 53l-78 10l-61 19l18 55l60 -18l72 -38l-18 77v62h60v-62l-17 -77l71 38l60 18l18 -55l-61 -19l-78 -10l57 -53l38 -52l-48 -35l-37 52l-33 71l-33 -71l-39 -52z" />
    <glyph glyph-name="comma.lat" horiz-adv-x="214" 
d="M101 -9q-26 5 -39 23t-13 41q0 24 16.5 43t46.5 19q12 0 24.5 -3.5t23 -14t17.5 -29t7 -48.5q0 -54 -31 -99t-79 -71l-29 40q26 14 46.5 37.5t27.5 58.5z" />
    <glyph glyph-name="hyphen.lat" horiz-adv-x="280" 
d="M250 333v-79h-220v79h220z" />
    <glyph glyph-name="period.lat" horiz-adv-x="211" 
d="M54 54q0 26 18 44t43 18t42.5 -18t17.5 -44q0 -29 -17.5 -46t-42.5 -17t-43 17t-18 46z" />
    <glyph glyph-name="slash.lat" horiz-adv-x="375" 
d="M-1 -109l304 859h75l-304 -859h-75z" />
    <glyph glyph-name="zero.lat" horiz-adv-x="575" 
d="M288 639q52 0 97 -18.5t78 -57.5t51.5 -100.5t18.5 -147.5t-20 -147.5t-54 -100.5t-78 -57.5t-93 -18.5q-53 0 -97.5 18.5t-77.5 57.5t-51.5 100.5t-18.5 147.5q0 82 20 143t53.5 101.5t78 60t93.5 19.5zM135 315q0 -79 13 -128.5t34 -77.5t49 -38.5t58 -10.5t57.5 11.5
t48.5 41t33.5 78.5t12.5 124q0 78 -13 128t-34 78t-49 38.5t-58 10.5t-57.5 -11.5t-48.5 -41t-33.5 -78.5t-12.5 -124z" />
    <glyph glyph-name="one.lat" horiz-adv-x="364" 
d="M210 630h64v-630h-86v538l-113 -52l-20 73z" />
    <glyph glyph-name="two.lat" horiz-adv-x="483" 
d="M224 567q-32 0 -61 -11t-64 -38l-39 59q45 38 85.5 50t78.5 12q52 0 89.5 -14.5t62.5 -39.5t37 -59t12 -74q0 -36 -15 -73.5t-42.5 -77t-66.5 -82t-88 -89.5l-59 -57h286v-73h-379l-16 63l83 83q55 55 94.5 98t64.5 79t36.5 66t11.5 60q0 51 -27.5 84.5t-83.5 33.5z" />
    <glyph glyph-name="three.lat" horiz-adv-x="490" 
d="M53 592q39 26 81 36.5t80 10.5q42 0 77.5 -12t60.5 -33.5t39 -51t14 -64.5q0 -59 -30.5 -98t-74.5 -55q55 -12 91 -52.5t36 -97.5q0 -51 -20 -86t-52 -56.5t-72.5 -31.5t-82.5 -10t-84 8t-74 23l20 68q17 -6 32 -11.5t31 -9t33.5 -5.5t40.5 -2q25 0 49.5 6t43.5 20
t31 35.5t12 53.5q0 28 -10.5 49t-29 34t-43.5 19.5t-55 6.5h-75v68h58q58 0 96.5 28t38.5 86q0 21 -8.5 39.5t-23 32t-34 21.5t-42.5 8q-32 0 -60 -8t-66 -30z" />
    <glyph glyph-name="four.lat" horiz-adv-x="536" 
d="M20 160v55l303 415h79v-397h99v-73h-99v-160h-82v160h-300zM320 233v174l5 126h-2l-49 -85l-155 -215h201z" />
    <glyph glyph-name="five.lat" horiz-adv-x="517" 
d="M427 632v-73l-233 -2l-19 -166q12 2 27 3.5t32 1.5q37 0 75.5 -10t69.5 -32.5t51 -59t20 -89.5q0 -45 -16 -84t-47.5 -68t-78 -45.5t-107.5 -16.5q-35 0 -72 8t-66 22l20 71q24 -12 54 -20t62 -8q76 0 117.5 34.5t41.5 103.5q0 33 -11.5 57.5t-32 40.5t-48.5 24t-61 8
q-27 0 -55 -3.5t-57 -9.5l31 311z" />
    <glyph glyph-name="six.lat" horiz-adv-x="524" 
d="M315 639q68 0 121 -20l-21 -71q-21 9 -45 14.5t-52 5.5q-44 0 -77 -16.5t-55.5 -45.5t-35 -70t-13.5 -90q28 35 67.5 51.5t81.5 16.5t79 -13.5t64.5 -40t43.5 -64.5t16 -87q0 -50 -16.5 -90t-46 -68.5t-69.5 -44t-88 -15.5q-43 0 -83 16.5t-71.5 52.5t-50.5 92.5
t-19 136.5q0 97 22.5 163.5t60 108t86 60t101.5 18.5zM137 230q0 -36 9.5 -67t27.5 -54t43 -36.5t55 -13.5q29 0 52.5 11t40.5 31t26.5 47t9.5 59q0 71 -36 104t-96 33q-45 0 -75.5 -21t-46.5 -49q-6 -11 -8 -22t-2 -22z" />
    <glyph glyph-name="seven.lat" horiz-adv-x="495" 
d="M449 630v-62l-272 -586l-75 33l259 542h-304v73h392z" />
    <glyph glyph-name="eight.lat" horiz-adv-x="505" 
d="M254 639q49 0 85.5 -13t61.5 -35t37.5 -50t12.5 -59q0 -45 -29.5 -85t-90.5 -64q69 -29 102.5 -66.5t33.5 -96.5q0 -44 -16 -77t-44.5 -56t-67.5 -34.5t-85 -11.5q-45 0 -84.5 12t-68.5 34t-46 53.5t-17 71.5q0 61 31.5 98t98.5 66q-51 23 -80 60.5t-29 86.5q0 33 12 63
t36.5 53t61 36.5t85.5 13.5zM142 478q0 -23 9.5 -41t25 -31.5t36.5 -24t44 -18.5q23 9 43 20t35 25.5t23.5 32t8.5 39.5q0 21 -9 38t-24.5 29.5t-36 19t-43.5 6.5q-28 0 -49 -8t-35 -21t-21 -30.5t-7 -35.5zM246 294q-53 -17 -86 -46.5t-33 -82.5q0 -42 31.5 -74t95.5 -32
q29 0 52.5 8.5t39.5 23.5t24.5 34t8.5 40q0 25 -10 45.5t-28 36t-42.5 27.5t-52.5 20z" />
    <glyph glyph-name="nine.lat" horiz-adv-x="517" 
d="M206 -9q-45 0 -76.5 6.5t-54.5 17.5l21 71q21 -9 44.5 -16.5t62.5 -7.5q88 0 131 55.5t46 161.5q-25 -29 -63.5 -46t-80.5 -17t-78.5 13.5t-63 40t-41.5 64.5t-15 87t16 89.5t45 69t68.5 44t87.5 15.5q43 0 82 -16.5t69 -52.5t48 -92.5t18 -136.5q0 -97 -20.5 -163.5
t-56 -108t-84 -60t-105.5 -18.5zM380 392q0 36 -9.5 68t-26.5 57t-42 39.5t-55 14.5q-58 0 -89.5 -39.5t-31.5 -103.5q0 -71 34 -106.5t94 -35.5q42 0 71 18.5t45 46.5q6 11 8 20.5t2 20.5z" />
    <glyph glyph-name="colon.lat" horiz-adv-x="223" 
d="M51 55q0 26 18 44t43 18t42.5 -18t17.5 -44q0 -29 -17.5 -46t-42.5 -17t-43 17t-18 46zM51 355q0 26 18 44t43 18t42.5 -18t17.5 -44q0 -29 -17.5 -46t-42.5 -17t-43 17t-18 46z" />
    <glyph glyph-name="semicolon.lat" horiz-adv-x="219" 
d="M53 355q0 26 18 44t43 18t42.5 -18t17.5 -44q0 -29 -17.5 -46t-42.5 -17t-43 17t-18 46zM101 -9q-26 5 -39 23t-13 41q0 24 16.5 43t46.5 19q12 0 24.5 -3.5t23 -14t17.5 -29t7 -48.5q0 -54 -31 -99t-79 -71l-29 40q26 14 46.5 37.5t27.5 58.5z" />
    <glyph glyph-name="question.lat" horiz-adv-x="437" 
d="M200 715q45 0 80.5 -12.5t60.5 -35t38 -53.5t13 -67q0 -26 -8.5 -49.5t-23 -45.5t-32.5 -41.5t-36 -36.5q-41 -37 -64 -65t-23 -63q0 -14 2 -25t7 -27l-75 -14q-13 32 -13 67q0 22 5.5 41t16.5 37.5t27 37.5t38 41q18 18 34 34.5t28 34t19.5 35.5t7.5 38q0 18 -5.5 34.5
t-18 29.5t-33 21t-50.5 8q-23 0 -48.5 -6.5t-50.5 -24.5l-38 66q29 21 68 31t74 10zM124 54q0 26 18 44t43 18t42.5 -18t17.5 -44q0 -29 -17.5 -46t-42.5 -17t-43 17t-18 46z" />
    <glyph glyph-name="bracketleft.lat" horiz-adv-x="301" 
d="M81 720h190v-66h-104v-742h104v-67h-190v875z" />
    <glyph glyph-name="backslash.lat" horiz-adv-x="331" 
d="M256 -88l-256 808h75l256 -808h-75z" />
    <glyph glyph-name="bracketright.lat" horiz-adv-x="301" 
d="M30 654v66h190v-875h-190v67h104v742h-104z" />
    <glyph glyph-name="braceleft.lat" horiz-adv-x="326" 
d="M116 395v160q0 32 12 59.5t35.5 47.5t58 31.5t79.5 11.5v-66q-51 0 -76.5 -27t-25.5 -76v-143q0 -46 -16.5 -73.5t-56.5 -40.5v-3q38 -17 55.5 -52t17.5 -89v-142q0 -35 25.5 -56t76.5 -23v-69q-85 2 -135 44.5t-50 117.5v148q0 42 -21 65.5t-67 25.5v61q45 5 66.5 25
t21.5 63z" />
    <glyph glyph-name="bar.lat" horiz-adv-x="219" 
d="M72 -230v980h75v-980h-75z" />
    <glyph glyph-name="braceright.lat" horiz-adv-x="326" 
d="M25 -155v69q51 2 76.5 23t25.5 56v142q0 54 17.5 89t55.5 52v3q-40 13 -56.5 40.5t-16.5 73.5v143q0 49 -25.5 76t-76.5 27v71q45 0 79.5 -12t58 -33t35.5 -49.5t12 -60.5v-160q0 -43 21.5 -63t66.5 -25v-61q-46 -2 -67 -25.5t-21 -65.5v-148q0 -75 -50 -117.5
t-135 -44.5z" />
    <glyph glyph-name="ellipsis.lat" horiz-adv-x="587" 
d="M54 54q0 26 18 44t43 18t42.5 -18t17.5 -44q0 -29 -17.5 -46t-42.5 -17t-43 17t-18 46zM235 54q0 26 18 44t43 18t42.5 -18t17.5 -44q0 -29 -17.5 -46t-42.5 -17t-43 17t-18 46zM416 54q0 26 18 44t43 18t42.5 -18t17.5 -44q0 -29 -17.5 -46t-42.5 -17t-43 17t-18 46z
" />
    <glyph glyph-name="endash.lat" horiz-adv-x="521" 
d="M467 249v-61h-413v61h413z" />
    <glyph glyph-name="emdash.lat" horiz-adv-x="934" 
d="M880 248v-60h-826v60h826z" />
    <glyph glyph-name="quoteleft.lat" horiz-adv-x="204" 
d="M113 610q26 -5 39 -23t13 -41q0 -24 -15.5 -43t-45.5 -19q-12 0 -25 4.5t-24 15.5t-18 30t-7 48q0 54 31 97.5t79 69.5l29 -40q-26 -14 -46.5 -37.5t-27.5 -58.5z" />
    <glyph glyph-name="quoteright.lat" horiz-adv-x="204" 
d="M91 623q-26 5 -39 23t-13 41q0 24 16.5 43t46.5 19q12 0 24.5 -4t23 -15t17.5 -29.5t7 -46.5q0 -54 -31 -99t-79 -71l-29 40q26 14 46.5 37.5t27.5 58.5z" />
    </font>
</defs>
</svg>
